  0
SECTION
  2
HEADER
  9
$ACADVER
  1
AC1014
  9
$HANDSEED
  5
FFFF
  9
$MEASUREMENT
 70
     1
  0
ENDSEC
  0
SECTION
  2
TABLES
  0
TABLE
  2
VPORT
  5
8
330
0
100
AcDbSymbolTable
 70
     4
  0
VPORT
  5
2E
330
8
100
AcDbSymbolTableRecord
100
AcDbViewportTableRecord
  2
*ACTIVE
 70
     0
 10
0.0
 20
0.0
 11
1.0
 21
1.0
 12
210.0
 22
148.5
 13
0.0
 23
0.0
 14
10.0
 24
10.0
 15
10.0
 25
10.0
 16
0.0
 26
0.0
 36
1.0
 17
0.0
 27
0.0
 37
0.0
 40
341.0
 41
1.24
 42
50.0
 43
0.0
 44
0.0
 50
0.0
 51
0.0
 71
     0
 72
   100
 73
     1
 74
     3
 75
     0
 76
     0
 77
     0
 78
     0
  0
ENDTAB
  0
TABLE
  2
LTYPE
  5
5
330
0
100
AcDbSymbolTable
 70
     1
  0
LTYPE
  5
14
330
5
100
AcDbSymbolTableRecord
100
AcDbLinetypeTableRecord
  2
BYBLOCK
 70
     0
  3

 72
    65
 73
     0
 40
0.0
  0
LTYPE
  5
15
330
5
100
AcDbSymbolTableRecord
100
AcDbLinetypeTableRecord
  2
BYLAYER
 70
     0
  3

 72
    65
 73
     0
 40
0.0
  0
LTYPE
  5
16
330
5
100
AcDbSymbolTableRecord
100
AcDbLinetypeTableRecord
  2
CONTINUOUS
 70
     0
  3
Solid line
 72
    65
 73
     0
 40
0.0
  0
ENDTAB
  0
TABLE
  2
LAYER
  5
2
100
AcDbSymbolTable
 70
2
  0
LAYER
  5
50
100
AcDbSymbolTableRecord
100
AcDbLayerTableRecord
  2
0
 70
0
  6
CONTINUOUS
  0
LAYER
  5
51
100
AcDbSymbolTableRecord
100
AcDbLayerTableRecord
  2
Image
 70
0
  6
CONTINUOUS
  0
ENDTAB
  0
TABLE
  2
STYLE
  5
3
330
0
100
AcDbSymbolTable
 70
     1
  0
STYLE
  5
11
330
3
100
AcDbSymbolTableRecord
100
AcDbTextStyleTableRecord
  2
STANDARD
 70
     0
 40
0.0
 41
1.0
 50
0.0
 71
     0
 42
2.5
  3
txt
  4

  0
ENDTAB
  0
TABLE
  2
VIEW
  5
6
330
0
100
AcDbSymbolTable
 70
     0
  0
ENDTAB
  0
TABLE
  2
UCS
  5
7
330
0
100
AcDbSymbolTable
 70
     0
  0
ENDTAB
  0
TABLE
  2
APPID
  5
9
330
0
100
AcDbSymbolTable
 70
     2
  0
APPID
  5
12
330
9
100
AcDbSymbolTableRecord
100
AcDbRegAppTableRecord
  2
ACAD
 70
     0
  0
ENDTAB
  0
TABLE
  2
DIMSTYLE
  5
A
330
0
100
AcDbSymbolTable
 70
     1
  0
DIMSTYLE
105
27
330
A
100
AcDbSymbolTableRecord
100
AcDbDimStyleTableRecord
  2
ISO-25
 70
     0
  3

  4

  5

  6

  7

 40
1.0
 41
2.5
 42
0.625
 43
3.75
 44
1.25
 45
0.0
 46
0.0
 47
0.0
 48
0.0
140
2.5
141
2.5
142
0.0
143
0.03937007874016
144
1.0
145
0.0
146
1.0
147
0.625
 71
     0
 72
     0
 73
     0
 74
     0
 75
     0
 76
     0
 77
     1
 78
     8
170
     0
171
     3
172
     1
173
     0
174
     0
175
     0
176
     0
177
     0
178
     0
270
     2
271
     2
272
     2
273
     2
274
     3
340
11
275
     0
280
     0
281
     0
282
     0
283
     0
284
     8
285
     0
286
     0
287
     3
288
     0
  0
ENDTAB
  0
TABLE
  2
BLOCK_RECORD
  5
1
330
0
100
AcDbSymbolTable
 70
     1
  0
BLOCK_RECORD
  5
1F
330
1
100
AcDbSymbolTableRecord
100
AcDbBlockTableRecord
  2
*MODEL_SPACE
  0
BLOCK_RECORD
  5
1B
330
1
100
AcDbSymbolTableRecord
100
AcDbBlockTableRecord
  2
*PAPER_SPACE
  0
ENDTAB
  0
ENDSEC
  0
SECTION
  2
BLOCKS
  0
BLOCK
  5
20
330
1F
100
AcDbEntity
  8
0
100
AcDbBlockBegin
  2
*MODEL_SPACE
 70
     0
 10
0.0
 20
0.0
 30
0.0
  3
*MODEL_SPACE
  1

  0
ENDBLK
  5
21
330
1F
100
AcDbEntity
  8
0
100
AcDbBlockEnd
  0
BLOCK
  5
1C
330
1B
100
AcDbEntity
 67
     1
  8
0
100
AcDbBlockBegin
  2
*PAPER_SPACE
  1

  0
ENDBLK
  5
1D
330
1B
100
AcDbEntity
 67
     1
  8
0
100
AcDbBlockEnd
  0
ENDSEC
  0
SECTION
  2
ENTITIES
  0
SPLINE
  5
100
100
AcDbEntity
  8
Image
 62
7
100
AcDbSpline
 70
8
 71
3
 72
8
 73
4
 74
0
 40
0
 40
0
 40
0
 40
0
 40
1
 40
1
 40
1
 40
1
 10
70.080005
 20
49.304416
 30
0.0
 10
68.892004
 20
49.743160
 30
0.0
 10
67.855147
 20
50.165611
 30
0.0
 10
67.775875
 20
50.243195
 30
0.0
  0
SPLINE
  5
101
100
AcDbEntity
  8
Image
 62
7
100
AcDbSpline
 70
8
 71
3
 72
8
 73
4
 74
0
 40
0
 40
0
 40
0
 40
0
 40
1
 40
1
 40
1
 40
1
 10
67.775875
 20
50.243195
 30
0.0
 10
67.646152
 20
50.370158
 30
0.0
 10
76.818938
 20
74.915478
 30
0.0
 10
77.122143
 20
75.252736
 30
0.0
  0
SPLINE
  5
102
100
AcDbEntity
  8
Image
 62
7
100
AcDbSpline
 70
8
 71
3
 72
8
 73
4
 74
0
 40
0
 40
0
 40
0
 40
0
 40
1
 40
1
 40
1
 40
1
 10
77.122143
 20
75.252736
 30
0.0
 10
77.187773
 20
75.325746
 30
0.0
 10
78.276146
 20
75.026250
 30
0.0
 10
79.540741
 20
74.587200
 30
0.0
  0
SPLINE
  5
103
100
AcDbEntity
  8
Image
 62
7
100
AcDbSpline
 70
8
 71
3
 72
8
 73
4
 74
0
 40
0
 40
0
 40
0
 40
0
 40
1
 40
1
 40
1
 40
1
 10
79.540741
 20
74.587200
 30
0.0
 10
82.642223
 20
73.510408
 30
0.0
 10
82.439578
 20
73.609568
 30
0.0
 10
82.339002
 20
73.217934
 30
0.0
  0
SPLINE
  5
104
100
AcDbEntity
  8
Image
 62
7
100
AcDbSpline
 70
8
 71
3
 72
8
 73
4
 74
0
 40
0
 40
0
 40
0
 40
0
 40
1
 40
1
 40
1
 40
1
 10
82.339002
 20
73.217934
 30
0.0
 10
82.291271
 20
73.032070
 30
0.0
 10
80.180346
 20
67.390000
 30
0.0
 10
77.648059
 20
60.680000
 30
0.0
  0
SPLINE
  5
105
100
AcDbEntity
  8
Image
 62
7
100
AcDbSpline
 70
8
 71
3
 72
8
 73
4
 74
0
 40
0
 40
0
 40
0
 40
0
 40
1
 40
1
 40
1
 40
1
 10
77.648059
 20
60.680000
 30
0.0
 10
73.209712
 20
48.919357
 30
0.0
 10
73.029427
 20
48.480480
 30
0.0
 10
72.641954
 20
48.493350
 30
0.0
  0
SPLINE
  5
106
100
AcDbEntity
  8
Image
 62
7
100
AcDbSpline
 70
8
 71
3
 72
8
 73
4
 74
0
 40
0
 40
0
 40
0
 40
0
 40
1
 40
1
 40
1
 40
1
 10
72.641954
 20
48.493350
 30
0.0
 10
72.420881
 20
48.500693
 30
0.0
 10
71.268005
 20
48.865672
 30
0.0
 10
70.080005
 20
49.304416
 30
0.0
  0
SPLINE
  5
107
100
AcDbEntity
  8
Image
 62
7
100
AcDbSpline
 70
8
 71
3
 72
8
 73
4
 74
0
 40
0
 40
0
 40
0
 40
0
 40
1
 40
1
 40
1
 40
1
 10
77.359805
 20
61.120000
 30
0.0
 10
79.801228
 20
67.588000
 30
0.0
 10
81.808036
 20
72.977245
 30
0.0
 10
81.819380
 20
73.096101
 30
0.0
  0
SPLINE
  5
108
100
AcDbEntity
  8
Image
 62
7
100
AcDbSpline
 70
8
 71
3
 72
8
 73
4
 74
0
 40
0
 40
0
 40
0
 40
0
 40
1
 40
1
 40
1
 40
1
 10
81.819380
 20
73.096101
 30
0.0
 10
81.832680
 20
73.235414
 30
0.0
 10
81.055037
 20
73.589950
 30
0.0
 10
79.630903
 20
74.093856
 30
0.0
  0
LWPOLYLINE
  5
109
100
AcDbEntity
  8
Image
 62
7
100
AcDbPolyline
 90
1
 70
1
 10
70.080005
 20
49.304416
 30
0.0
  0
SPLINE
  5
10a
100
AcDbEntity
  8
Image
 62
7
100
AcDbSpline
 70
8
 71
3
 72
8
 73
4
 74
0
 40
0
 40
0
 40
0
 40
0
 40
1
 40
1
 40
1
 40
1
 10
77.206431
 20
74.357755
 30
0.0
 10
76.624096
 20
72.957813
 30
0.0
 10
68.153664
 20
50.513494
 30
0.0
 10
68.193724
 20
50.476565
 30
0.0
  0
SPLINE
  5
10b
100
AcDbEntity
  8
Image
 62
7
100
AcDbSpline
 70
8
 71
3
 72
8
 73
4
 74
0
 40
0
 40
0
 40
0
 40
0
 40
1
 40
1
 40
1
 40
1
 10
68.193724
 20
50.476565
 30
0.0
 10
68.219174
 20
50.453105
 30
0.0
 10
69.248004
 20
50.072864
 30
0.0
 10
70.480005
 20
49.631594
 30
0.0
  0
SPLINE
  5
10c
100
AcDbEntity
  8
Image
 62
7
100
AcDbSpline
 70
8
 71
3
 72
8
 73
4
 74
0
 40
0
 40
0
 40
0
 40
0
 40
1
 40
1
 40
1
 40
1
 10
70.480005
 20
49.631594
 30
0.0
 10
72.448113
 20
48.926667
 30
0.0
 10
72.732195
 20
48.861493
 30
0.0
 10
72.820430
 20
49.094642
 30
0.0
  0
SPLINE
  5
10d
100
AcDbEntity
  8
Image
 62
7
100
AcDbSpline
 70
8
 71
3
 72
8
 73
4
 74
0
 40
0
 40
0
 40
0
 40
0
 40
1
 40
1
 40
1
 40
1
 10
72.820430
 20
49.094642
 30
0.0
 10
72.875664
 20
49.240589
 30
0.0
 10
74.918382
 20
54.652000
 30
0.0
 10
77.359805
 20
61.120000
 30
0.0
  0
LWPOLYLINE
  5
10e
100
AcDbEntity
  8
Image
 62
7
100
AcDbPolyline
 90
3
 70
0
 10
79.630903
 20
74.093856
 30
0.0
 10
77.421800
 20
74.875510
 30
0.0
 10
77.206431
 20
74.357755
 30
0.0
  0
SPLINE
  5
10f
100
AcDbEntity
  8
Image
 62
7
100
AcDbSpline
 70
8
 71
3
 72
8
 73
4
 74
0
 40
0
 40
0
 40
0
 40
0
 40
1
 40
1
 40
1
 40
1
 10
15.760001
 20
50.489981
 30
0.0
 10
12.477679
 20
51.208534
 30
0.0
 10
10.091794
 20
53.296267
 30
0.0
 10
9.365266
 20
56.085594
 30
0.0
  0
SPLINE
  5
110
100
AcDbEntity
  8
Image
 62
7
100
AcDbSpline
 70
8
 71
3
 72
8
 73
4
 74
0
 40
0
 40
0
 40
0
 40
0
 40
1
 40
1
 40
1
 40
1
 10
9.365266
 20
56.085594
 30
0.0
 10
9.008964
 20
57.453531
 30
0.0
 10
9.008964
 20
66.546469
 30
0.0
 10
9.365266
 20
67.914406
 30
0.0
  0
SPLINE
  5
111
100
AcDbEntity
  8
Image
 62
7
100
AcDbSpline
 70
8
 71
3
 72
8
 73
4
 74
0
 40
0
 40
0
 40
0
 40
0
 40
1
 40
1
 40
1
 40
1
 10
9.365266
 20
67.914406
 30
0.0
 10
10.097930
 20
70.727294
 30
0.0
 10
12.520474
 20
72.829240
 30
0.0
 10
15.845630
 20
73.537163
 30
0.0
  0
SPLINE
  5
112
100
AcDbEntity
  8
Image
 62
7
100
AcDbSpline
 70
8
 71
3
 72
8
 73
4
 74
0
 40
0
 40
0
 40
0
 40
0
 40
1
 40
1
 40
1
 40
1
 10
15.845630
 20
73.537163
 30
0.0
 10
16.699270
 20
73.718902
 30
0.0
 10
17.519273
 20
73.768010
 30
0.0
 10
18.720001
 20
73.709299
 30
0.0
  0
SPLINE
  5
113
100
AcDbEntity
  8
Image
 62
7
100
AcDbSpline
 70
8
 71
3
 72
8
 73
4
 74
0
 40
0
 40
0
 40
0
 40
0
 40
1
 40
1
 40
1
 40
1
 10
18.720001
 20
73.709299
 30
0.0
 10
21.400408
 20
73.578237
 30
0.0
 10
23.017177
 20
72.851517
 30
0.0
 10
24.719842
 20
71.012438
 30
0.0
  0
SPLINE
  5
114
100
AcDbEntity
  8
Image
 62
7
100
AcDbSpline
 70
8
 71
3
 72
8
 73
4
 74
0
 40
0
 40
0
 40
0
 40
0
 40
1
 40
1
 40
1
 40
1
 10
24.719842
 20
71.012438
 30
0.0
 10
25.578608
 20
70.084869
 30
0.0
 10
26.487520
 20
68.591051
 30
0.0
 10
26.339178
 20
68.351027
 30
0.0
  0
SPLINE
  5
115
100
AcDbEntity
  8
Image
 62
7
100
AcDbSpline
 70
8
 71
3
 72
8
 73
4
 74
0
 40
0
 40
0
 40
0
 40
0
 40
1
 40
1
 40
1
 40
1
 10
26.339178
 20
68.351027
 30
0.0
 10
26.299418
 20
68.286687
 30
0.0
 10
25.219163
 20
67.809358
 30
0.0
 10
23.938619
 20
67.290288
 30
0.0
  0
LWPOLYLINE
  5
116
100
AcDbEntity
  8
Image
 62
7
100
AcDbPolyline
 90
1
 70
1
 10
77.359805
 20
61.120000
 30
0.0
  0
SPLINE
  5
117
100
AcDbEntity
  8
Image
 62
7
100
AcDbSpline
 70
8
 71
3
 72
8
 73
4
 74
0
 40
0
 40
0
 40
0
 40
0
 40
1
 40
1
 40
1
 40
1
 10
20.826310
 20
67.079907
 30
0.0
 10
20.384318
 20
67.493339
 30
0.0
 10
19.771288
 20
67.888528
 30
0.0
 10
19.421134
 20
67.985752
 30
0.0
  0
SPLINE
  5
118
100
AcDbEntity
  8
Image
 62
7
100
AcDbSpline
 70
8
 71
3
 72
8
 73
4
 74
0
 40
0
 40
0
 40
0
 40
0
 40
1
 40
1
 40
1
 40
1
 10
19.421134
 20
67.985752
 30
0.0
 10
17.941785
 20
68.396507
 30
0.0
 10
16.457619
 20
68.030042
 30
0.0
 10
15.633382
 20
67.050491
 30
0.0
  0
LWPOLYLINE
  5
119
100
AcDbEntity
  8
Image
 62
7
100
AcDbPolyline
 90
3
 70
0
 10
23.938619
 20
67.290288
 30
0.0
 10
21.610355
 20
66.346526
 30
0.0
 10
20.826310
 20
67.079907
 30
0.0
  0
SPLINE
  5
11a
100
AcDbEntity
  8
Image
 62
7
100
AcDbSpline
 70
8
 71
3
 72
8
 73
4
 74
0
 40
0
 40
0
 40
0
 40
0
 40
1
 40
1
 40
1
 40
1
 10
15.200001
 20
62.009301
 30
0.0
 10
15.200001
 20
57.657338
 30
0.0
 10
15.212901
 20
57.466758
 30
0.0
 10
15.535125
 20
57.057114
 30
0.0
  0
SPLINE
  5
11b
100
AcDbEntity
  8
Image
 62
7
100
AcDbSpline
 70
8
 71
3
 72
8
 73
4
 74
0
 40
0
 40
0
 40
0
 40
0
 40
1
 40
1
 40
1
 40
1
 10
15.535125
 20
57.057114
 30
0.0
 10
16.329654
 20
56.047034
 30
0.0
 10
18.327110
 20
55.646698
 30
0.0
 10
19.587699
 20
56.244886
 30
0.0
  0
SPLINE
  5
11c
100
AcDbEntity
  8
Image
 62
7
100
AcDbSpline
 70
8
 71
3
 72
8
 73
4
 74
0
 40
0
 40
0
 40
0
 40
0
 40
1
 40
1
 40
1
 40
1
 10
19.587699
 20
56.244886
 30
0.0
 10
20.155565
 20
56.514357
 30
0.0
 10
21.120001
 20
57.471478
 30
0.0
 10
21.120001
 20
57.765568
 30
0.0
  0
SPLINE
  5
11d
100
AcDbEntity
  8
Image
 62
7
100
AcDbSpline
 70
8
 71
3
 72
8
 73
4
 74
0
 40
0
 40
0
 40
0
 40
0
 40
1
 40
1
 40
1
 40
1
 10
21.120001
 20
57.765568
 30
0.0
 10
21.120001
 20
58.047725
 30
0.0
 10
21.500856
 20
57.916774
 30
0.0
 10
23.920002
 20
56.802837
 30
0.0
  0
SPLINE
  5
11e
100
AcDbEntity
  8
Image
 62
7
100
AcDbSpline
 70
8
 71
3
 72
8
 73
4
 74
0
 40
0
 40
0
 40
0
 40
0
 40
1
 40
1
 40
1
 40
1
 10
23.920002
 20
56.802837
 30
0.0
 10
25.422504
 20
56.110984
 30
0.0
 10
26.340562
 20
55.598346
 30
0.0
 10
26.374981
 20
55.431992
 30
0.0
  0
SPLINE
  5
11f
100
AcDbEntity
  8
Image
 62
7
100
AcDbSpline
 70
8
 71
3
 72
8
 73
4
 74
0
 40
0
 40
0
 40
0
 40
0
 40
1
 40
1
 40
1
 40
1
 10
26.374981
 20
55.431992
 30
0.0
 10
26.521323
 20
54.724712
 30
0.0
 10
24.163786
 20
52.171621
 30
0.0
 10
22.661277
 20
51.410242
 30
0.0
  0
SPLINE
  5
120
100
AcDbEntity
  8
Image
 62
7
100
AcDbSpline
 70
8
 71
3
 72
8
 73
4
 74
0
 40
0
 40
0
 40
0
 40
0
 40
1
 40
1
 40
1
 40
1
 10
22.661277
 20
51.410242
 30
0.0
 10
20.519561
 20
50.324952
 30
0.0
 10
18.030177
 20
49.993002
 30
0.0
 10
15.760001
 20
50.489981
 30
0.0
  0
LWPOLYLINE
  5
121
100
AcDbEntity
  8
Image
 62
7
100
AcDbPolyline
 90
3
 70
0
 10
15.633382
 20
67.050491
 30
0.0
 10
15.200001
 20
66.535448
 30
0.0
 10
15.200001
 20
62.009301
 30
0.0
  0
SPLINE
  5
122
100
AcDbEntity
  8
Image
 62
7
100
AcDbSpline
 70
8
 71
3
 72
8
 73
4
 74
0
 40
0
 40
0
 40
0
 40
0
 40
1
 40
1
 40
1
 40
1
 10
20.355949
 20
50.969117
 30
0.0
 10
21.663150
 20
51.286210
 30
0.0
 10
23.014566
 20
52.014091
 30
0.0
 10
24.045568
 20
52.956370
 30
0.0
  0
SPLINE
  5
123
100
AcDbEntity
  8
Image
 62
7
100
AcDbSpline
 70
8
 71
3
 72
8
 73
4
 74
0
 40
0
 40
0
 40
0
 40
0
 40
1
 40
1
 40
1
 40
1
 10
24.045568
 20
52.956370
 30
0.0
 10
25.035610
 20
53.861211
 30
0.0
 10
25.993133
 20
55.190869
 30
0.0
 10
25.796379
 20
55.387622
 30
0.0
  0
SPLINE
  5
124
100
AcDbEntity
  8
Image
 62
7
100
AcDbSpline
 70
8
 71
3
 72
8
 73
4
 74
0
 40
0
 40
0
 40
0
 40
0
 40
1
 40
1
 40
1
 40
1
 10
25.796379
 20
55.387622
 30
0.0
 10
25.726379
 20
55.457622
 30
0.0
 10
24.746141
 20
55.937184
 30
0.0
 10
23.618061
 20
56.453326
 30
0.0
  0
LWPOLYLINE
  5
125
100
AcDbEntity
  8
Image
 62
7
100
AcDbPolyline
 90
1
 70
1
 10
15.760001
 20
50.489981
 30
0.0
  0
SPLINE
  5
126
100
AcDbEntity
  8
Image
 62
7
100
AcDbSpline
 70
8
 71
3
 72
8
 73
4
 74
0
 40
0
 40
0
 40
0
 40
0
 40
1
 40
1
 40
1
 40
1
 10
20.823504
 20
56.651454
 30
0.0
 10
20.034593
 20
55.865931
 30
0.0
 10
19.212401
 20
55.519355
 30
0.0
 10
18.141438
 20
55.520893
 30
0.0
  0
SPLINE
  5
127
100
AcDbEntity
  8
Image
 62
7
100
AcDbSpline
 70
8
 71
3
 72
8
 73
4
 74
0
 40
0
 40
0
 40
0
 40
0
 40
1
 40
1
 40
1
 40
1
 10
18.141438
 20
55.520893
 30
0.0
 10
16.695193
 20
55.522993
 30
0.0
 10
15.353243
 20
56.234162
 30
0.0
 10
14.943024
 20
57.215952
 30
0.0
  0
SPLINE
  5
128
100
AcDbEntity
  8
Image
 62
7
100
AcDbSpline
 70
8
 71
3
 72
8
 73
4
 74
0
 40
0
 40
0
 40
0
 40
0
 40
1
 40
1
 40
1
 40
1
 10
14.943024
 20
57.215952
 30
0.0
 10
14.771211
 20
57.627158
 30
0.0
 10
14.720001
 20
58.731254
 30
0.0
 10
14.720001
 20
62.024346
 30
0.0
  0
SPLINE
  5
129
100
AcDbEntity
  8
Image
 62
7
100
AcDbSpline
 70
8
 71
3
 72
8
 73
4
 74
0
 40
0
 40
0
 40
0
 40
0
 40
1
 40
1
 40
1
 40
1
 10
14.720001
 20
62.024346
 30
0.0
 10
14.720001
 20
65.987307
 30
0.0
 10
14.743501
 20
66.346397
 30
0.0
 10
15.042326
 20
66.949485
 30
0.0
  0
SPLINE
  5
12a
100
AcDbEntity
  8
Image
 62
7
100
AcDbSpline
 70
8
 71
3
 72
8
 73
4
 74
0
 40
0
 40
0
 40
0
 40
0
 40
1
 40
1
 40
1
 40
1
 10
15.042326
 20
66.949485
 30
0.0
 10
15.454207
 20
67.780739
 30
0.0
 10
15.909531
 20
68.102454
 30
0.0
 10
17.109062
 20
68.409760
 30
0.0
  0
SPLINE
  5
12b
100
AcDbEntity
  8
Image
 62
7
100
AcDbSpline
 70
8
 71
3
 72
8
 73
4
 74
0
 40
0
 40
0
 40
0
 40
0
 40
1
 40
1
 40
1
 40
1
 10
17.109062
 20
68.409760
 30
0.0
 10
18.666660
 20
68.808798
 30
0.0
 10
20.260062
 20
68.400360
 30
0.0
 10
21.241134
 20
67.350634
 30
0.0
  0
LWPOLYLINE
  5
12c
100
AcDbEntity
  8
Image
 62
7
100
AcDbPolyline
 90
3
 70
0
 10
23.618061
 20
56.453326
 30
0.0
 10
21.567006
 20
57.391766
 30
0.0
 10
20.823504
 20
56.651454
 30
0.0
  0
SPLINE
  5
12d
100
AcDbEntity
  8
Image
 62
7
100
AcDbSpline
 70
8
 71
3
 72
8
 73
4
 74
0
 40
0
 40
0
 40
0
 40
0
 40
1
 40
1
 40
1
 40
1
 10
25.555693
 20
69.185882
 30
0.0
 10
24.990368
 20
70.225518
 30
0.0
 10
23.089000
 20
72.025034
 30
0.0
 10
22.006782
 20
72.544685
 30
0.0
  0
SPLINE
  5
12e
100
AcDbEntity
  8
Image
 62
7
100
AcDbSpline
 70
8
 71
3
 72
8
 73
4
 74
0
 40
0
 40
0
 40
0
 40
0
 40
1
 40
1
 40
1
 40
1
 10
22.006782
 20
72.544685
 30
0.0
 10
21.473203
 20
72.800894
 30
0.0
 10
20.423078
 20
73.108704
 30
0.0
 10
19.621414
 20
73.243875
 30
0.0
  0
SPLINE
  5
12f
100
AcDbEntity
  8
Image
 62
7
100
AcDbSpline
 70
8
 71
3
 72
8
 73
4
 74
0
 40
0
 40
0
 40
0
 40
0
 40
1
 40
1
 40
1
 40
1
 10
19.621414
 20
73.243875
 30
0.0
 10
18.327104
 20
73.462112
 30
0.0
 10
18.037505
 20
73.460443
 30
0.0
 10
16.612478
 20
73.226525
 30
0.0
  0
SPLINE
  5
130
100
AcDbEntity
  8
Image
 62
7
100
AcDbSpline
 70
8
 71
3
 72
8
 73
4
 74
0
 40
0
 40
0
 40
0
 40
0
 40
1
 40
1
 40
1
 40
1
 10
16.612478
 20
73.226525
 30
0.0
 10
12.777642
 20
72.597042
 30
0.0
 10
10.115601
 20
70.279287
 30
0.0
 10
9.598871
 20
67.119999
 30
0.0
  0
SPLINE
  5
131
100
AcDbEntity
  8
Image
 62
7
100
AcDbSpline
 70
8
 71
3
 72
8
 73
4
 74
0
 40
0
 40
0
 40
0
 40
0
 40
1
 40
1
 40
1
 40
1
 10
9.598871
 20
67.119999
 30
0.0
 10
9.512512
 20
66.591999
 30
0.0
 10
9.442687
 20
64.251999
 30
0.0
 10
9.443706
 20
61.919999
 30
0.0
  0
SPLINE
  5
132
100
AcDbEntity
  8
Image
 62
7
100
AcDbSpline
 70
8
 71
3
 72
8
 73
4
 74
0
 40
0
 40
0
 40
0
 40
0
 40
1
 40
1
 40
1
 40
1
 10
9.443706
 20
61.919999
 30
0.0
 10
9.446166
 20
56.292676
 30
0.0
 10
9.681816
 20
55.192140
 30
0.0
 10
11.251367
 20
53.477927
 30
0.0
  0
SPLINE
  5
133
100
AcDbEntity
  8
Image
 62
7
100
AcDbSpline
 70
8
 71
3
 72
8
 73
4
 74
0
 40
0
 40
0
 40
0
 40
0
 40
1
 40
1
 40
1
 40
1
 10
11.251367
 20
53.477927
 30
0.0
 10
13.392383
 20
51.139580
 30
0.0
 10
16.981536
 20
50.150572
 30
0.0
 10
20.355949
 20
50.969117
 30
0.0
  0
LWPOLYLINE
  5
134
100
AcDbEntity
  8
Image
 62
7
100
AcDbPolyline
 90
5
 70
0
 10
21.241134
 20
67.350634
 30
0.0
 10
21.698795
 20
66.860938
 30
0.0
 10
23.805090
 20
67.696350
 30
0.0
 10
25.911384
 20
68.531763
 30
0.0
 10
25.555693
 20
69.185882
 30
0.0
  0
SPLINE
  5
135
100
AcDbEntity
  8
Image
 62
7
100
AcDbSpline
 70
8
 71
3
 72
8
 73
4
 74
0
 40
0
 40
0
 40
0
 40
0
 40
1
 40
1
 40
1
 40
1
 10
90.320006
 20
50.490861
 30
0.0
 10
87.904610
 20
51.017731
 30
0.0
 10
85.549958
 20
52.609506
 30
0.0
 10
84.597620
 20
54.359262
 30
0.0
  0
SPLINE
  5
136
100
AcDbEntity
  8
Image
 62
7
100
AcDbSpline
 70
8
 71
3
 72
8
 73
4
 74
0
 40
0
 40
0
 40
0
 40
0
 40
1
 40
1
 40
1
 40
1
 10
84.597620
 20
54.359262
 30
0.0
 10
83.763863
 20
55.891149
 30
0.0
 10
83.680005
 20
56.589408
 30
0.0
 10
83.680005
 20
62.000000
 30
0.0
  0
SPLINE
  5
137
100
AcDbEntity
  8
Image
 62
7
100
AcDbSpline
 70
8
 71
3
 72
8
 73
4
 74
0
 40
0
 40
0
 40
0
 40
0
 40
1
 40
1
 40
1
 40
1
 10
83.680005
 20
62.000000
 30
0.0
 10
83.680005
 20
67.402040
 30
0.0
 10
83.764525
 20
68.110072
 30
0.0
 10
84.590586
 20
69.627813
 30
0.0
  0
SPLINE
  5
138
100
AcDbEntity
  8
Image
 62
7
100
AcDbSpline
 70
8
 71
3
 72
8
 73
4
 74
0
 40
0
 40
0
 40
0
 40
0
 40
1
 40
1
 40
1
 40
1
 10
84.590586
 20
69.627813
 30
0.0
 10
85.208673
 20
70.763443
 30
0.0
 10
86.668850
 20
72.075496
 30
0.0
 10
88.038446
 20
72.725914
 30
0.0
  0
SPLINE
  5
139
100
AcDbEntity
  8
Image
 62
7
100
AcDbSpline
 70
8
 71
3
 72
8
 73
4
 74
0
 40
0
 40
0
 40
0
 40
0
 40
1
 40
1
 40
1
 40
1
 10
88.038446
 20
72.725914
 30
0.0
 10
89.723849
 20
73.526307
 30
0.0
 10
91.232768
 20
73.809402
 30
0.0
 10
93.280006
 20
73.709299
 30
0.0
  0
SPLINE
  5
13a
100
AcDbEntity
  8
Image
 62
7
100
AcDbSpline
 70
8
 71
3
 72
8
 73
4
 74
0
 40
0
 40
0
 40
0
 40
0
 40
1
 40
1
 40
1
 40
1
 10
93.280006
 20
73.709299
 30
0.0
 10
95.939701
 20
73.579250
 30
0.0
 10
97.582866
 20
72.847698
 30
0.0
 10
99.235592
 20
71.057818
 30
0.0
  0
SPLINE
  5
13b
100
AcDbEntity
  8
Image
 62
7
100
AcDbSpline
 70
8
 71
3
 72
8
 73
4
 74
0
 40
0
 40
0
 40
0
 40
0
 40
1
 40
1
 40
1
 40
1
 10
99.235592
 20
71.057818
 30
0.0
 10
100.170160
 20
70.045698
 30
0.0
 10
101.071860
 20
68.524110
 30
0.0
 10
100.857750
 20
68.320494
 30
0.0
  0
SPLINE
  5
13c
100
AcDbEntity
  8
Image
 62
7
100
AcDbSpline
 70
8
 71
3
 72
8
 73
4
 74
0
 40
0
 40
0
 40
0
 40
0
 40
1
 40
1
 40
1
 40
1
 10
100.857750
 20
68.320494
 30
0.0
 10
100.781950
 20
68.248444
 30
0.0
 10
99.691294
 20
67.774533
 30
0.0
 10
98.433979
 20
67.267352
 30
0.0
  0
LWPOLYLINE
  5
13d
100
AcDbEntity
  8
Image
 62
7
100
AcDbPolyline
 90
1
 70
1
 10
20.355949
 20
50.969117
 30
0.0
  0
SPLINE
  5
13e
100
AcDbEntity
  8
Image
 62
7
100
AcDbSpline
 70
8
 71
3
 72
8
 73
4
 74
0
 40
0
 40
0
 40
0
 40
0
 40
1
 40
1
 40
1
 40
1
 10
95.473979
 20
67.005978
 30
0.0
 10
93.932966
 20
68.516808
 30
0.0
 10
91.444859
 20
68.537782
 30
0.0
 10
90.193387
 20
67.050488
 30
0.0
  0
LWPOLYLINE
  5
13f
100
AcDbEntity
  8
Image
 62
7
100
AcDbPolyline
 90
3
 70
0
 10
98.433979
 20
67.267352
 30
0.0
 10
96.147952
 20
66.345205
 30
0.0
 10
95.473979
 20
67.005978
 30
0.0
  0
SPLINE
  5
140
100
AcDbEntity
  8
Image
 62
7
100
AcDbSpline
 70
8
 71
3
 72
8
 73
4
 74
0
 40
0
 40
0
 40
0
 40
0
 40
1
 40
1
 40
1
 40
1
 10
89.760006
 20
62.009298
 30
0.0
 10
89.760006
 20
57.606331
 30
0.0
 10
89.769506
 20
57.471131
 30
0.0
 10
90.107430
 20
57.041474
 30
0.0
  0
SPLINE
  5
141
100
AcDbEntity
  8
Image
 62
7
100
AcDbSpline
 70
8
 71
3
 72
8
 73
4
 74
0
 40
0
 40
0
 40
0
 40
0
 40
1
 40
1
 40
1
 40
1
 10
90.107430
 20
57.041474
 30
0.0
 10
90.893508
 20
56.042138
 30
0.0
 10
92.974049
 20
55.674154
 30
0.0
 10
94.226254
 20
56.312981
 30
0.0
  0
SPLINE
  5
142
100
AcDbEntity
  8
Image
 62
7
100
AcDbSpline
 70
8
 71
3
 72
8
 73
4
 74
0
 40
0
 40
0
 40
0
 40
0
 40
1
 40
1
 40
1
 40
1
 10
94.226254
 20
56.312981
 30
0.0
 10
94.824750
 20
56.618311
 30
0.0
 10
95.680006
 20
57.476826
 30
0.0
 10
95.680006
 20
57.772274
 30
0.0
  0
SPLINE
  5
143
100
AcDbEntity
  8
Image
 62
7
100
AcDbSpline
 70
8
 71
3
 72
8
 73
4
 74
0
 40
0
 40
0
 40
0
 40
0
 40
1
 40
1
 40
1
 40
1
 10
95.680006
 20
57.772274
 30
0.0
 10
95.680006
 20
58.053296
 30
0.0
 10
96.090267
 20
57.911333
 30
0.0
 10
98.480006
 20
56.803381
 30
0.0
  0
SPLINE
  5
144
100
AcDbEntity
  8
Image
 62
7
100
AcDbSpline
 70
8
 71
3
 72
8
 73
4
 74
0
 40
0
 40
0
 40
0
 40
0
 40
1
 40
1
 40
1
 40
1
 10
98.480006
 20
56.803381
 30
0.0
 10
99.954182
 20
56.119909
 30
0.0
 10
100.901220
 20
55.589523
 30
0.0
 10
100.934990
 20
55.428469
 30
0.0
  0
SPLINE
  5
145
100
AcDbEntity
  8
Image
 62
7
100
AcDbSpline
 70
8
 71
3
 72
8
 73
4
 74
0
 40
0
 40
0
 40
0
 40
0
 40
1
 40
1
 40
1
 40
1
 10
100.934990
 20
55.428469
 30
0.0
 10
101.072790
 20
54.771258
 30
0.0
 10
98.846373
 20
52.295685
 30
0.0
 10
97.380827
 20
51.476576
 30
0.0
  0
SPLINE
  5
146
100
AcDbEntity
  8
Image
 62
7
100
AcDbSpline
 70
8
 71
3
 72
8
 73
4
 74
0
 40
0
 40
0
 40
0
 40
0
 40
1
 40
1
 40
1
 40
1
 10
97.380827
 20
51.476576
 30
0.0
 10
95.398888
 20
50.368850
 30
0.0
 10
92.643073
 20
49.984127
 30
0.0
 10
90.320006
 20
50.490858
 30
0.0
  0
LWPOLYLINE
  5
147
100
AcDbEntity
  8
Image
 62
7
100
AcDbPolyline
 90
3
 70
0
 10
90.193387
 20
67.050488
 30
0.0
 10
89.760006
 20
66.535445
 30
0.0
 10
89.760006
 20
62.009298
 30
0.0
  0
SPLINE
  5
148
100
AcDbEntity
  8
Image
 62
7
100
AcDbSpline
 70
8
 71
3
 72
8
 73
4
 74
0
 40
0
 40
0
 40
0
 40
0
 40
1
 40
1
 40
1
 40
1
 10
94.915953
 20
50.969117
 30
0.0
 10
96.223155
 20
51.286210
 30
0.0
 10
97.574571
 20
52.014091
 30
0.0
 10
98.605573
 20
52.956370
 30
0.0
  0
SPLINE
  5
149
100
AcDbEntity
  8
Image
 62
7
100
AcDbSpline
 70
8
 71
3
 72
8
 73
4
 74
0
 40
0
 40
0
 40
0
 40
0
 40
1
 40
1
 40
1
 40
1
 10
98.605573
 20
52.956370
 30
0.0
 10
99.595614
 20
53.861211
 30
0.0
 10
100.553140
 20
55.190869
 30
0.0
 10
100.356380
 20
55.387622
 30
0.0
  0
SPLINE
  5
14a
100
AcDbEntity
  8
Image
 62
7
100
AcDbSpline
 70
8
 71
3
 72
8
 73
4
 74
0
 40
0
 40
0
 40
0
 40
0
 40
1
 40
1
 40
1
 40
1
 10
100.356380
 20
55.387622
 30
0.0
 10
100.286380
 20
55.457622
 30
0.0
 10
99.306146
 20
55.937184
 30
0.0
 10
98.178066
 20
56.453326
 30
0.0
  0
LWPOLYLINE
  5
14b
100
AcDbEntity
  8
Image
 62
7
100
AcDbPolyline
 90
1
 70
1
 10
90.320006
 20
50.490858
 30
0.0
  0
SPLINE
  5
14c
100
AcDbEntity
  8
Image
 62
7
100
AcDbSpline
 70
8
 71
3
 72
8
 73
4
 74
0
 40
0
 40
0
 40
0
 40
0
 40
1
 40
1
 40
1
 40
1
 10
95.382969
 20
56.647725
 30
0.0
 10
94.159981
 20
55.424736
 30
0.0
 10
92.230040
 20
55.169926
 30
0.0
 10
90.693227
 20
56.028538
 30
0.0
  0
SPLINE
  5
14d
100
AcDbEntity
  8
Image
 62
7
100
AcDbSpline
 70
8
 71
3
 72
8
 73
4
 74
0
 40
0
 40
0
 40
0
 40
0
 40
1
 40
1
 40
1
 40
1
 10
90.693227
 20
56.028538
 30
0.0
 10
89.353559
 20
56.777005
 30
0.0
 10
89.366199
 20
56.724818
 30
0.0
 10
89.312579
 20
61.728848
 30
0.0
  0
SPLINE
  5
14e
100
AcDbEntity
  8
Image
 62
7
100
AcDbSpline
 70
8
 71
3
 72
8
 73
4
 74
0
 40
0
 40
0
 40
0
 40
0
 40
1
 40
1
 40
1
 40
1
 10
89.312579
 20
61.728848
 30
0.0
 10
89.272099
 20
65.506771
 30
0.0
 10
89.303179
 20
66.254594
 30
0.0
 10
89.525039
 20
66.835446
 30
0.0
  0
SPLINE
  5
14f
100
AcDbEntity
  8
Image
 62
7
100
AcDbSpline
 70
8
 71
3
 72
8
 73
4
 74
0
 40
0
 40
0
 40
0
 40
0
 40
1
 40
1
 40
1
 40
1
 10
89.525039
 20
66.835446
 30
0.0
 10
89.846233
 20
67.676480
 30
0.0
 10
90.401068
 20
68.084914
 30
0.0
 10
91.660779
 20
68.407637
 30
0.0
  0
SPLINE
  5
150
100
AcDbEntity
  8
Image
 62
7
100
AcDbSpline
 70
8
 71
3
 72
8
 73
4
 74
0
 40
0
 40
0
 40
0
 40
0
 40
1
 40
1
 40
1
 40
1
 10
91.660779
 20
68.407637
 30
0.0
 10
93.227046
 20
68.808894
 30
0.0
 10
94.817821
 20
68.402837
 30
0.0
 10
95.801139
 20
67.350634
 30
0.0
  0
LWPOLYLINE
  5
151
100
AcDbEntity
  8
Image
 62
7
100
AcDbPolyline
 90
3
 70
0
 10
98.178066
 20
56.453326
 30
0.0
 10
96.127011
 20
57.391766
 30
0.0
 10
95.382969
 20
56.647725
 30
0.0
  0
SPLINE
  5
152
100
AcDbEntity
  8
Image
 62
7
100
AcDbSpline
 70
8
 71
3
 72
8
 73
4
 74
0
 40
0
 40
0
 40
0
 40
0
 40
1
 40
1
 40
1
 40
1
 10
100.115700
 20
69.185882
 30
0.0
 10
99.920067
 20
69.545646
 30
0.0
 10
99.256006
 20
70.349726
 30
0.0
 10
98.640006
 20
70.972725
 30
0.0
  0
SPLINE
  5
153
100
AcDbEntity
  8
Image
 62
7
100
AcDbSpline
 70
8
 71
3
 72
8
 73
4
 74
0
 40
0
 40
0
 40
0
 40
0
 40
1
 40
1
 40
1
 40
1
 10
98.640006
 20
70.972725
 30
0.0
 10
97.284869
 20
72.343259
 30
0.0
 10
96.176939
 20
72.907403
 30
0.0
 10
94.178806
 20
73.244315
 30
0.0
  0
SPLINE
  5
154
100
AcDbEntity
  8
Image
 62
7
100
AcDbSpline
 70
8
 71
3
 72
8
 73
4
 74
0
 40
0
 40
0
 40
0
 40
0
 40
1
 40
1
 40
1
 40
1
 10
94.178806
 20
73.244315
 30
0.0
 10
92.887537
 20
73.462040
 30
0.0
 10
92.596760
 20
73.460320
 30
0.0
 10
91.172483
 20
73.226525
 30
0.0
  0
SPLINE
  5
155
100
AcDbEntity
  8
Image
 62
7
100
AcDbSpline
 70
8
 71
3
 72
8
 73
4
 74
0
 40
0
 40
0
 40
0
 40
0
 40
1
 40
1
 40
1
 40
1
 10
91.172483
 20
73.226525
 30
0.0
 10
87.337647
 20
72.597042
 30
0.0
 10
84.675607
 20
70.279287
 30
0.0
 10
84.158876
 20
67.119999
 30
0.0
  0
SPLINE
  5
156
100
AcDbEntity
  8
Image
 62
7
100
AcDbSpline
 70
8
 71
3
 72
8
 73
4
 74
0
 40
0
 40
0
 40
0
 40
0
 40
1
 40
1
 40
1
 40
1
 10
84.158876
 20
67.119999
 30
0.0
 10
83.906674
 20
65.578042
 30
0.0
 10
83.962660
 20
57.882461
 30
0.0
 10
84.235446
 20
56.595137
 30
0.0
  0
SPLINE
  5
157
100
AcDbEntity
  8
Image
 62
7
100
AcDbSpline
 70
8
 71
3
 72
8
 73
4
 74
0
 40
0
 40
0
 40
0
 40
0
 40
1
 40
1
 40
1
 40
1
 10
84.235446
 20
56.595137
 30
0.0
 10
84.544998
 20
55.134297
 30
0.0
 10
85.156835
 20
54.068503
 30
0.0
 10
86.286073
 20
53.023028
 30
0.0
  0
SPLINE
  5
158
100
AcDbEntity
  8
Image
 62
7
100
AcDbSpline
 70
8
 71
3
 72
8
 73
4
 74
0
 40
0
 40
0
 40
0
 40
0
 40
1
 40
1
 40
1
 40
1
 10
86.286073
 20
53.023028
 30
0.0
 10
88.510470
 20
50.963629
 30
0.0
 10
91.732275
 20
50.196839
 30
0.0
 10
94.915955
 20
50.969116
 30
0.0
  0
LWPOLYLINE
  5
159
100
AcDbEntity
  8
Image
 62
7
100
AcDbPolyline
 90
5
 70
0
 10
95.801139
 20
67.350634
 30
0.0
 10
96.258800
 20
66.860938
 30
0.0
 10
98.365094
 20
67.696350
 30
0.0
 10
100.471390
 20
68.531763
 30
0.0
 10
100.115700
 20
69.185882
 30
0.0
  0
SPLINE
  5
15a
100
AcDbEntity
  8
Image
 62
7
100
AcDbSpline
 70
8
 71
3
 72
8
 73
4
 74
0
 40
0
 40
0
 40
0
 40
0
 40
1
 40
1
 40
1
 40
1
 10
26.080002
 20
50.730634
 30
0.0
 10
26.080002
 20
50.828124
 30
0.0
 10
27.855787
 20
56.013618
 30
0.0
 10
30.026192
 20
62.253947
 30
0.0
  0
LWPOLYLINE
  5
15b
100
AcDbEntity
  8
Image
 62
7
100
AcDbPolyline
 90
1
 70
1
 10
94.915955
 20
50.969116
 30
0.0
  0
SPLINE
  5
15c
100
AcDbEntity
  8
Image
 62
7
100
AcDbSpline
 70
8
 71
3
 72
8
 73
4
 74
0
 40
0
 40
0
 40
0
 40
0
 40
1
 40
1
 40
1
 40
1
 10
41.249713
 20
68.600000
 30
0.0
 10
42.227692
 20
65.850000
 30
0.0
 10
44.038592
 20
60.761688
 30
0.0
 10
45.273931
 20
57.292642
 30
0.0
  0
SPLINE
  5
15d
100
AcDbEntity
  8
Image
 62
7
100
AcDbSpline
 70
8
 71
3
 72
8
 73
4
 74
0
 40
0
 40
0
 40
0
 40
0
 40
1
 40
1
 40
1
 40
1
 10
45.273931
 20
57.292642
 30
0.0
 10
46.509270
 20
53.823594
 30
0.0
 10
47.520003
 20
50.889594
 30
0.0
 10
47.520003
 20
50.772642
 30
0.0
  0
SPLINE
  5
15e
100
AcDbEntity
  8
Image
 62
7
100
AcDbSpline
 70
8
 71
3
 72
8
 73
4
 74
0
 40
0
 40
0
 40
0
 40
0
 40
1
 40
1
 40
1
 40
1
 10
47.520003
 20
50.772642
 30
0.0
 10
47.520003
 20
50.602904
 30
0.0
 10
46.877029
 20
50.560000
 30
0.0
 10
44.333270
 20
50.560000
 30
0.0
  0
LWPOLYLINE
  5
15f
100
AcDbEntity
  8
Image
 62
7
100
AcDbPolyline
 90
5
 70
0
 10
30.026192
 20
62.253947
 30
0.0
 10
33.972385
 20
73.600000
 30
0.0
 10
36.721975
 20
73.600000
 30
0.0
 10
39.471567
 20
73.600000
 30
0.0
 10
41.249713
 20
68.600000
 30
0.0
  0
SPLINE
  5
160
100
AcDbEntity
  8
Image
 62
7
100
AcDbSpline
 70
8
 71
3
 72
8
 73
4
 74
0
 40
0
 40
0
 40
0
 40
0
 40
1
 40
1
 40
1
 40
1
 10
29.298503
 20
50.596697
 30
0.0
 10
27.024517
 20
50.566097
 30
0.0
 10
26.080002
 20
50.605397
 30
0.0
 10
26.080002
 20
50.730645
 30
0.0
  0
LWPOLYLINE
  5
161
100
AcDbEntity
  8
Image
 62
7
100
AcDbPolyline
 90
9
 70
0
 10
44.333270
 20
50.560000
 30
0.0
 10
41.146539
 20
50.560000
 30
0.0
 10
40.398819
 20
52.803554
 30
0.0
 10
39.651099
 20
55.047107
 30
0.0
 10
36.755375
 20
55.003557
 30
0.0
 10
33.859653
 20
54.960007
 30
0.0
 10
33.188329
 20
52.800007
 30
0.0
 10
32.517002
 20
50.640007
 30
0.0
 10
29.298503
 20
50.596697
 30
0.0
  0
SPLINE
  5
162
100
AcDbEntity
  8
Image
 62
7
100
AcDbSpline
 70
8
 71
3
 72
8
 73
4
 74
0
 40
0
 40
0
 40
0
 40
0
 40
1
 40
1
 40
1
 40
1
 10
32.797177
 20
53.000000
 30
0.0
 10
33.159602
 20
54.166000
 30
0.0
 10
33.486244
 20
55.210000
 30
0.0
 10
33.523045
 20
55.320000
 30
0.0
  0
SPLINE
  5
163
100
AcDbEntity
  8
Image
 62
7
100
AcDbSpline
 70
8
 71
3
 72
8
 73
4
 74
0
 40
0
 40
0
 40
0
 40
0
 40
1
 40
1
 40
1
 40
1
 10
33.523045
 20
55.320000
 30
0.0
 10
33.573505
 20
55.470832
 30
0.0
 10
34.353399
 20
55.520000
 30
0.0
 10
36.695390
 20
55.520000
 30
0.0
  0
SPLINE
  5
164
100
AcDbEntity
  8
Image
 62
7
100
AcDbSpline
 70
8
 71
3
 72
8
 73
4
 74
0
 40
0
 40
0
 40
0
 40
0
 40
1
 40
1
 40
1
 40
1
 10
36.695390
 20
55.520000
 30
0.0
 10
38.985796
 20
55.520000
 30
0.0
 10
39.843766
 20
55.467510
 30
0.0
 10
39.964454
 20
55.320000
 30
0.0
  0
SPLINE
  5
165
100
AcDbEntity
  8
Image
 62
7
100
AcDbSpline
 70
8
 71
3
 72
8
 73
4
 74
0
 40
0
 40
0
 40
0
 40
0
 40
1
 40
1
 40
1
 40
1
 10
39.964454
 20
55.320000
 30
0.0
 10
40.054454
 20
55.210000
 30
0.0
 10
40.428169
 20
54.166000
 30
0.0
 10
40.794935
 20
53.000000
 30
0.0
  0
LWPOLYLINE
  5
166
100
AcDbEntity
  8
Image
 62
7
100
AcDbPolyline
 90
1
 70
1
 10
26.080002
 20
50.730645
 30
0.0
  0
SPLINE
  5
167
100
AcDbEntity
  8
Image
 62
7
100
AcDbSpline
 70
8
 71
3
 72
8
 73
4
 74
0
 40
0
 40
0
 40
0
 40
0
 40
1
 40
1
 40
1
 40
1
 10
44.268012
 20
50.880000
 30
0.0
 10
46.442153
 20
50.880000
 30
0.0
 10
47.059109
 20
50.925050
 30
0.0
 10
47.007065
 20
51.080000
 30
0.0
  0
SPLINE
  5
168
100
AcDbEntity
  8
Image
 62
7
100
AcDbSpline
 70
8
 71
3
 72
8
 73
4
 74
0
 40
0
 40
0
 40
0
 40
0
 40
1
 40
1
 40
1
 40
1
 10
47.007065
 20
51.080000
 30
0.0
 10
46.970125
 20
51.190000
 30
0.0
 10
45.180822
 20
56.230000
 30
0.0
 10
43.030848
 20
62.280000
 30
0.0
  0
LWPOLYLINE
  5
169
100
AcDbEntity
  8
Image
 62
7
100
AcDbPolyline
 90
3
 70
0
 10
40.794935
 20
53.000000
 30
0.0
 10
41.461783
 20
50.880000
 30
0.0
 10
44.268012
 20
50.880000
 30
0.0
  0
SPLINE
  5
16a
100
AcDbEntity
  8
Image
 62
7
100
AcDbSpline
 70
8
 71
3
 72
8
 73
4
 74
0
 40
0
 40
0
 40
0
 40
0
 40
1
 40
1
 40
1
 40
1
 10
30.494005
 20
62.280000
 30
0.0
 10
28.391368
 20
56.230000
 30
0.0
 10
26.638346
 20
51.190000
 30
0.0
 10
26.598397
 20
51.080000
 30
0.0
  0
SPLINE
  5
16b
100
AcDbEntity
  8
Image
 62
7
100
AcDbSpline
 70
8
 71
3
 72
8
 73
4
 74
0
 40
0
 40
0
 40
0
 40
0
 40
1
 40
1
 40
1
 40
1
 10
26.598397
 20
51.080000
 30
0.0
 10
26.542047
 20
50.924842
 30
0.0
 10
27.154941
 20
50.880000
 30
0.0
 10
29.331992
 20
50.880000
 30
0.0
  0
LWPOLYLINE
  5
16c
100
AcDbEntity
  8
Image
 62
7
100
AcDbPolyline
 90
5
 70
0
 10
43.030848
 20
62.280000
 30
0.0
 10
39.121804
 20
73.280000
 30
0.0
 10
36.719391
 20
73.280000
 30
0.0
 10
34.316980
 20
73.280000
 30
0.0
 10
30.494005
 20
62.280000
 30
0.0
  0
SPLINE
  5
16d
100
AcDbEntity
  8
Image
 62
7
100
AcDbSpline
 70
8
 71
3
 72
8
 73
4
 74
0
 40
0
 40
0
 40
0
 40
0
 40
1
 40
1
 40
1
 40
1
 10
34.880002
 20
60.402702
 30
0.0
 10
34.880002
 20
60.536187
 30
0.0
 10
35.248962
 20
62.120187
 30
0.0
 10
35.699911
 20
63.922702
 30
0.0
  0
SPLINE
  5
16e
100
AcDbEntity
  8
Image
 62
7
100
AcDbSpline
 70
8
 71
3
 72
8
 73
4
 74
0
 40
0
 40
0
 40
0
 40
0
 40
1
 40
1
 40
1
 40
1
 10
35.699911
 20
63.922702
 30
0.0
 10
36.783294
 20
68.253138
 30
0.0
 10
36.814231
 20
68.254581
 30
0.0
 10
37.811305
 20
64.021122
 30
0.0
  0
SPLINE
  5
16f
100
AcDbEntity
  8
Image
 62
7
100
AcDbSpline
 70
8
 71
3
 72
8
 73
4
 74
0
 40
0
 40
0
 40
0
 40
0
 40
1
 40
1
 40
1
 40
1
 10
37.811305
 20
64.021122
 30
0.0
 10
38.223089
 20
62.272740
 30
0.0
 10
38.560003
 20
60.688740
 30
0.0
 10
38.560003
 20
60.501122
 30
0.0
  0
SPLINE
  5
170
100
AcDbEntity
  8
Image
 62
7
100
AcDbSpline
 70
8
 71
3
 72
8
 73
4
 74
0
 40
0
 40
0
 40
0
 40
0
 40
1
 40
1
 40
1
 40
1
 10
38.560003
 20
60.501122
 30
0.0
 10
38.560003
 20
60.172733
 30
0.0
 10
38.491313
 20
60.159999
 30
0.0
 10
36.720002
 20
60.159999
 30
0.0
  0
SPLINE
  5
171
100
AcDbEntity
  8
Image
 62
7
100
AcDbSpline
 70
8
 71
3
 72
8
 73
4
 74
0
 40
0
 40
0
 40
0
 40
0
 40
1
 40
1
 40
1
 40
1
 10
36.720002
 20
60.159999
 30
0.0
 10
35.182010
 20
60.159999
 30
0.0
 10
34.880002
 20
60.199839
 30
0.0
 10
34.880002
 20
60.402701
 30
0.0
  0
LWPOLYLINE
  5
172
100
AcDbEntity
  8
Image
 62
7
100
AcDbPolyline
 90
3
 70
0
 10
29.331992
 20
50.880000
 30
0.0
 10
32.138221
 20
50.880000
 30
0.0
 10
32.797177
 20
53.000000
 30
0.0
  0
SPLINE
  5
173
100
AcDbEntity
  8
Image
 62
7
100
AcDbSpline
 70
8
 71
3
 72
8
 73
4
 74
0
 40
0
 40
0
 40
0
 40
0
 40
1
 40
1
 40
1
 40
1
 10
37.976689
 20
61.480000
 30
0.0
 10
37.847476
 20
62.030000
 30
0.0
 10
37.599046
 20
63.092000
 30
0.0
 10
37.424623
 20
63.840000
 30
0.0
  0
SPLINE
  5
174
100
AcDbEntity
  8
Image
 62
7
100
AcDbSpline
 70
8
 71
3
 72
8
 73
4
 74
0
 40
0
 40
0
 40
0
 40
0
 40
1
 40
1
 40
1
 40
1
 10
37.424623
 20
63.840000
 30
0.0
 10
36.726553
 20
66.833610
 30
0.0
 10
36.845710
 20
66.840622
 30
0.0
 10
36.065446
 20
63.760000
 30
0.0
  0
SPLINE
  5
175
100
AcDbEntity
  8
Image
 62
7
100
AcDbSpline
 70
8
 71
3
 72
8
 73
4
 74
0
 40
0
 40
0
 40
0
 40
0
 40
1
 40
1
 40
1
 40
1
 10
36.065446
 20
63.760000
 30
0.0
 10
35.686537
 20
62.264000
 30
0.0
 10
35.372804
 20
60.914000
 30
0.0
 10
35.368261
 20
60.760000
 30
0.0
  0
SPLINE
  5
176
100
AcDbEntity
  8
Image
 62
7
100
AcDbSpline
 70
8
 71
3
 72
8
 73
4
 74
0
 40
0
 40
0
 40
0
 40
0
 40
1
 40
1
 40
1
 40
1
 10
35.368261
 20
60.760000
 30
0.0
 10
35.360961
 20
60.513662
 30
0.0
 10
35.531418
 20
60.480000
 30
0.0
 10
36.785812
 20
60.480000
 30
0.0
  0
LWPOLYLINE
  5
177
100
AcDbEntity
  8
Image
 62
7
100
AcDbPolyline
 90
1
 70
1
 10
34.880002
 20
60.402701
 30
0.0
  0
LWPOLYLINE
  5
178
100
AcDbEntity
  8
Image
 62
7
100
AcDbPolyline
 90
3
 70
0
 10
36.785812
 20
60.480000
 30
0.0
 10
38.211622
 20
60.480000
 30
0.0
 10
37.976689
 20
61.480000
 30
0.0
  0
SPLINE
  5
179
100
AcDbEntity
  8
Image
 62
7
100
AcDbSpline
 70
8
 71
3
 72
8
 73
4
 74
0
 40
0
 40
0
 40
0
 40
0
 40
1
 40
1
 40
1
 40
1
 10
53.766749
 20
73.600000
 30
0.0
 10
59.389629
 20
73.600000
 30
0.0
 10
60.409905
 20
73.474213
 30
0.0
 10
62.364887
 20
72.539957
 30
0.0
  0
SPLINE
  5
17a
100
AcDbEntity
  8
Image
 62
7
100
AcDbSpline
 70
8
 71
3
 72
8
 73
4
 74
0
 40
0
 40
0
 40
0
 40
0
 40
1
 40
1
 40
1
 40
1
 10
62.364887
 20
72.539957
 30
0.0
 10
64.381033
 20
71.576472
 30
0.0
 10
65.775215
 20
69.831168
 30
0.0
 10
66.221454
 20
67.712125
 30
0.0
  0
SPLINE
  5
17b
100
AcDbEntity
  8
Image
 62
7
100
AcDbSpline
 70
8
 71
3
 72
8
 73
4
 74
0
 40
0
 40
0
 40
0
 40
0
 40
1
 40
1
 40
1
 40
1
 10
66.221454
 20
67.712125
 30
0.0
 10
66.507097
 20
66.355698
 30
0.0
 10
66.459504
 20
57.255662
 30
0.0
 10
66.160764
 20
56.108736
 30
0.0
  0
SPLINE
  5
17c
100
AcDbEntity
  8
Image
 62
7
100
AcDbSpline
 70
8
 71
3
 72
8
 73
4
 74
0
 40
0
 40
0
 40
0
 40
0
 40
1
 40
1
 40
1
 40
1
 10
66.160764
 20
56.108736
 30
0.0
 10
65.513413
 20
53.623387
 30
0.0
 10
63.966842
 20
52.066499
 30
0.0
 10
61.172455
 20
51.087154
 30
0.0
  0
LWPOLYLINE
  5
17d
100
AcDbEntity
  8
Image
 62
7
100
AcDbPolyline
 90
3
 70
0
 10
48.800003
 20
62.067336
 30
0.0
 10
48.800003
 20
73.600000
 30
0.0
 10
53.766749
 20
73.600000
 30
0.0
  0
SPLINE
  5
17e
100
AcDbEntity
  8
Image
 62
7
100
AcDbSpline
 70
8
 71
3
 72
8
 73
4
 74
0
 40
0
 40
0
 40
0
 40
0
 40
1
 40
1
 40
1
 40
1
 10
60.303506
 20
51.268144
 30
0.0
 10
61.806335
 20
51.648597
 30
0.0
 10
63.411211
 20
52.551978
 30
0.0
 10
64.258566
 20
53.494442
 30
0.0
  0
SPLINE
  5
17f
100
AcDbEntity
  8
Image
 62
7
100
AcDbSpline
 70
8
 71
3
 72
8
 73
4
 74
0
 40
0
 40
0
 40
0
 40
0
 40
1
 40
1
 40
1
 40
1
 10
64.258566
 20
53.494442
 30
0.0
 10
65.863705
 20
55.279742
 30
0.0
 10
66.073825
 20
56.253691
 30
0.0
 10
66.076299
 20
61.920000
 30
0.0
  0
SPLINE
  5
180
100
AcDbEntity
  8
Image
 62
7
100
AcDbSpline
 70
8
 71
3
 72
8
 73
4
 74
0
 40
0
 40
0
 40
0
 40
0
 40
1
 40
1
 40
1
 40
1
 10
66.076299
 20
61.920000
 30
0.0
 10
66.077259
 20
64.252000
 30
0.0
 10
66.008739
 20
66.583869
 30
0.0
 10
65.923897
 20
67.101930
 30
0.0
  0
SPLINE
  5
181
100
AcDbEntity
  8
Image
 62
7
100
AcDbSpline
 70
8
 71
3
 72
8
 73
4
 74
0
 40
0
 40
0
 40
0
 40
0
 40
1
 40
1
 40
1
 40
1
 10
65.923897
 20
67.101930
 30
0.0
 10
65.564990
 20
69.293538
 30
0.0
 10
64.129841
 20
71.219883
 30
0.0
 10
62.153137
 20
72.163277
 30
0.0
  0
SPLINE
  5
182
100
AcDbEntity
  8
Image
 62
7
100
AcDbSpline
 70
8
 71
3
 72
8
 73
4
 74
0
 40
0
 40
0
 40
0
 40
0
 40
1
 40
1
 40
1
 40
1
 10
62.153137
 20
72.163277
 30
0.0
 10
60.313710
 20
73.041155
 30
0.0
 10
59.558949
 20
73.142837
 30
0.0
 10
54.200004
 20
73.234720
 30
0.0
  0
LWPOLYLINE
  5
183
100
AcDbEntity
  8
Image
 62
7
100
AcDbPolyline
 90
5
 70
0
 10
61.172455
 20
51.087154
 30
0.0
 10
59.920002
 20
50.648206
 30
0.0
 10
54.360002
 20
50.591436
 30
0.0
 10
48.800001
 20
50.534666
 30
0.0
 10
48.800003
 20
62.067336
 30
0.0
  0
SPLINE
  5
184
100
AcDbEntity
  8
Image
 62
7
100
AcDbSpline
 70
8
 71
3
 72
8
 73
4
 74
0
 40
0
 40
0
 40
0
 40
0
 40
1
 40
1
 40
1
 40
1
 10
54.280004
 20
50.925174
 30
0.0
 10
58.139809
 20
50.989914
 30
0.0
 10
59.513402
 20
51.068126
 30
0.0
 10
60.303506
 20
51.268147
 30
0.0
  0
LWPOLYLINE
  5
185
100
AcDbEntity
  8
Image
 62
7
100
AcDbPolyline
 90
5
 70
0
 10
54.200004
 20
73.234720
 30
0.0
 10
49.280003
 20
73.319080
 30
0.0
 10
49.280003
 20
62.080190
 30
0.0
 10
49.280003
 20
50.841304
 30
0.0
 10
54.280004
 20
50.925174
 30
0.0
  0
LWPOLYLINE
  5
186
100
AcDbEntity
  8
Image
 62
7
100
AcDbPolyline
 90
1
 70
1
 10
60.303506
 20
51.268147
 30
0.0
  0
SPLINE
  5
187
100
AcDbEntity
  8
Image
 62
7
100
AcDbSpline
 70
8
 71
3
 72
8
 73
4
 74
0
 40
0
 40
0
 40
0
 40
0
 40
1
 40
1
 40
1
 40
1
 10
56.760004
 20
68.295346
 30
0.0
 10
59.247405
 20
68.232776
 30
0.0
 10
59.803679
 20
68.039762
 30
0.0
 10
60.394343
 20
67.034341
 30
0.0
  0
SPLINE
  5
188
100
AcDbEntity
  8
Image
 62
7
100
AcDbSpline
 70
8
 71
3
 72
8
 73
4
 74
0
 40
0
 40
0
 40
0
 40
0
 40
1
 40
1
 40
1
 40
1
 10
60.394343
 20
67.034341
 30
0.0
 10
60.700558
 20
66.513103
 30
0.0
 10
60.720004
 20
66.217266
 30
0.0
 10
60.720004
 20
62.080002
 30
0.0
  0
SPLINE
  5
189
100
AcDbEntity
  8
Image
 62
7
100
AcDbSpline
 70
8
 71
3
 72
8
 73
4
 74
0
 40
0
 40
0
 40
0
 40
0
 40
1
 40
1
 40
1
 40
1
 10
60.720004
 20
62.080002
 30
0.0
 10
60.720004
 20
57.968133
 30
0.0
 10
60.699044
 20
57.644352
 30
0.0
 10
60.400004
 20
57.135607
 30
0.0
  0
SPLINE
  5
18a
100
AcDbEntity
  8
Image
 62
7
100
AcDbSpline
 70
8
 71
3
 72
8
 73
4
 74
0
 40
0
 40
0
 40
0
 40
0
 40
1
 40
1
 40
1
 40
1
 10
60.400004
 20
57.135607
 30
0.0
 10
59.838026
 20
56.179551
 30
0.0
 10
59.101748
 20
55.927930
 30
0.0
 10
56.680004
 20
55.864304
 30
0.0
  0
LWPOLYLINE
  5
18b
100
AcDbEntity
  8
Image
 62
7
100
AcDbPolyline
 90
3
 70
0
 10
54.560004
 20
62.079645
 30
0.0
 10
54.560004
 20
68.350686
 30
0.0
 10
56.760004
 20
68.295346
 30
0.0
  0
SPLINE
  5
18c
100
AcDbEntity
  8
Image
 62
7
100
AcDbSpline
 70
8
 71
3
 72
8
 73
4
 74
0
 40
0
 40
0
 40
0
 40
0
 40
1
 40
1
 40
1
 40
1
 10
59.202500
 20
56.613570
 30
0.0
 10
60.255321
 20
57.167960
 30
0.0
 10
60.319550
 20
57.486989
 30
0.0
 10
60.319158
 20
62.160000
 30
0.0
  0
SPLINE
  5
18d
100
AcDbEntity
  8
Image
 62
7
100
AcDbSpline
 70
8
 71
3
 72
8
 73
4
 74
0
 40
0
 40
0
 40
0
 40
0
 40
1
 40
1
 40
1
 40
1
 10
60.319158
 20
62.160000
 30
0.0
 10
60.318838
 20
66.003971
 30
0.0
 10
60.295078
 20
66.358914
 30
0.0
 10
60.006481
 20
66.832232
 30
0.0
  0
SPLINE
  5
18e
100
AcDbEntity
  8
Image
 62
7
100
AcDbSpline
 70
8
 71
3
 72
8
 73
4
 74
0
 40
0
 40
0
 40
0
 40
0
 40
1
 40
1
 40
1
 40
1
 10
60.006481
 20
66.832232
 30
0.0
 10
59.488097
 20
67.682411
 30
0.0
 10
58.899162
 20
67.879152
 30
0.0
 10
56.807648
 20
67.900840
 30
0.0
  0
LWPOLYLINE
  5
18f
100
AcDbEntity
  8
Image
 62
7
100
AcDbPolyline
 90
3
 70
0
 10
56.680004
 20
55.864304
 30
0.0
 10
54.560004
 20
55.808604
 30
0.0
 10
54.560004
 20
62.079645
 30
0.0
  0
SPLINE
  5
190
100
AcDbEntity
  8
Image
 62
7
100
AcDbSpline
 70
8
 71
3
 72
8
 73
4
 74
0
 40
0
 40
0
 40
0
 40
0
 40
1
 40
1
 40
1
 40
1
 10
56.760496
 20
56.320000
 30
0.0
 10
58.279201
 20
56.320000
 30
0.0
 10
58.753202
 20
56.376980
 30
0.0
 10
59.202492
 20
56.613570
 30
0.0
  0
LWPOLYLINE
  5
191
100
AcDbEntity
  8
Image
 62
7
100
AcDbPolyline
 90
5
 70
0
 10
56.807648
 20
67.900840
 30
0.0
 10
54.960004
 20
67.920000
 30
0.0
 10
54.918004
 20
62.120000
 30
0.0
 10
54.876004
 20
56.320000
 30
0.0
 10
56.760496
 20
56.320000
 30
0.0
  0
SPLINE
  5
192
100
AcDbEntity
  8
Image
 62
7
100
AcDbSpline
 70
8
 71
3
 72
8
 73
4
 74
0
 40
0
 40
0
 40
0
 40
0
 40
1
 40
1
 40
1
 40
1
 10
100.640010
 20
50.725971
 30
0.0
 10
100.640010
 20
50.820901
 30
0.0
 10
102.415060
 20
56.006390
 30
0.0
 10
104.584570
 20
62.249285
 30
0.0
  0
LWPOLYLINE
  5
193
100
AcDbEntity
  8
Image
 62
7
100
AcDbPolyline
 90
1
 70
1
 10
59.202492
 20
56.613570
 30
0.0
  0
SPLINE
  5
194
100
AcDbEntity
  8
Image
 62
7
100
AcDbSpline
 70
8
 71
3
 72
8
 73
4
 74
0
 40
0
 40
0
 40
0
 40
0
 40
1
 40
1
 40
1
 40
1
 10
118.054790
 20
62.280000
 30
0.0
 10
120.271680
 20
56.054000
 30
0.0
 10
122.084270
 20
50.870000
 30
0.0
 10
122.082760
 20
50.760000
 30
0.0
  0
SPLINE
  5
195
100
AcDbEntity
  8
Image
 62
7
100
AcDbSpline
 70
8
 71
3
 72
8
 73
4
 74
0
 40
0
 40
0
 40
0
 40
0
 40
1
 40
1
 40
1
 40
1
 10
122.082760
 20
50.760000
 30
0.0
 10
122.080760
 20
50.606787
 30
0.0
 10
121.334530
 20
50.560000
 30
0.0
 10
118.893270
 20
50.560000
 30
0.0
  0
LWPOLYLINE
  5
196
100
AcDbEntity
  8
Image
 62
7
100
AcDbPolyline
 90
5
 70
0
 10
104.584570
 20
62.249285
 30
0.0
 10
108.529130
 20
73.600000
 30
0.0
 10
111.276600
 20
73.600000
 30
0.0
 10
114.024060
 20
73.600000
 30
0.0
 10
118.054790
 20
62.280000
 30
0.0
  0
SPLINE
  5
197
100
AcDbEntity
  8
Image
 62
7
100
AcDbSpline
 70
8
 71
3
 72
8
 73
4
 74
0
 40
0
 40
0
 40
0
 40
0
 40
1
 40
1
 40
1
 40
1
 10
103.858510
 20
50.596697
 30
0.0
 10
101.636130
 20
50.566787
 30
0.0
 10
100.640010
 20
50.606807
 30
0.0
 10
100.640010
 20
50.725982
 30
0.0
  0
LWPOLYLINE
  5
198
100
AcDbEntity
  8
Image
 62
7
100
AcDbPolyline
 90
9
 70
0
 10
118.893270
 20
50.560000
 30
0.0
 10
115.706540
 20
50.560000
 30
0.0
 10
114.958820
 20
52.803554
 30
0.0
 10
114.211100
 20
55.047107
 30
0.0
 10
111.315380
 20
55.003557
 30
0.0
 10
108.419660
 20
54.960007
 30
0.0
 10
107.748330
 20
52.800007
 30
0.0
 10
107.077010
 20
50.640007
 30
0.0
 10
103.858510
 20
50.596697
 30
0.0
  0
SPLINE
  5
199
100
AcDbEntity
  8
Image
 62
7
100
AcDbSpline
 70
8
 71
3
 72
8
 73
4
 74
0
 40
0
 40
0
 40
0
 40
0
 40
1
 40
1
 40
1
 40
1
 10
107.357180
 20
53.000000
 30
0.0
 10
107.719610
 20
54.166000
 30
0.0
 10
108.046250
 20
55.210000
 30
0.0
 10
108.083050
 20
55.320000
 30
0.0
  0
SPLINE
  5
19a
100
AcDbEntity
  8
Image
 62
7
100
AcDbSpline
 70
8
 71
3
 72
8
 73
4
 74
0
 40
0
 40
0
 40
0
 40
0
 40
1
 40
1
 40
1
 40
1
 10
108.083050
 20
55.320000
 30
0.0
 10
108.133550
 20
55.470832
 30
0.0
 10
108.913400
 20
55.520000
 30
0.0
 10
111.255390
 20
55.520000
 30
0.0
  0
SPLINE
  5
19b
100
AcDbEntity
  8
Image
 62
7
100
AcDbSpline
 70
8
 71
3
 72
8
 73
4
 74
0
 40
0
 40
0
 40
0
 40
0
 40
1
 40
1
 40
1
 40
1
 10
111.255390
 20
55.520000
 30
0.0
 10
113.545800
 20
55.520000
 30
0.0
 10
114.403770
 20
55.467510
 30
0.0
 10
114.524460
 20
55.320000
 30
0.0
  0
SPLINE
  5
19c
100
AcDbEntity
  8
Image
 62
7
100
AcDbSpline
 70
8
 71
3
 72
8
 73
4
 74
0
 40
0
 40
0
 40
0
 40
0
 40
1
 40
1
 40
1
 40
1
 10
114.524460
 20
55.320000
 30
0.0
 10
114.614460
 20
55.210000
 30
0.0
 10
114.988170
 20
54.166000
 30
0.0
 10
115.354940
 20
53.000000
 30
0.0
  0
LWPOLYLINE
  5
19d
100
AcDbEntity
  8
Image
 62
7
100
AcDbPolyline
 90
1
 70
1
 10
100.640010
 20
50.725982
 30
0.0
  0
SPLINE
  5
19e
100
AcDbEntity
  8
Image
 62
7
100
AcDbSpline
 70
8
 71
3
 72
8
 73
4
 74
0
 40
0
 40
0
 40
0
 40
0
 40
1
 40
1
 40
1
 40
1
 10
118.828020
 20
50.880000
 30
0.0
 10
121.002130
 20
50.880000
 30
0.0
 10
121.619130
 20
50.925050
 30
0.0
 10
121.567130
 20
51.080000
 30
0.0
  0
SPLINE
  5
19f
100
AcDbEntity
  8
Image
 62
7
100
AcDbSpline
 70
8
 71
3
 72
8
 73
4
 74
0
 40
0
 40
0
 40
0
 40
0
 40
1
 40
1
 40
1
 40
1
 10
121.567130
 20
51.080000
 30
0.0
 10
121.530230
 20
51.190000
 30
0.0
 10
119.741390
 20
56.230000
 30
0.0
 10
117.591960
 20
62.280000
 30
0.0
  0
LWPOLYLINE
  5
1a0
100
AcDbEntity
  8
Image
 62
7
100
AcDbPolyline
 90
3
 70
0
 10
115.354940
 20
53.000000
 30
0.0
 10
116.021790
 20
50.880000
 30
0.0
 10
118.828020
 20
50.880000
 30
0.0
  0
SPLINE
  5
1a1
100
AcDbEntity
  8
Image
 62
7
100
AcDbSpline
 70
8
 71
3
 72
8
 73
4
 74
0
 40
0
 40
0
 40
0
 40
0
 40
1
 40
1
 40
1
 40
1
 10
105.054010
 20
62.280000
 30
0.0
 10
102.951370
 20
56.230000
 30
0.0
 10
101.198350
 20
51.190000
 30
0.0
 10
101.158400
 20
51.080000
 30
0.0
  0
SPLINE
  5
1a2
100
AcDbEntity
  8
Image
 62
7
100
AcDbSpline
 70
8
 71
3
 72
8
 73
4
 74
0
 40
0
 40
0
 40
0
 40
0
 40
1
 40
1
 40
1
 40
1
 10
101.158400
 20
51.080000
 30
0.0
 10
101.102100
 20
50.924842
 30
0.0
 10
101.714950
 20
50.880000
 30
0.0
 10
103.892000
 20
50.880000
 30
0.0
  0
LWPOLYLINE
  5
1a3
100
AcDbEntity
  8
Image
 62
7
100
AcDbPolyline
 90
5
 70
0
 10
117.591960
 20
62.280000
 30
0.0
 10
113.683900
 20
73.280000
 30
0.0
 10
111.280440
 20
73.280000
 30
0.0
 10
108.876980
 20
73.280000
 30
0.0
 10
105.054010
 20
62.280000
 30
0.0
  0
SPLINE
  5
1a4
100
AcDbEntity
  8
Image
 62
7
100
AcDbSpline
 70
8
 71
3
 72
8
 73
4
 74
0
 40
0
 40
0
 40
0
 40
0
 40
1
 40
1
 40
1
 40
1
 10
109.440010
 20
60.402702
 30
0.0
 10
109.440010
 20
60.536187
 30
0.0
 10
109.808970
 20
62.120187
 30
0.0
 10
110.259920
 20
63.922702
 30
0.0
  0
SPLINE
  5
1a5
100
AcDbEntity
  8
Image
 62
7
100
AcDbSpline
 70
8
 71
3
 72
8
 73
4
 74
0
 40
0
 40
0
 40
0
 40
0
 40
1
 40
1
 40
1
 40
1
 10
110.259920
 20
63.922702
 30
0.0
 10
111.343300
 20
68.253138
 30
0.0
 10
111.374240
 20
68.254581
 30
0.0
 10
112.371310
 20
64.021122
 30
0.0
  0
SPLINE
  5
1a6
100
AcDbEntity
  8
Image
 62
7
100
AcDbSpline
 70
8
 71
3
 72
8
 73
4
 74
0
 40
0
 40
0
 40
0
 40
0
 40
1
 40
1
 40
1
 40
1
 10
112.371310
 20
64.021122
 30
0.0
 10
112.783090
 20
62.272740
 30
0.0
 10
113.120010
 20
60.688740
 30
0.0
 10
113.120010
 20
60.501122
 30
0.0
  0
SPLINE
  5
1a7
100
AcDbEntity
  8
Image
 62
7
100
AcDbSpline
 70
8
 71
3
 72
8
 73
4
 74
0
 40
0
 40
0
 40
0
 40
0
 40
1
 40
1
 40
1
 40
1
 10
113.120010
 20
60.501122
 30
0.0
 10
113.120010
 20
60.172733
 30
0.0
 10
113.051310
 20
60.159999
 30
0.0
 10
111.280010
 20
60.159999
 30
0.0
  0
SPLINE
  5
1a8
100
AcDbEntity
  8
Image
 62
7
100
AcDbSpline
 70
8
 71
3
 72
8
 73
4
 74
0
 40
0
 40
0
 40
0
 40
0
 40
1
 40
1
 40
1
 40
1
 10
111.280010
 20
60.159999
 30
0.0
 10
109.742020
 20
60.159999
 30
0.0
 10
109.440010
 20
60.199839
 30
0.0
 10
109.440010
 20
60.402701
 30
0.0
  0
LWPOLYLINE
  5
1a9
100
AcDbEntity
  8
Image
 62
7
100
AcDbPolyline
 90
3
 70
0
 10
103.892000
 20
50.880000
 30
0.0
 10
106.698230
 20
50.880000
 30
0.0
 10
107.357180
 20
53.000000
 30
0.0
  0
SPLINE
  5
1aa
100
AcDbEntity
  8
Image
 62
7
100
AcDbSpline
 70
8
 71
3
 72
8
 73
4
 74
0
 40
0
 40
0
 40
0
 40
0
 40
1
 40
1
 40
1
 40
1
 10
112.536690
 20
61.480000
 30
0.0
 10
112.407480
 20
62.030000
 30
0.0
 10
112.159050
 20
63.092000
 30
0.0
 10
111.984630
 20
63.840000
 30
0.0
  0
SPLINE
  5
1ab
100
AcDbEntity
  8
Image
 62
7
100
AcDbSpline
 70
8
 71
3
 72
8
 73
4
 74
0
 40
0
 40
0
 40
0
 40
0
 40
1
 40
1
 40
1
 40
1
 10
111.984630
 20
63.840000
 30
0.0
 10
111.287260
 20
66.830579
 30
0.0
 10
111.415180
 20
66.838134
 30
0.0
 10
110.630110
 20
63.760000
 30
0.0
  0
SPLINE
  5
1ac
100
AcDbEntity
  8
Image
 62
7
100
AcDbSpline
 70
8
 71
3
 72
8
 73
4
 74
0
 40
0
 40
0
 40
0
 40
0
 40
1
 40
1
 40
1
 40
1
 10
110.630110
 20
63.760000
 30
0.0
 10
110.248560
 20
62.264000
 30
0.0
 10
109.932690
 20
60.914000
 30
0.0
 10
109.928190
 20
60.760000
 30
0.0
  0
SPLINE
  5
1ad
100
AcDbEntity
  8
Image
 62
7
100
AcDbSpline
 70
8
 71
3
 72
8
 73
4
 74
0
 40
0
 40
0
 40
0
 40
0
 40
1
 40
1
 40
1
 40
1
 10
109.928190
 20
60.760000
 30
0.0
 10
109.921190
 20
60.513669
 30
0.0
 10
110.091450
 20
60.480000
 30
0.0
 10
111.345820
 20
60.480000
 30
0.0
  0
LWPOLYLINE
  5
1ae
100
AcDbEntity
  8
Image
 62
7
100
AcDbPolyline
 90
1
 70
1
 10
109.440010
 20
60.402701
 30
0.0
  0
LWPOLYLINE
  5
1af
100
AcDbEntity
  8
Image
 62
7
100
AcDbPolyline
 90
3
 70
0
 10
111.345820
 20
60.480000
 30
0.0
 10
112.771630
 20
60.480000
 30
0.0
 10
112.536690
 20
61.480000
 30
0.0
  0
SPLINE
  5
1b0
100
AcDbEntity
  8
Image
 62
7
100
AcDbSpline
 70
8
 71
3
 72
8
 73
4
 74
0
 40
0
 40
0
 40
0
 40
0
 40
1
 40
1
 40
1
 40
1
 10
130.757690
 20
70.443454
 30
0.0
 10
131.507250
 20
68.703558
 30
0.0
 10
132.543420
 20
66.288092
 30
0.0
 10
133.060290
 20
65.075753
 30
0.0
  0
SPLINE
  5
1b1
100
AcDbEntity
  8
Image
 62
7
100
AcDbSpline
 70
8
 71
3
 72
8
 73
4
 74
0
 40
0
 40
0
 40
0
 40
0
 40
1
 40
1
 40
1
 40
1
 10
133.060290
 20
65.075753
 30
0.0
 10
133.672200
 20
63.640488
 30
0.0
 10
134.045650
 20
62.942758
 30
0.0
 10
134.130770
 20
63.075753
 30
0.0
  0
SPLINE
  5
1b2
100
AcDbEntity
  8
Image
 62
7
100
AcDbSpline
 70
8
 71
3
 72
8
 73
4
 74
0
 40
0
 40
0
 40
0
 40
0
 40
1
 40
1
 40
1
 40
1
 10
134.130770
 20
63.075753
 30
0.0
 10
134.202670
 20
63.188092
 30
0.0
 10
135.254350
 20
65.584006
 30
0.0
 10
136.467850
 20
68.400006
 30
0.0
  0
LWPOLYLINE
  5
1b3
100
AcDbEntity
  8
Image
 62
7
100
AcDbPolyline
 90
5
 70
0
 10
123.398950
 20
62.040000
 30
0.0
 10
123.440050
 20
73.520000
 30
0.0
 10
126.417450
 20
73.563450
 30
0.0
 10
129.394850
 20
73.606900
 30
0.0
 10
130.757690
 20
70.443454
 30
0.0
  0
SPLINE
  5
1b4
100
AcDbEntity
  8
Image
 62
7
100
AcDbSpline
 70
8
 71
3
 72
8
 73
4
 74
0
 40
0
 40
0
 40
0
 40
0
 40
1
 40
1
 40
1
 40
1
 10
138.751260
 20
55.708403
 30
0.0
 10
138.791960
 20
58.543996
 30
0.0
 10
138.765060
 20
60.723620
 30
0.0
 10
138.691560
 20
60.552012
 30
0.0
  0
SPLINE
  5
1b5
100
AcDbEntity
  8
Image
 62
7
100
AcDbSpline
 70
8
 71
3
 72
8
 73
4
 74
0
 40
0
 40
0
 40
0
 40
0
 40
1
 40
1
 40
1
 40
1
 10
138.691560
 20
60.552012
 30
0.0
 10
138.618060
 20
60.380404
 30
0.0
 10
138.027500
 20
58.835998
 30
0.0
 10
137.379290
 20
57.119998
 30
0.0
  0
LWPOLYLINE
  5
1b6
100
AcDbEntity
  8
Image
 62
7
100
AcDbPolyline
 90
9
 70
0
 10
136.467850
 20
68.400006
 30
0.0
 10
138.674210
 20
73.520006
 30
0.0
 10
141.697130
 20
73.520006
 30
0.0
 10
144.720050
 20
73.520006
 30
0.0
 10
144.720050
 20
62.080000
 30
0.0
 10
144.720050
 20
50.640000
 30
0.0
 10
141.698650
 20
50.596390
 30
0.0
 10
138.677260
 20
50.552780
 30
0.0
 10
138.751260
 20
55.708403
 30
0.0
  0
SPLINE
  5
1b7
100
AcDbEntity
  8
Image
 62
7
100
AcDbSpline
 70
8
 71
3
 72
8
 73
4
 74
0
 40
0
 40
0
 40
0
 40
0
 40
1
 40
1
 40
1
 40
1
 10
130.574100
 20
57.478788
 30
0.0
 10
129.831700
 20
59.392123
 30
0.0
 10
129.201470
 20
60.934779
 30
0.0
 10
129.173610
 20
60.906912
 30
0.0
  0
SPLINE
  5
1b8
100
AcDbEntity
  8
Image
 62
7
100
AcDbSpline
 70
8
 71
3
 72
8
 73
4
 74
0
 40
0
 40
0
 40
0
 40
0
 40
1
 40
1
 40
1
 40
1
 10
129.173610
 20
60.906912
 30
0.0
 10
129.145710
 20
60.879042
 30
0.0
 10
129.192410
 20
60.141588
 30
0.0
 10
129.277360
 20
59.268121
 30
0.0
  0
SPLINE
  5
1b9
100
AcDbEntity
  8
Image
 62
7
100
AcDbSpline
 70
8
 71
3
 72
8
 73
4
 74
0
 40
0
 40
0
 40
0
 40
0
 40
1
 40
1
 40
1
 40
1
 10
129.277360
 20
59.268121
 30
0.0
 10
129.362260
 20
58.394652
 30
0.0
 10
129.433630
 20
56.077998
 30
0.0
 10
129.435900
 20
54.119998
 30
0.0
  0
LWPOLYLINE
  5
1ba
100
AcDbEntity
  8
Image
 62
7
100
AcDbPolyline
 90
5
 70
0
 10
137.379290
 20
57.119998
 30
0.0
 10
136.200740
 20
53.999998
 30
0.0
 10
134.062330
 20
53.999998
 30
0.0
 10
131.923930
 20
53.999998
 30
0.0
 10
130.574100
 20
57.478788
 30
0.0
  0
SPLINE
  5
1bb
100
AcDbEntity
  8
Image
 62
7
100
AcDbSpline
 70
8
 71
3
 72
8
 73
4
 74
0
 40
0
 40
0
 40
0
 40
0
 40
1
 40
1
 40
1
 40
1
 10
129.118030
 20
53.720000
 30
0.0
 10
129.117030
 20
55.282000
 30
0.0
 10
129.009840
 20
57.748000
 30
0.0
 10
128.880010
 20
59.200000
 30
0.0
  0
SPLINE
  5
1bc
100
AcDbEntity
  8
Image
 62
7
100
AcDbSpline
 70
8
 71
3
 72
8
 73
4
 74
0
 40
0
 40
0
 40
0
 40
0
 40
1
 40
1
 40
1
 40
1
 10
128.880010
 20
59.200000
 30
0.0
 10
128.750180
 20
60.652000
 30
0.0
 10
128.643070
 20
61.894000
 30
0.0
 10
128.641980
 20
61.960000
 30
0.0
  0
SPLINE
  5
1bd
100
AcDbEntity
  8
Image
 62
7
100
AcDbSpline
 70
8
 71
3
 72
8
 73
4
 74
0
 40
0
 40
0
 40
0
 40
0
 40
1
 40
1
 40
1
 40
1
 10
128.641980
 20
61.960000
 30
0.0
 10
128.640980
 20
62.026000
 30
0.0
 10
128.774820
 20
62.080000
 30
0.0
 10
128.939580
 20
62.080000
 30
0.0
  0
SPLINE
  5
1be
100
AcDbEntity
  8
Image
 62
7
100
AcDbSpline
 70
8
 71
3
 72
8
 73
4
 74
0
 40
0
 40
0
 40
0
 40
0
 40
1
 40
1
 40
1
 40
1
 10
128.939580
 20
62.080000
 30
0.0
 10
129.177080
 20
62.080000
 30
0.0
 10
129.430420
 20
61.591014
 30
0.0
 10
130.162240
 20
59.720000
 30
0.0
  0
SPLINE
  5
1bf
100
AcDbEntity
  8
Image
 62
7
100
AcDbSpline
 70
8
 71
3
 72
8
 73
4
 74
0
 40
0
 40
0
 40
0
 40
0
 40
1
 40
1
 40
1
 40
1
 10
130.162240
 20
59.720000
 30
0.0
 10
130.669940
 20
58.422000
 30
0.0
 10
131.355140
 20
56.676000
 30
0.0
 10
131.684910
 20
55.840000
 30
0.0
  0
LWPOLYLINE
  5
1c0
100
AcDbEntity
  8
Image
 62
7
100
AcDbPolyline
 90
5
 70
0
 10
129.435900
 20
54.119998
 30
0.0
 10
129.439900
 20
50.559998
 30
0.0
 10
126.398840
 20
50.559998
 30
0.0
 10
123.357780
 20
50.559998
 30
0.0
 10
123.398950
 20
62.040000
 30
0.0
  0
SPLINE
  5
1c1
100
AcDbEntity
  8
Image
 62
7
100
AcDbSpline
 70
8
 71
3
 72
8
 73
4
 74
0
 40
0
 40
0
 40
0
 40
0
 40
1
 40
1
 40
1
 40
1
 10
133.918890
 20
54.274220
 30
0.0
 10
134.855280
 20
54.247990
 30
0.0
 10
135.636370
 20
54.297390
 30
0.0
 10
135.747830
 20
54.389891
 30
0.0
  0
SPLINE
  5
1c2
100
AcDbEntity
  8
Image
 62
7
100
AcDbSpline
 70
8
 71
3
 72
8
 73
4
 74
0
 40
0
 40
0
 40
0
 40
0
 40
1
 40
1
 40
1
 40
1
 10
135.747830
 20
54.389891
 30
0.0
 10
135.854820
 20
54.478691
 30
0.0
 10
136.585330
 20
56.244963
 30
0.0
 10
137.371190
 20
58.314943
 30
0.0
  0
SPLINE
  5
1c3
100
AcDbEntity
  8
Image
 62
7
100
AcDbSpline
 70
8
 71
3
 72
8
 73
4
 74
0
 40
0
 40
0
 40
0
 40
0
 40
1
 40
1
 40
1
 40
1
 10
137.371190
 20
58.314943
 30
0.0
 10
138.534260
 20
61.378558
 30
0.0
 10
138.855820
 20
62.078683
 30
0.0
 10
139.100070
 20
62.079275
 30
0.0
  0
SPLINE
  5
1c4
100
AcDbEntity
  8
Image
 62
7
100
AcDbSpline
 70
8
 71
3
 72
8
 73
4
 74
0
 40
0
 40
0
 40
0
 40
0
 40
1
 40
1
 40
1
 40
1
 10
139.100070
 20
62.079275
 30
0.0
 10
139.378350
 20
62.079915
 30
0.0
 10
139.392810
 20
61.978353
 30
0.0
 10
139.299250
 20
60.680001
 30
0.0
  0
SPLINE
  5
1c5
100
AcDbEntity
  8
Image
 62
7
100
AcDbSpline
 70
8
 71
3
 72
8
 73
4
 74
0
 40
0
 40
0
 40
0
 40
0
 40
1
 40
1
 40
1
 40
1
 10
139.299250
 20
60.680001
 30
0.0
 10
139.243750
 20
59.910001
 30
0.0
 10
139.153110
 20
57.390001
 30
0.0
 10
139.097820
 20
55.080001
 30
0.0
  0
LWPOLYLINE
  5
1c6
100
AcDbEntity
  8
Image
 62
7
100
AcDbPolyline
 90
3
 70
0
 10
131.684910
 20
55.840000
 30
0.0
 10
132.284490
 20
54.320000
 30
0.0
 10
133.918890
 20
54.274220
 30
0.0
  0
SPLINE
  5
1c7
100
AcDbEntity
  8
Image
 62
7
100
AcDbSpline
 70
8
 71
3
 72
8
 73
4
 74
0
 40
0
 40
0
 40
0
 40
0
 40
1
 40
1
 40
1
 40
1
 10
136.666150
 20
67.761318
 30
0.0
 10
135.198740
 20
64.372713
 30
0.0
 10
134.219160
 20
62.304960
 30
0.0
 10
134.067430
 20
62.275737
 30
0.0
  0
SPLINE
  5
1c8
100
AcDbEntity
  8
Image
 62
7
100
AcDbSpline
 70
8
 71
3
 72
8
 73
4
 74
0
 40
0
 40
0
 40
0
 40
0
 40
1
 40
1
 40
1
 40
1
 10
134.067430
 20
62.275737
 30
0.0
 10
133.887080
 20
62.241007
 30
0.0
 10
133.207470
 20
63.662534
 30
0.0
 10
131.448190
 20
67.754417
 30
0.0
  0
LWPOLYLINE
  5
1c9
100
AcDbEntity
  8
Image
 62
7
100
AcDbPolyline
 90
9
 70
0
 10
139.097820
 20
55.080001
 30
0.0
 10
138.997270
 20
50.880001
 30
0.0
 10
141.658640
 20
50.880001
 30
0.0
 10
144.320010
 20
50.880001
 30
0.0
 10
144.320010
 20
62.083869
 30
0.0
 10
144.320010
 20
73.287738
 30
0.0
 10
141.670670
 20
73.243868
 30
0.0
 10
139.021330
 20
73.199998
 30
0.0
 10
136.666150
 20
67.761318
 30
0.0
  0
LWPOLYLINE
  5
1ca
100
AcDbEntity
  8
Image
 62
7
100
AcDbPolyline
 90
10
 70
0
 10
131.448190
 20
67.754417
 30
0.0
 10
129.072490
 20
73.280000
 30
0.0
 10
126.456250
 20
73.280000
 30
0.0
 10
123.840010
 20
73.280000
 30
0.0
 10
123.840010
 20
62.080000
 30
0.0
 10
123.840010
 20
50.880000
 30
0.0
 10
126.480010
 20
50.880000
 30
0.0
 10
129.120010
 20
50.880000
 30
0.0
 10
129.118010
 20
53.720000
 30
0.0
 10
129.118030
 20
53.720000
 30
0.0
  0
ENDSEC
  0
SECTION
  2
OBJECTS
  0
DICTIONARY
  5
C
330
0
100
AcDbDictionary
  3
ACAD_GROUP
350
D
  3
ACAD_MLINESTYLE
350
17
  0
DICTIONARY
  5
D
330
C
100
AcDbDictionary
  0
DICTIONARY
  5
1A
330
C
100
AcDbDictionary
  0
DICTIONARY
  5
17
330
C
100
AcDbDictionary
  3
STANDARD
350
18
  0
DICTIONARY
  5
19
330
C
100
AcDbDictionary
  0
ENDSEC
  0
EOF
