<?xml version="1.0" encoding="UTF-8" standalone="no"?>
<!-- Created with Inkscape (http://www.inkscape.org/) -->

<svg
   version="1.1"
   id="svg945"
   width="154.24001"
   height="118.08"
   viewBox="0 0 154.24001 118.08"
   sodipodi:docname="cadcam.svg"
   inkscape:version="1.1 (c68e22c387, 2021-05-23)"
   xmlns:inkscape="http://www.inkscape.org/namespaces/inkscape"
   xmlns:sodipodi="http://sodipodi.sourceforge.net/DTD/sodipodi-0.dtd"
   xmlns="http://www.w3.org/2000/svg"
   xmlns:svg="http://www.w3.org/2000/svg">
  <defs
     id="defs949" />
  <sodipodi:namedview
     id="namedview947"
     pagecolor="#ffffff"
     bordercolor="#666666"
     borderopacity="1.0"
     inkscape:pageshadow="2"
     inkscape:pageopacity="0.0"
     inkscape:pagecheckerboard="0"
     showgrid="false"
     inkscape:zoom="6.3770324"
     inkscape:cx="77.073467"
     inkscape:cy="59.040001"
     inkscape:window-width="3840"
     inkscape:window-height="2097"
     inkscape:window-x="-8"
     inkscape:window-y="-8"
     inkscape:window-maximized="1"
     inkscape:current-layer="g951" />
  <g
     inkscape:groupmode="layer"
     inkscape:label="Image"
     id="g951">
    <path
       style="fill:#000000;stroke-width:0.16"
       d="m 70.080005,68.775584 c -1.188001,-0.438744 -2.224858,-0.861195 -2.30413,-0.938779 -0.129723,-0.126963 9.043063,-24.672283 9.346268,-25.009541 0.06563,-0.07301 1.154003,0.226486 2.418598,0.665536 3.101482,1.076792 2.898837,0.977632 2.798261,1.369266 C 82.291271,45.04793 80.180346,50.69 77.648059,57.4 73.209712,69.160643 73.029427,69.59952 72.641954,69.58665 72.420881,69.579307 71.268005,69.214328 70.080005,68.775584 Z M 77.359805,56.96 c 2.441423,-6.468 4.448231,-11.857245 4.459575,-11.976101 0.0133,-0.139313 -0.764343,-0.493849 -2.188477,-0.997755 L 77.4218,43.20449 77.206431,43.722245 c -0.582335,1.399942 -9.052767,23.844261 -9.012707,23.88119 0.02545,0.02346 1.05428,0.403701 2.286281,0.844971 1.968108,0.704927 2.25219,0.770101 2.340425,0.536952 C 72.875664,68.839411 74.918382,63.428 77.359805,56.96 Z M 15.760001,67.590019 c -3.282322,-0.718553 -5.668207,-2.806286 -6.394735,-5.595613 -0.3563024,-1.367937 -0.3563024,-10.460875 0,-11.828812 0.732664,-2.812888 3.155208,-4.914834 6.480364,-5.622757 0.85364,-0.181739 1.673643,-0.230847 2.874371,-0.172136 2.680407,0.131062 4.297176,0.857782 5.999841,2.696861 0.858766,0.927569 1.767678,2.421387 1.619336,2.661411 -0.03976,0.06434 -1.120015,0.541669 -2.400559,1.060739 l -2.328264,0.943762 -0.784045,-0.733381 c -0.441992,-0.413432 -1.055022,-0.808621 -1.405176,-0.905845 -1.479349,-0.410755 -2.963515,-0.04429 -3.787752,0.935261 l -0.433381,0.515043 v 4.526147 c 0,4.351963 0.0129,4.542543 0.335124,4.952187 0.794529,1.01008 2.791985,1.410416 4.052574,0.812228 0.567866,-0.269471 1.532302,-1.226592 1.532302,-1.520682 0,-0.282157 0.380855,-0.151206 2.800001,0.962731 1.502502,0.691853 2.42056,1.204491 2.454979,1.370845 0.146342,0.70728 -2.211195,3.260371 -3.713704,4.02175 -2.141716,1.08529 -4.6311,1.41724 -6.901276,0.920261 z m 4.595948,-0.479136 c 1.307201,-0.317093 2.658617,-1.044974 3.689619,-1.987253 0.990042,-0.904841 1.947565,-2.234499 1.750811,-2.431252 -0.07,-0.07 -1.050238,-0.549562 -2.178318,-1.065704 l -2.051055,-0.93844 -0.743502,0.740312 c -0.788911,0.785523 -1.611103,1.132099 -2.682066,1.130561 -1.446245,-0.0021 -2.788195,-0.713269 -3.198414,-1.695059 -0.171813,-0.411206 -0.223023,-1.515302 -0.223023,-4.808394 0,-3.962961 0.0235,-4.322051 0.322325,-4.925139 0.411881,-0.831254 0.867205,-1.152969 2.066736,-1.460275 1.557598,-0.399038 3.151,0.0094 4.132072,1.059126 l 0.457661,0.489696 2.106295,-0.835412 2.106294,-0.835413 -0.355691,-0.654119 C 24.990368,47.854482 23.089,46.054966 22.006782,45.535315 c -0.533579,-0.256209 -1.583704,-0.564019 -2.385368,-0.69919 -1.29431,-0.218237 -1.583909,-0.216568 -3.008936,0.01735 -3.834836,0.629483 -6.496877,2.947238 -7.0136071,6.106526 -0.086359,0.528 -0.1561837,2.868 -0.1551653,5.2 0.00246,5.627323 0.2381099,6.727859 1.8076614,8.442072 2.141016,2.338347 5.730169,3.327355 9.104582,2.50881 z m 69.964057,0.478256 C 87.90461,67.062269 85.549958,65.470494 84.59762,63.720738 83.763863,62.188851 83.680005,61.490592 83.680005,56.08 c 0,-5.40204 0.08452,-6.110072 0.910581,-7.627813 0.618087,-1.13563 2.078264,-2.447683 3.44786,-3.098101 1.685403,-0.800393 3.194322,-1.083488 5.24156,-0.983385 2.659695,0.130049 4.30286,0.861601 5.955586,2.651481 0.934568,1.01212 1.836268,2.533708 1.622158,2.737324 -0.0758,0.07205 -1.166456,0.545961 -2.423771,1.053142 l -2.286027,0.922147 -0.673973,-0.660773 c -1.541013,-1.51083 -4.02912,-1.531804 -5.280592,-0.04451 l -0.433381,0.515043 v 4.526147 c 0,4.402967 0.0095,4.538167 0.347424,4.967824 0.786078,0.999336 2.866619,1.36732 4.118824,0.728493 0.598496,-0.30533 1.453752,-1.163845 1.453752,-1.459293 0,-0.281022 0.410261,-0.139059 2.8,0.968893 1.474176,0.683472 2.421214,1.213858 2.454984,1.374912 0.1378,0.657211 -2.088617,3.132784 -3.554163,3.951893 -1.981939,1.107726 -4.737754,1.492449 -7.060821,0.985718 z m 4.595947,-0.478256 c 1.307202,-0.317093 2.658618,-1.044974 3.68962,-1.987253 0.990041,-0.904841 1.947567,-2.234499 1.750807,-2.431252 -0.07,-0.07 -1.050234,-0.549562 -2.178314,-1.065704 l -2.051055,-0.93844 -0.744042,0.744041 c -1.222988,1.222989 -3.152929,1.477799 -4.689742,0.619187 -1.339668,-0.748467 -1.327028,-0.69628 -1.380648,-5.70031 -0.04048,-3.777923 -0.0094,-4.525746 0.21246,-5.106598 0.321194,-0.841034 0.876029,-1.249468 2.13574,-1.572191 1.566267,-0.401257 3.157042,0.0048 4.14036,1.057003 l 0.457661,0.489696 2.106294,-0.835412 2.106296,-0.835413 -0.35569,-0.654119 c -0.195633,-0.359764 -0.859694,-1.163844 -1.475694,-1.786843 -1.355137,-1.370534 -2.463067,-1.934678 -4.4612,-2.27159 -1.291269,-0.217725 -1.582046,-0.216005 -3.006323,0.01779 -3.834836,0.629483 -6.496876,2.947238 -7.013607,6.106526 -0.252202,1.541957 -0.196216,9.237538 0.07657,10.524862 0.309552,1.46084 0.921389,2.526634 2.050627,3.572109 2.224397,2.059399 5.446202,2.826189 8.629882,2.053912 z m -68.835951,0.238483 c 0,-0.09749 1.775785,-5.282984 3.94619,-11.523313 L 33.972385,44.48 h 2.74959 2.749592 l 1.778146,5 c 0.977979,2.75 2.788879,7.838312 4.024218,11.307358 1.235339,3.469048 2.246072,6.403048 2.246072,6.52 0,0.169738 -0.642974,0.212642 -3.186733,0.212642 h -3.186731 l -0.74772,-2.243554 -0.74772,-2.243553 -2.895724,0.04355 -2.895722,0.04355 -0.671324,2.16 -0.671327,2.16 -3.218499,0.04331 c -2.273986,0.0306 -3.218501,-0.0087 -3.218501,-0.133948 z M 32.797177,65.08 c 0.362425,-1.166 0.689067,-2.21 0.725868,-2.32 0.05046,-0.150832 0.830354,-0.2 3.172345,-0.2 2.290406,0 3.148376,0.05249 3.269064,0.2 0.09,0.11 0.463715,1.154 0.830481,2.32 l 0.666848,2.12 h 2.806229 c 2.174141,0 2.791097,-0.04505 2.739053,-0.2 -0.03694,-0.11 -1.826243,-5.15 -3.976217,-11.2 l -3.909044,-11 H 36.719391 34.31698 l -3.822975,11 c -2.102637,6.05 -3.855659,11.09 -3.895608,11.2 -0.05635,0.155158 0.556544,0.2 2.733595,0.2 h 2.806229 z m 2.082825,-7.402702 c 0,-0.133485 0.36896,-1.717485 0.819909,-3.52 1.083383,-4.330436 1.11432,-4.331879 2.111394,-0.09842 0.411784,1.748382 0.748698,3.332382 0.748698,3.52 0,0.328389 -0.06869,0.341123 -1.840001,0.341123 -1.537992,0 -1.84,-0.03984 -1.84,-0.242702 z M 37.976689,56.6 c -0.129213,-0.55 -0.377643,-1.612 -0.552066,-2.36 -0.69807,-2.99361 -0.578913,-3.000622 -1.359177,0.08 -0.378909,1.496 -0.692642,2.846 -0.697185,3 -0.0073,0.246338 0.163157,0.28 1.417551,0.28 h 1.42581 z M 48.800003,56.012664 V 44.48 h 4.966746 c 5.62288,0 6.643156,0.125787 8.598138,1.060043 2.016146,0.963485 3.410328,2.708789 3.856567,4.827832 0.285643,1.356427 0.23805,10.456463 -0.06069,11.603389 -0.647351,2.485349 -2.193922,4.042237 -4.988309,5.021582 l -1.252453,0.438948 -5.56,0.05677 -5.560001,0.05677 z m 11.503503,10.799192 c 1.502829,-0.380453 3.107705,-1.283834 3.95506,-2.226298 1.605139,-1.7853 1.815259,-2.759249 1.817733,-8.425558 9.6e-4,-2.332 -0.06756,-4.663869 -0.152402,-5.18193 -0.358907,-2.191608 -1.794056,-4.117953 -3.77076,-5.061347 -1.839427,-0.877878 -2.594188,-0.97956 -7.953133,-1.071443 l -4.920001,-0.08436 v 11.23889 11.238886 l 5.000001,-0.08387 c 3.859805,-0.06474 5.233398,-0.142952 6.023502,-0.342973 z M 54.560004,56.000355 v -6.271041 l 2.2,0.05534 c 2.487401,0.06257 3.043675,0.255584 3.634339,1.261005 0.306215,0.521238 0.325661,0.817075 0.325661,4.954339 0,4.111869 -0.02096,4.43565 -0.32,4.944395 -0.561978,0.956056 -1.298256,1.207677 -3.72,1.271303 l -2.12,0.0557 z M 59.2025,61.46643 c 1.052821,-0.55439 1.11705,-0.873419 1.116658,-5.54643 -3.2e-4,-3.843971 -0.02408,-4.198914 -0.312677,-4.672232 -0.518384,-0.850179 -1.107319,-1.04692 -3.198833,-1.068608 L 54.960004,50.16 l -0.042,5.8 -0.042,5.8 h 1.884492 c 1.518705,0 1.992706,-0.05698 2.441996,-0.29357 z m 41.43751,5.887599 c 0,-0.09493 1.77505,-5.280419 3.94456,-11.523314 L 108.52913,44.48 h 2.74747 2.74746 l 4.03073,11.32 c 2.21689,6.226 4.02948,11.41 4.02797,11.52 -0.002,0.153213 -0.74823,0.2 -3.18949,0.2 h -3.18673 l -0.74772,-2.243554 -0.74772,-2.243553 -2.89572,0.04355 -2.89572,0.04355 -0.67133,2.16 -0.67132,2.16 -3.2185,0.04331 c -2.22238,0.02991 -3.2185,-0.01011 -3.2185,-0.129285 z M 107.35718,65.08 c 0.36243,-1.166 0.68907,-2.21 0.72587,-2.32 0.0505,-0.150832 0.83035,-0.2 3.17234,-0.2 2.29041,0 3.14838,0.05249 3.26907,0.2 0.09,0.11 0.46371,1.154 0.83048,2.32 l 0.66685,2.12 h 2.80623 c 2.17411,0 2.79111,-0.04505 2.73911,-0.2 -0.0369,-0.11 -1.82574,-5.15 -3.97517,-11.2 l -3.90806,-11 h -2.40346 -2.40346 l -3.82297,11 c -2.10264,6.05 -3.85566,11.09 -3.89561,11.2 -0.0563,0.155158 0.55655,0.2 2.7336,0.2 h 2.80623 z m 2.08283,-7.402702 c 0,-0.133485 0.36896,-1.717485 0.81991,-3.52 1.08338,-4.330436 1.11432,-4.331879 2.11139,-0.09842 0.41178,1.748382 0.7487,3.332382 0.7487,3.52 0,0.328389 -0.0687,0.341123 -1.84,0.341123 -1.53799,0 -1.84,-0.03984 -1.84,-0.242702 z M 112.53669,56.6 c -0.12921,-0.55 -0.37764,-1.612 -0.55206,-2.36 -0.69737,-2.990579 -0.56945,-2.998134 -1.35452,0.08 -0.38155,1.496 -0.69742,2.846 -0.70192,3 -0.007,0.246331 0.16326,0.28 1.41763,0.28 h 1.42581 z m 10.86226,-0.56 0.0411,-11.48 2.9774,-0.04345 2.9774,-0.04345 1.36284,3.163446 c 0.74956,1.739896 1.78573,4.155362 2.3026,5.367701 0.61191,1.435265 0.98536,2.132995 1.07048,2 0.0719,-0.112339 1.12358,-2.508253 2.33708,-5.324253 l 2.20636,-5.12 h 3.02292 3.02292 V 56 67.44 l -3.0214,0.04361 -3.02139,0.04361 0.074,-5.155623 c 0.0407,-2.835593 0.0138,-5.015217 -0.0597,-4.843609 -0.0735,0.171608 -0.66406,1.716014 -1.31227,3.432014 l -1.17855,3.12 h -2.13841 -2.1384 l -1.34983,-3.47879 c -0.7424,-1.913335 -1.37263,-3.455991 -1.40049,-3.428124 -0.0279,0.02787 0.0188,0.765324 0.10375,1.638791 0.0849,0.873469 0.15627,3.190123 0.15854,5.148123 l 0.004,3.56 h -3.04106 -3.04106 z m 5.71908,8.32 c -0.001,-1.562 -0.10819,-4.028 -0.23802,-5.48 -0.12983,-1.452 -0.23694,-2.694 -0.23803,-2.76 -10e-4,-0.066 0.13284,-0.12 0.2976,-0.12 0.2375,0 0.49084,0.488986 1.22266,2.36 0.5077,1.298 1.1929,3.044 1.52267,3.88 l 0.59958,1.52 1.6344,0.04578 c 0.93639,0.02623 1.71748,-0.02317 1.82894,-0.115671 0.10699,-0.0888 0.8375,-1.855072 1.62336,-3.925052 1.16307,-3.063615 1.48463,-3.76374 1.72888,-3.764332 0.27828,-6.4e-4 0.29274,0.100922 0.19918,1.399274 -0.0555,0.77 -0.14614,3.29 -0.20143,5.6 l -0.10055,4.2 h 2.66137 2.66137 V 55.996131 44.792262 l -2.64934,0.04387 -2.64934,0.04387 -2.35518,5.43868 c -1.46741,3.388605 -2.44699,5.456358 -2.59872,5.485581 -0.18035,0.03473 -0.85996,-1.386797 -2.61924,-5.47868 L 129.07249,44.8 h -2.61624 -2.61624 V 56 67.2 h 2.64 2.64 l -0.002,-2.84 z"
       id="path991" />
  </g>
</svg>
