  0
SECTION
  2
HEADER
  9
$ACADVER
  1
AC1014
  9
$HANDSEED
  5
FFFF
  9
$MEASUREMENT
 70
     1
  0
ENDSEC
  0
SECTION
  2
TABLES
  0
TABLE
  2
VPORT
  5
8
330
0
100
AcDbSymbolTable
 70
     4
  0
VPORT
  5
2E
330
8
100
AcDbSymbolTableRecord
100
AcDbViewportTableRecord
  2
*ACTIVE
 70
     0
 10
0.0
 20
0.0
 11
1.0
 21
1.0
 12
210.0
 22
148.5
 13
0.0
 23
0.0
 14
10.0
 24
10.0
 15
10.0
 25
10.0
 16
0.0
 26
0.0
 36
1.0
 17
0.0
 27
0.0
 37
0.0
 40
341.0
 41
1.24
 42
50.0
 43
0.0
 44
0.0
 50
0.0
 51
0.0
 71
     0
 72
   100
 73
     1
 74
     3
 75
     0
 76
     0
 77
     0
 78
     0
  0
ENDTAB
  0
TABLE
  2
LTYPE
  5
5
330
0
100
AcDbSymbolTable
 70
     1
  0
LTYPE
  5
14
330
5
100
AcDbSymbolTableRecord
100
AcDbLinetypeTableRecord
  2
BYBLOCK
 70
     0
  3

 72
    65
 73
     0
 40
0.0
  0
LTYPE
  5
15
330
5
100
AcDbSymbolTableRecord
100
AcDbLinetypeTableRecord
  2
BYLAYER
 70
     0
  3

 72
    65
 73
     0
 40
0.0
  0
LTYPE
  5
16
330
5
100
AcDbSymbolTableRecord
100
AcDbLinetypeTableRecord
  2
CONTINUOUS
 70
     0
  3
Solid line
 72
    65
 73
     0
 40
0.0
  0
ENDTAB
  0
TABLE
  2
LAYER
  5
2
100
AcDbSymbolTable
 70
2
  0
LAYER
  5
50
100
AcDbSymbolTableRecord
100
AcDbLayerTableRecord
  2
0
 70
0
  6
CONTINUOUS
  0
LAYER
  5
51
100
AcDbSymbolTableRecord
100
AcDbLayerTableRecord
  2
Image
 70
0
  6
CONTINUOUS
  0
ENDTAB
  0
TABLE
  2
STYLE
  5
3
330
0
100
AcDbSymbolTable
 70
     1
  0
STYLE
  5
11
330
3
100
AcDbSymbolTableRecord
100
AcDbTextStyleTableRecord
  2
STANDARD
 70
     0
 40
0.0
 41
1.0
 50
0.0
 71
     0
 42
2.5
  3
txt
  4

  0
ENDTAB
  0
TABLE
  2
VIEW
  5
6
330
0
100
AcDbSymbolTable
 70
     0
  0
ENDTAB
  0
TABLE
  2
UCS
  5
7
330
0
100
AcDbSymbolTable
 70
     0
  0
ENDTAB
  0
TABLE
  2
APPID
  5
9
330
0
100
AcDbSymbolTable
 70
     2
  0
APPID
  5
12
330
9
100
AcDbSymbolTableRecord
100
AcDbRegAppTableRecord
  2
ACAD
 70
     0
  0
ENDTAB
  0
TABLE
  2
DIMSTYLE
  5
A
330
0
100
AcDbSymbolTable
 70
     1
  0
DIMSTYLE
105
27
330
A
100
AcDbSymbolTableRecord
100
AcDbDimStyleTableRecord
  2
ISO-25
 70
     0
  3

  4

  5

  6

  7

 40
1.0
 41
2.5
 42
0.625
 43
3.75
 44
1.25
 45
0.0
 46
0.0
 47
0.0
 48
0.0
140
2.5
141
2.5
142
0.0
143
0.03937007874016
144
1.0
145
0.0
146
1.0
147
0.625
 71
     0
 72
     0
 73
     0
 74
     0
 75
     0
 76
     0
 77
     1
 78
     8
170
     0
171
     3
172
     1
173
     0
174
     0
175
     0
176
     0
177
     0
178
     0
270
     2
271
     2
272
     2
273
     2
274
     3
340
11
275
     0
280
     0
281
     0
282
     0
283
     0
284
     8
285
     0
286
     0
287
     3
288
     0
  0
ENDTAB
  0
TABLE
  2
BLOCK_RECORD
  5
1
330
0
100
AcDbSymbolTable
 70
     1
  0
BLOCK_RECORD
  5
1F
330
1
100
AcDbSymbolTableRecord
100
AcDbBlockTableRecord
  2
*MODEL_SPACE
  0
BLOCK_RECORD
  5
1B
330
1
100
AcDbSymbolTableRecord
100
AcDbBlockTableRecord
  2
*PAPER_SPACE
  0
ENDTAB
  0
ENDSEC
  0
SECTION
  2
BLOCKS
  0
BLOCK
  5
20
330
1F
100
AcDbEntity
  8
0
100
AcDbBlockBegin
  2
*MODEL_SPACE
 70
     0
 10
0.0
 20
0.0
 30
0.0
  3
*MODEL_SPACE
  1

  0
ENDBLK
  5
21
330
1F
100
AcDbEntity
  8
0
100
AcDbBlockEnd
  0
BLOCK
  5
1C
330
1B
100
AcDbEntity
 67
     1
  8
0
100
AcDbBlockBegin
  2
*PAPER_SPACE
  1

  0
ENDBLK
  5
1D
330
1B
100
AcDbEntity
 67
     1
  8
0
100
AcDbBlockEnd
  0
ENDSEC
  0
SECTION
  2
ENTITIES
  0
SPLINE
  5
100
100
AcDbEntity
  8
Image
 62
7
100
AcDbSpline
 70
8
 71
3
 72
8
 73
4
 74
0
 40
0
 40
0
 40
0
 40
0
 40
1
 40
1
 40
1
 40
1
 10
20.880368
 20
17.745454
 30
0.0
 10
17.164001
 20
18.589592
 30
0.0
 10
14.662965
 20
20.409947
 30
0.0
 10
13.044258
 20
23.448894
 30
0.0
  0
SPLINE
  5
101
100
AcDbEntity
  8
Image
 62
7
100
AcDbSpline
 70
8
 71
3
 72
8
 73
4
 74
0
 40
0
 40
0
 40
0
 40
0
 40
1
 40
1
 40
1
 40
1
 10
13.044258
 20
23.448894
 30
0.0
 10
12.452142
 20
24.560529
 30
0.0
 10
12.324182
 20
25.310446
 30
0.0
 10
12.322294
 20
27.679998
 30
0.0
  0
SPLINE
  5
102
100
AcDbEntity
  8
Image
 62
7
100
AcDbSpline
 70
8
 71
3
 72
8
 73
4
 74
0
 40
0
 40
0
 40
0
 40
0
 40
1
 40
1
 40
1
 40
1
 10
12.322294
 20
27.679998
 30
0.0
 10
12.320294
 20
30.268586
 30
0.0
 10
12.414864
 20
30.731230
 30
0.0
 10
13.257544
 20
32.252284
 30
0.0
  0
SPLINE
  5
103
100
AcDbEntity
  8
Image
 62
7
100
AcDbSpline
 70
8
 71
3
 72
8
 73
4
 74
0
 40
0
 40
0
 40
0
 40
0
 40
1
 40
1
 40
1
 40
1
 10
13.257544
 20
32.252284
 30
0.0
 10
14.454612
 20
34.413017
 30
0.0
 10
16.516457
 20
36.310595
 30
0.0
 10
18.823952
 20
37.375215
 30
0.0
  0
SPLINE
  5
104
100
AcDbEntity
  8
Image
 62
7
100
AcDbSpline
 70
8
 71
3
 72
8
 73
4
 74
0
 40
0
 40
0
 40
0
 40
0
 40
1
 40
1
 40
1
 40
1
 10
18.823952
 20
37.375215
 30
0.0
 10
20.276024
 20
38.045164
 30
0.0
 10
21.249280
 20
38.237641
 30
0.0
 10
23.679999
 20
38.335574
 30
0.0
  0
SPLINE
  5
105
100
AcDbEntity
  8
Image
 62
7
100
AcDbSpline
 70
8
 71
3
 72
8
 73
4
 74
0
 40
0
 40
0
 40
0
 40
0
 40
1
 40
1
 40
1
 40
1
 10
23.679999
 20
38.335574
 30
0.0
 10
26.529024
 20
38.450358
 30
0.0
 10
26.830562
 20
38.400204
 30
0.0
 10
28.479999
 20
37.537267
 30
0.0
  0
SPLINE
  5
106
100
AcDbEntity
  8
Image
 62
7
100
AcDbSpline
 70
8
 71
3
 72
8
 73
4
 74
0
 40
0
 40
0
 40
0
 40
0
 40
1
 40
1
 40
1
 40
1
 10
28.479999
 20
37.537267
 30
0.0
 10
30.432149
 20
36.515951
 30
0.0
 10
31.932024
 20
34.618259
 30
0.0
 10
32.866417
 20
31.987417
 30
0.0
  0
SPLINE
  5
107
100
AcDbEntity
  8
Image
 62
7
100
AcDbSpline
 70
8
 71
3
 72
8
 73
4
 74
0
 40
0
 40
0
 40
0
 40
0
 40
1
 40
1
 40
1
 40
1
 10
32.866417
 20
31.987417
 30
0.0
 10
33.167684
 20
31.139175
 30
0.0
 10
33.527988
 20
30.515492
 30
0.0
 10
33.667089
 20
30.601463
 30
0.0
  0
SPLINE
  5
108
100
AcDbEntity
  8
Image
 62
7
100
AcDbSpline
 70
8
 71
3
 72
8
 73
4
 74
0
 40
0
 40
0
 40
0
 40
0
 40
1
 40
1
 40
1
 40
1
 10
33.667089
 20
30.601463
 30
0.0
 10
33.966343
 20
30.786410
 30
0.0
 10
34.003751
 20
42.490486
 30
0.0
 10
33.710749
 20
44.263737
 30
0.0
  0
SPLINE
  5
109
100
AcDbEntity
  8
Image
 62
7
100
AcDbSpline
 70
8
 71
3
 72
8
 73
4
 74
0
 40
0
 40
0
 40
0
 40
0
 40
1
 40
1
 40
1
 40
1
 10
31.874272
 20
45.223737
 30
0.0
 10
30.975419
 20
45.078677
 30
0.0
 10
29.149176
 20
44.960322
 30
0.0
 10
27.815954
 20
44.960719
 30
0.0
  0
SPLINE
  5
10a
100
AcDbEntity
  8
Image
 62
7
100
AcDbSpline
 70
8
 71
3
 72
8
 73
4
 74
0
 40
0
 40
0
 40
0
 40
0
 40
1
 40
1
 40
1
 40
1
 10
27.815954
 20
44.960719
 30
0.0
 10
23.073883
 20
44.962119
 30
0.0
 10
19.886657
 20
47.627503
 30
0.0
 10
19.581449
 20
51.846954
 30
0.0
  0
SPLINE
  5
10b
100
AcDbEntity
  8
Image
 62
7
100
AcDbSpline
 70
8
 71
3
 72
8
 73
4
 74
0
 40
0
 40
0
 40
0
 40
0
 40
1
 40
1
 40
1
 40
1
 10
19.581449
 20
51.846954
 30
0.0
 10
19.260380
 20
56.285692
 30
0.0
 10
22.102428
 20
58.862813
 30
0.0
 10
30.315259
 20
61.580189
 30
0.0
  0
SPLINE
  5
10c
100
AcDbEntity
  8
Image
 62
7
100
AcDbSpline
 70
8
 71
3
 72
8
 73
4
 74
0
 40
0
 40
0
 40
0
 40
0
 40
1
 40
1
 40
1
 40
1
 10
30.315259
 20
61.580189
 30
0.0
 10
33.796979
 20
62.732184
 30
0.0
 10
36.386745
 20
64.301118
 30
0.0
 10
37.197277
 20
65.749456
 30
0.0
  0
SPLINE
  5
10d
100
AcDbEntity
  8
Image
 62
7
100
AcDbSpline
 70
8
 71
3
 72
8
 73
4
 74
0
 40
0
 40
0
 40
0
 40
0
 40
1
 40
1
 40
1
 40
1
 10
37.197277
 20
65.749456
 30
0.0
 10
37.642829
 20
66.545615
 30
0.0
 10
38.226941
 20
66.322046
 30
0.0
 10
39.348896
 20
64.925925
 30
0.0
  0
SPLINE
  5
10e
100
AcDbEntity
  8
Image
 62
7
100
AcDbSpline
 70
8
 71
3
 72
8
 73
4
 74
0
 40
0
 40
0
 40
0
 40
0
 40
1
 40
1
 40
1
 40
1
 10
39.348896
 20
64.925925
 30
0.0
 10
41.398310
 20
62.375702
 30
0.0
 10
43.753068
 20
62.051781
 30
0.0
 10
46.079993
 20
63.999994
 30
0.0
  0
SPLINE
  5
10f
100
AcDbEntity
  8
Image
 62
7
100
AcDbSpline
 70
8
 71
3
 72
8
 73
4
 74
0
 40
0
 40
0
 40
0
 40
0
 40
1
 40
1
 40
1
 40
1
 10
46.079993
 20
63.999994
 30
0.0
 10
46.920844
 20
64.703994
 30
0.0
 10
47.768828
 20
65.279994
 30
0.0
 10
47.964403
 20
65.279994
 30
0.0
  0
SPLINE
  5
110
100
AcDbEntity
  8
Image
 62
7
100
AcDbSpline
 70
8
 71
3
 72
8
 73
4
 74
0
 40
0
 40
0
 40
0
 40
0
 40
1
 40
1
 40
1
 40
1
 10
47.964403
 20
65.279994
 30
0.0
 10
49.161788
 20
65.279994
 30
0.0
 10
47.334451
 20
61.996929
 30
0.0
 10
44.986940
 20
59.930566
 30
0.0
  0
SPLINE
  5
111
100
AcDbEntity
  8
Image
 62
7
100
AcDbSpline
 70
8
 71
3
 72
8
 73
4
 74
0
 40
0
 40
0
 40
0
 40
0
 40
1
 40
1
 40
1
 40
1
 10
44.986940
 20
59.930566
 30
0.0
 10
42.850960
 20
58.050401
 30
0.0
 10
41.162816
 20
57.324405
 30
0.0
 10
37.967897
 20
56.911982
 30
0.0
  0
LWPOLYLINE
  5
112
100
AcDbEntity
  8
Image
 62
7
100
AcDbPolyline
 90
3
 70
0
 10
33.710749
 20
44.263737
 30
0.0
 10
33.508550
 20
45.487474
 30
0.0
 10
31.874272
 20
45.223737
 30
0.0
  0
SPLINE
  5
113
100
AcDbEntity
  8
Image
 62
7
100
AcDbSpline
 70
8
 71
3
 72
8
 73
4
 74
0
 40
0
 40
0
 40
0
 40
0
 40
1
 40
1
 40
1
 40
1
 10
35.199993
 20
52.277339
 30
0.0
 10
35.199993
 20
47.472271
 30
0.0
 10
35.042128
 20
47.702210
 30
0.0
 10
37.781913
 20
48.516687
 30
0.0
  0
SPLINE
  5
114
100
AcDbEntity
  8
Image
 62
7
100
AcDbSpline
 70
8
 71
3
 72
8
 73
4
 74
0
 40
0
 40
0
 40
0
 40
0
 40
1
 40
1
 40
1
 40
1
 10
37.781913
 20
48.516687
 30
0.0
 10
39.929456
 20
49.155103
 30
0.0
 10
42.584563
 20
48.966972
 30
0.0
 10
44.384188
 20
48.048873
 30
0.0
  0
SPLINE
  5
115
100
AcDbEntity
  8
Image
 62
7
100
AcDbSpline
 70
8
 71
3
 72
8
 73
4
 74
0
 40
0
 40
0
 40
0
 40
0
 40
1
 40
1
 40
1
 40
1
 10
44.384188
 20
48.048873
 30
0.0
 10
47.394076
 20
46.513343
 30
0.0
 10
49.599993
 20
42.491039
 30
0.0
 10
49.599993
 20
38.538294
 30
0.0
  0
SPLINE
  5
116
100
AcDbEntity
  8
Image
 62
7
100
AcDbSpline
 70
8
 71
3
 72
8
 73
4
 74
0
 40
0
 40
0
 40
0
 40
0
 40
1
 40
1
 40
1
 40
1
 10
49.599993
 20
38.538294
 30
0.0
 10
49.599993
 20
32.235404
 30
0.0
 10
43.120928
 20
26.806660
 30
0.0
 10
35.039993
 20
26.338615
 30
0.0
  0
SPLINE
  5
117
100
AcDbEntity
  8
Image
 62
7
100
AcDbSpline
 70
8
 71
3
 72
8
 73
4
 74
0
 40
0
 40
0
 40
0
 40
0
 40
1
 40
1
 40
1
 40
1
 10
35.039993
 20
26.338615
 30
0.0
 10
29.682708
 20
26.028321
 30
0.0
 10
25.896604
 20
27.457722
 30
0.0
 10
22.832978
 20
30.947239
 30
0.0
  0
SPLINE
  5
118
100
AcDbEntity
  8
Image
 62
7
100
AcDbSpline
 70
8
 71
3
 72
8
 73
4
 74
0
 40
0
 40
0
 40
0
 40
0
 40
1
 40
1
 40
1
 40
1
 10
22.832978
 20
30.947239
 30
0.0
 10
21.850855
 20
32.065891
 30
0.0
 10
20.638808
 20
33.192393
 30
0.0
 10
20.139539
 20
33.450576
 30
0.0
  0
SPLINE
  5
119
100
AcDbEntity
  8
Image
 62
7
100
AcDbSpline
 70
8
 71
3
 72
8
 73
4
 74
0
 40
0
 40
0
 40
0
 40
0
 40
1
 40
1
 40
1
 40
1
 10
20.139539
 20
33.450576
 30
0.0
 10
17.962552
 20
34.576339
 30
0.0
 10
15.890735
 20
33.628579
 30
0.0
 10
14.553408
 20
30.895185
 30
0.0
  0
SPLINE
  5
11a
100
AcDbEntity
  8
Image
 62
7
100
AcDbSpline
 70
8
 71
3
 72
8
 73
4
 74
0
 40
0
 40
0
 40
0
 40
0
 40
1
 40
1
 40
1
 40
1
 10
14.553408
 20
30.895185
 30
0.0
 10
13.793828
 20
29.342660
 30
0.0
 10
13.697191
 20
28.832334
 30
0.0
 10
13.847946
 20
27.169774
 30
0.0
  0
SPLINE
  5
11b
100
AcDbEntity
  8
Image
 62
7
100
AcDbSpline
 70
8
 71
3
 72
8
 73
4
 74
0
 40
0
 40
0
 40
0
 40
0
 40
1
 40
1
 40
1
 40
1
 10
13.847946
 20
27.169774
 30
0.0
 10
14.047142
 20
24.973012
 30
0.0
 10
14.813885
 20
23.631204
 30
0.0
 10
16.606144
 20
22.342904
 30
0.0
  0
SPLINE
  5
11c
100
AcDbEntity
  8
Image
 62
7
100
AcDbSpline
 70
8
 71
3
 72
8
 73
4
 74
0
 40
0
 40
0
 40
0
 40
0
 40
1
 40
1
 40
1
 40
1
 10
16.606144
 20
22.342904
 30
0.0
 10
18.803988
 20
20.763067
 30
0.0
 10
20.822799
 20
20.319028
 30
0.0
 10
25.759995
 20
20.329512
 30
0.0
  0
SPLINE
  5
11d
100
AcDbEntity
  8
Image
 62
7
100
AcDbSpline
 70
8
 71
3
 72
8
 73
4
 74
0
 40
0
 40
0
 40
0
 40
0
 40
1
 40
1
 40
1
 40
1
 10
25.759995
 20
20.329512
 30
0.0
 10
30.793773
 20
20.340202
 30
0.0
 10
32.407321
 20
20.768862
 30
0.0
 10
35.549321
 20
22.930177
 30
0.0
  0
SPLINE
  5
11e
100
AcDbEntity
  8
Image
 62
7
100
AcDbSpline
 70
8
 71
3
 72
8
 73
4
 74
0
 40
0
 40
0
 40
0
 40
0
 40
1
 40
1
 40
1
 40
1
 10
35.549321
 20
22.930177
 30
0.0
 10
37.355072
 20
24.172318
 30
0.0
 10
38.175187
 20
24.045777
 30
0.0
 10
37.527795
 20
22.624913
 30
0.0
  0
SPLINE
  5
11f
100
AcDbEntity
  8
Image
 62
7
100
AcDbSpline
 70
8
 71
3
 72
8
 73
4
 74
0
 40
0
 40
0
 40
0
 40
0
 40
1
 40
1
 40
1
 40
1
 10
37.527795
 20
22.624913
 30
0.0
 10
37.056227
 20
21.589934
 30
0.0
 10
33.208653
 20
19.028366
 30
0.0
 10
30.879994
 20
18.199064
 30
0.0
  0
SPLINE
  5
120
100
AcDbEntity
  8
Image
 62
7
100
AcDbSpline
 70
8
 71
3
 72
8
 73
4
 74
0
 40
0
 40
0
 40
0
 40
0
 40
1
 40
1
 40
1
 40
1
 10
30.879994
 20
18.199064
 30
0.0
 10
28.419347
 20
17.322753
 30
0.0
 10
23.686536
 20
17.108062
 30
0.0
 10
20.880364
 20
17.745454
 30
0.0
  0
LWPOLYLINE
  5
121
100
AcDbEntity
  8
Image
 62
7
100
AcDbPolyline
 90
3
 70
0
 10
37.967897
 20
56.911982
 30
0.0
 10
35.199993
 20
56.554681
 30
0.0
 10
35.199993
 20
52.277339
 30
0.0
  0
SPLINE
  5
122
100
AcDbEntity
  8
Image
 62
7
100
AcDbSpline
 70
8
 71
3
 72
8
 73
4
 74
0
 40
0
 40
0
 40
0
 40
0
 40
1
 40
1
 40
1
 40
1
 10
31.286647
 20
19.338430
 30
0.0
 10
32.390305
 20
19.841646
 30
0.0
 10
33.247585
 20
20.299076
 30
0.0
 10
33.191716
 20
20.354948
 30
0.0
  0
SPLINE
  5
123
100
AcDbEntity
  8
Image
 62
7
100
AcDbSpline
 70
8
 71
3
 72
8
 73
4
 74
0
 40
0
 40
0
 40
0
 40
0
 40
1
 40
1
 40
1
 40
1
 10
33.191716
 20
20.354948
 30
0.0
 10
33.135846
 20
20.410818
 30
0.0
 10
32.376852
 20
20.224011
 30
0.0
 10
31.505066
 20
19.939822
 30
0.0
  0
SPLINE
  5
124
100
AcDbEntity
  8
Image
 62
7
100
AcDbSpline
 70
8
 71
3
 72
8
 73
4
 74
0
 40
0
 40
0
 40
0
 40
0
 40
1
 40
1
 40
1
 40
1
 10
31.505066
 20
19.939822
 30
0.0
 10
29.517199
 20
19.291809
 30
0.0
 10
22.692992
 20
19.216267
 30
0.0
 10
20.159999
 20
19.814235
 30
0.0
  0
SPLINE
  5
125
100
AcDbEntity
  8
Image
 62
7
100
AcDbSpline
 70
8
 71
3
 72
8
 73
4
 74
0
 40
0
 40
0
 40
0
 40
0
 40
1
 40
1
 40
1
 40
1
 10
20.159999
 20
19.814235
 30
0.0
 10
19.191999
 20
20.042750
 30
0.0
 10
17.607999
 20
20.665185
 30
0.0
 10
16.639999
 20
21.197422
 30
0.0
  0
SPLINE
  5
126
100
AcDbEntity
  8
Image
 62
7
100
AcDbSpline
 70
8
 71
3
 72
8
 73
4
 74
0
 40
0
 40
0
 40
0
 40
0
 40
1
 40
1
 40
1
 40
1
 10
16.639999
 20
21.197422
 30
0.0
 10
15.265210
 20
21.953323
 30
0.0
 10
15.006476
 20
22.023403
 30
0.0
 10
15.457864
 20
21.517624
 30
0.0
  0
SPLINE
  5
127
100
AcDbEntity
  8
Image
 62
7
100
AcDbSpline
 70
8
 71
3
 72
8
 73
4
 74
0
 40
0
 40
0
 40
0
 40
0
 40
1
 40
1
 40
1
 40
1
 10
15.457864
 20
21.517624
 30
0.0
 10
16.213098
 20
20.671380
 30
0.0
 10
19.419675
 20
18.970795
 30
0.0
 10
20.997675
 20
18.579624
 30
0.0
  0
SPLINE
  5
128
100
AcDbEntity
  8
Image
 62
7
100
AcDbSpline
 70
8
 71
3
 72
8
 73
4
 74
0
 40
0
 40
0
 40
0
 40
0
 40
1
 40
1
 40
1
 40
1
 10
20.997675
 20
18.579624
 30
0.0
 10
21.680953
 20
18.410245
 30
0.0
 10
23.823999
 20
18.305825
 30
0.0
 10
25.759999
 20
18.347579
 30
0.0
  0
SPLINE
  5
129
100
AcDbEntity
  8
Image
 62
7
100
AcDbSpline
 70
8
 71
3
 72
8
 73
4
 74
0
 40
0
 40
0
 40
0
 40
0
 40
1
 40
1
 40
1
 40
1
 10
25.759999
 20
18.347579
 30
0.0
 10
28.858216
 20
18.414399
 30
0.0
 10
29.520445
 20
18.533125
 30
0.0
 10
31.286647
 20
19.338430
 30
0.0
  0
LWPOLYLINE
  5
12a
100
AcDbEntity
  8
Image
 62
7
100
AcDbPolyline
 90
1
 70
1
 10
20.880364
 20
17.745454
 30
0.0
  0
SPLINE
  5
12b
100
AcDbEntity
  8
Image
 62
7
100
AcDbSpline
 70
8
 71
3
 72
8
 73
4
 74
0
 40
0
 40
0
 40
0
 40
0
 40
1
 40
1
 40
1
 40
1
 10
34.649293
 20
27.942577
 30
0.0
 10
34.555333
 20
28.434097
 30
0.0
 10
34.291946
 20
28.677524
 30
0.0
 10
33.870257
 20
28.662577
 30
0.0
  0
SPLINE
  5
12c
100
AcDbEntity
  8
Image
 62
7
100
AcDbSpline
 70
8
 71
3
 72
8
 73
4
 74
0
 40
0
 40
0
 40
0
 40
0
 40
1
 40
1
 40
1
 40
1
 10
33.870257
 20
28.662577
 30
0.0
 10
33.362177
 20
28.644557
 30
0.0
 10
33.014657
 20
29.190778
 30
0.0
 10
32.154052
 20
31.359998
 30
0.0
  0
SPLINE
  5
12d
100
AcDbEntity
  8
Image
 62
7
100
AcDbSpline
 70
8
 71
3
 72
8
 73
4
 74
0
 40
0
 40
0
 40
0
 40
0
 40
1
 40
1
 40
1
 40
1
 10
32.154052
 20
31.359998
 30
0.0
 10
29.718157
 20
37.499855
 30
0.0
 10
24.907251
 20
39.291663
 30
0.0
 10
18.911544
 20
36.292134
 30
0.0
  0
SPLINE
  5
12e
100
AcDbEntity
  8
Image
 62
7
100
AcDbSpline
 70
8
 71
3
 72
8
 73
4
 74
0
 40
0
 40
0
 40
0
 40
0
 40
1
 40
1
 40
1
 40
1
 10
18.911544
 20
36.292134
 30
0.0
 10
16.168684
 20
34.919936
 30
0.0
 10
15.403710
 20
34.169753
 30
0.0
 10
17.249778
 20
34.662499
 30
0.0
  0
SPLINE
  5
12f
100
AcDbEntity
  8
Image
 62
7
100
AcDbSpline
 70
8
 71
3
 72
8
 73
4
 74
0
 40
0
 40
0
 40
0
 40
0
 40
1
 40
1
 40
1
 40
1
 10
17.249778
 20
34.662499
 30
0.0
 10
19.364615
 20
35.226979
 30
0.0
 10
20.656146
 20
34.609689
 30
0.0
 10
23.437125
 20
31.705219
 30
0.0
  0
SPLINE
  5
130
100
AcDbEntity
  8
Image
 62
7
100
AcDbSpline
 70
8
 71
3
 72
8
 73
4
 74
0
 40
0
 40
0
 40
0
 40
0
 40
1
 40
1
 40
1
 40
1
 10
23.437125
 20
31.705219
 30
0.0
 10
26.737190
 20
28.258618
 30
0.0
 10
28.774918
 20
27.288026
 30
0.0
 10
32.835623
 20
27.228612
 30
0.0
  0
SPLINE
  5
131
100
AcDbEntity
  8
Image
 62
7
100
AcDbSpline
 70
8
 71
3
 72
8
 73
4
 74
0
 40
0
 40
0
 40
0
 40
0
 40
1
 40
1
 40
1
 40
1
 10
32.835623
 20
27.228612
 30
0.0
 10
34.714929
 20
27.201122
 30
0.0
 10
34.785706
 20
27.228932
 30
0.0
 10
34.649293
 20
27.942577
 30
0.0
  0
LWPOLYLINE
  5
132
100
AcDbEntity
  8
Image
 62
7
100
AcDbPolyline
 90
1
 70
1
 10
31.286647
 20
19.338430
 30
0.0
  0
SPLINE
  5
133
100
AcDbEntity
  8
Image
 62
7
100
AcDbSpline
 70
8
 71
3
 72
8
 73
4
 74
0
 40
0
 40
0
 40
0
 40
0
 40
1
 40
1
 40
1
 40
1
 10
37.743117
 20
28.311268
 30
0.0
 10
38.272225
 20
28.584881
 30
0.0
 10
38.970180
 20
29.423713
 30
0.0
 10
39.407226
 20
30.311268
 30
0.0
  0
SPLINE
  5
134
100
AcDbEntity
  8
Image
 62
7
100
AcDbSpline
 70
8
 71
3
 72
8
 73
4
 74
0
 40
0
 40
0
 40
0
 40
0
 40
1
 40
1
 40
1
 40
1
 10
39.407226
 20
30.311268
 30
0.0
 10
40.063181
 20
31.643382
 30
0.0
 10
40.174161
 20
32.402620
 30
0.0
 10
40.270106
 20
36.214527
 30
0.0
  0
SPLINE
  5
135
100
AcDbEntity
  8
Image
 62
7
100
AcDbSpline
 70
8
 71
3
 72
8
 73
4
 74
0
 40
0
 40
0
 40
0
 40
0
 40
1
 40
1
 40
1
 40
1
 10
40.270106
 20
36.214527
 30
0.0
 10
40.397143
 20
41.261487
 30
0.0
 10
39.939261
 20
43.472210
 30
0.0
 10
38.432916
 20
45.084757
 30
0.0
  0
SPLINE
  5
136
100
AcDbEntity
  8
Image
 62
7
100
AcDbSpline
 70
8
 71
3
 72
8
 73
4
 74
0
 40
0
 40
0
 40
0
 40
0
 40
1
 40
1
 40
1
 40
1
 10
38.432916
 20
45.084757
 30
0.0
 10
37.465479
 20
46.120402
 30
0.0
 10
36.265796
 20
46.377794
 30
0.0
 10
35.583997
 20
45.695996
 30
0.0
  0
SPLINE
  5
137
100
AcDbEntity
  8
Image
 62
7
100
AcDbSpline
 70
8
 71
3
 72
8
 73
4
 74
0
 40
0
 40
0
 40
0
 40
0
 40
1
 40
1
 40
1
 40
1
 10
35.583997
 20
45.695996
 30
0.0
 10
35.304554
 20
45.416553
 30
0.0
 10
35.199997
 20
42.991404
 30
0.0
 10
35.199997
 20
36.789331
 30
0.0
  0
SPLINE
  5
138
100
AcDbEntity
  8
Image
 62
7
100
AcDbSpline
 70
8
 71
3
 72
8
 73
4
 74
0
 40
0
 40
0
 40
0
 40
0
 40
1
 40
1
 40
1
 40
1
 10
35.199997
 20
36.789331
 30
0.0
 10
35.199997
 20
32.101862
 30
0.0
 10
35.295997
 20
28.170663
 30
0.0
 10
35.413332
 20
28.053332
 30
0.0
  0
SPLINE
  5
139
100
AcDbEntity
  8
Image
 62
7
100
AcDbSpline
 70
8
 71
3
 72
8
 73
4
 74
0
 40
0
 40
0
 40
0
 40
0
 40
1
 40
1
 40
1
 40
1
 10
35.413332
 20
28.053332
 30
0.0
 10
35.766839
 20
27.699822
 30
0.0
 10
36.776973
 20
27.811658
 30
0.0
 10
37.743117
 20
28.311268
 30
0.0
  0
LWPOLYLINE
  5
13a
100
AcDbEntity
  8
Image
 62
7
100
AcDbPolyline
 90
1
 70
1
 10
34.649293
 20
27.942577
 30
0.0
  0
SPLINE
  5
13b
100
AcDbEntity
  8
Image
 62
7
100
AcDbSpline
 70
8
 71
3
 72
8
 73
4
 74
0
 40
0
 40
0
 40
0
 40
0
 40
1
 40
1
 40
1
 40
1
 10
42.273245
 20
29.296846
 30
0.0
 10
44.404788
 20
30.376980
 30
0.0
 10
47.017812
 20
32.996672
 30
0.0
 10
47.944695
 20
34.982771
 30
0.0
  0
SPLINE
  5
13c
100
AcDbEntity
  8
Image
 62
7
100
AcDbSpline
 70
8
 71
3
 72
8
 73
4
 74
0
 40
0
 40
0
 40
0
 40
0
 40
1
 40
1
 40
1
 40
1
 10
47.944695
 20
34.982771
 30
0.0
 10
48.692736
 20
36.585654
 30
0.0
 10
48.905389
 20
39.009206
 30
0.0
 10
48.473271
 20
41.006876
 30
0.0
  0
SPLINE
  5
13d
100
AcDbEntity
  8
Image
 62
7
100
AcDbSpline
 70
8
 71
3
 72
8
 73
4
 74
0
 40
0
 40
0
 40
0
 40
0
 40
1
 40
1
 40
1
 40
1
 10
48.473271
 20
41.006876
 30
0.0
 10
47.847767
 20
43.898556
 30
0.0
 10
45.368004
 20
46.911685
 30
0.0
 10
42.959530
 20
47.706553
 30
0.0
  0
SPLINE
  5
13e
100
AcDbEntity
  8
Image
 62
7
100
AcDbSpline
 70
8
 71
3
 72
8
 73
4
 74
0
 40
0
 40
0
 40
0
 40
0
 40
1
 40
1
 40
1
 40
1
 10
42.959530
 20
47.706553
 30
0.0
 10
41.915258
 20
48.051193
 30
0.0
 10
41.354269
 20
48.030943
 30
0.0
 10
36.334903
 20
47.467407
 30
0.0
  0
SPLINE
  5
13f
100
AcDbEntity
  8
Image
 62
7
100
AcDbSpline
 70
8
 71
3
 72
8
 73
4
 74
0
 40
0
 40
0
 40
0
 40
0
 40
1
 40
1
 40
1
 40
1
 10
36.334903
 20
47.467407
 30
0.0
 10
35.463101
 20
47.369527
 30
0.0
 10
34.416061
 20
47.070767
 30
0.0
 10
34.008151
 20
46.803493
 30
0.0
  0
SPLINE
  5
140
100
AcDbEntity
  8
Image
 62
7
100
AcDbSpline
 70
8
 71
3
 72
8
 73
4
 74
0
 40
0
 40
0
 40
0
 40
0
 40
1
 40
1
 40
1
 40
1
 10
34.008151
 20
46.803493
 30
0.0
 10
32.932298
 20
46.098569
 30
0.0
 10
30.872562
 20
46.454092
 30
0.0
 10
29.738666
 20
47.540434
 30
0.0
  0
SPLINE
  5
141
100
AcDbEntity
  8
Image
 62
7
100
AcDbSpline
 70
8
 71
3
 72
8
 73
4
 74
0
 40
0
 40
0
 40
0
 40
0
 40
1
 40
1
 40
1
 40
1
 10
29.738666
 20
47.540434
 30
0.0
 10
28.483886
 20
48.742588
 30
0.0
 10
27.839999
 20
50.853890
 30
0.0
 10
27.839999
 20
53.766141
 30
0.0
  0
SPLINE
  5
142
100
AcDbEntity
  8
Image
 62
7
100
AcDbSpline
 70
8
 71
3
 72
8
 73
4
 74
0
 40
0
 40
0
 40
0
 40
0
 40
1
 40
1
 40
1
 40
1
 10
27.839999
 20
53.766141
 30
0.0
 10
27.839999
 20
56.453072
 30
0.0
 10
28.436579
 20
58.908027
 30
0.0
 10
29.329232
 20
59.894396
 30
0.0
  0
SPLINE
  5
143
100
AcDbEntity
  8
Image
 62
7
100
AcDbSpline
 70
8
 71
3
 72
8
 73
4
 74
0
 40
0
 40
0
 40
0
 40
0
 40
1
 40
1
 40
1
 40
1
 10
29.329232
 20
59.894396
 30
0.0
 10
29.851237
 20
60.471206
 30
0.0
 10
29.701977
 20
60.453200
 30
0.0
 10
27.671443
 20
59.694415
 30
0.0
  0
SPLINE
  5
144
100
AcDbEntity
  8
Image
 62
7
100
AcDbSpline
 70
8
 71
3
 72
8
 73
4
 74
0
 40
0
 40
0
 40
0
 40
0
 40
1
 40
1
 40
1
 40
1
 10
27.671443
 20
59.694415
 30
0.0
 10
22.901779
 20
57.912050
 30
0.0
 10
20.479999
 20
55.386891
 30
0.0
 10
20.479999
 20
52.195990
 30
0.0
  0
SPLINE
  5
145
100
AcDbEntity
  8
Image
 62
7
100
AcDbSpline
 70
8
 71
3
 72
8
 73
4
 74
0
 40
0
 40
0
 40
0
 40
0
 40
1
 40
1
 40
1
 40
1
 10
20.479999
 20
52.195990
 30
0.0
 10
20.479999
 20
50.160709
 30
0.0
 10
21.022867
 20
49.046914
 30
0.0
 10
22.725003
 20
47.589951
 30
0.0
  0
SPLINE
  5
146
100
AcDbEntity
  8
Image
 62
7
100
AcDbSpline
 70
8
 71
3
 72
8
 73
4
 74
0
 40
0
 40
0
 40
0
 40
0
 40
1
 40
1
 40
1
 40
1
 10
22.725003
 20
47.589951
 30
0.0
 10
24.617990
 20
45.969625
 30
0.0
 10
26.163018
 20
45.638463
 30
0.0
 10
30.550596
 20
45.912607
 30
0.0
  0
SPLINE
  5
147
100
AcDbEntity
  8
Image
 62
7
100
AcDbSpline
 70
8
 71
3
 72
8
 73
4
 74
0
 40
0
 40
0
 40
0
 40
0
 40
1
 40
1
 40
1
 40
1
 10
30.550596
 20
45.912607
 30
0.0
 10
33.544567
 20
46.099679
 30
0.0
 10
34.241831
 20
46.061785
 30
0.0
 10
34.249729
 20
45.711564
 30
0.0
  0
SPLINE
  5
148
100
AcDbEntity
  8
Image
 62
7
100
AcDbSpline
 70
8
 71
3
 72
8
 73
4
 74
0
 40
0
 40
0
 40
0
 40
0
 40
1
 40
1
 40
1
 40
1
 10
34.249729
 20
45.711564
 30
0.0
 10
34.255329
 20
45.464652
 30
0.0
 10
34.414743
 20
45.553836
 30
0.0
 10
34.622381
 20
45.919996
 30
0.0
  0
SPLINE
  5
149
100
AcDbEntity
  8
Image
 62
7
100
AcDbSpline
 70
8
 71
3
 72
8
 73
4
 74
0
 40
0
 40
0
 40
0
 40
0
 40
1
 40
1
 40
1
 40
1
 10
34.622381
 20
45.919996
 30
0.0
 10
35.186321
 20
46.914485
 30
0.0
 10
35.581658
 20
47.076732
 30
0.0
 10
36.951639
 20
46.875919
 30
0.0
  0
SPLINE
  5
14a
100
AcDbEntity
  8
Image
 62
7
100
AcDbSpline
 70
8
 71
3
 72
8
 73
4
 74
0
 40
0
 40
0
 40
0
 40
0
 40
1
 40
1
 40
1
 40
1
 10
36.951639
 20
46.875919
 30
0.0
 10
38.448010
 20
46.656578
 30
0.0
 10
39.178692
 20
46.065893
 30
0.0
 10
40.113319
 20
44.319996
 30
0.0
  0
SPLINE
  5
14b
100
AcDbEntity
  8
Image
 62
7
100
AcDbSpline
 70
8
 71
3
 72
8
 73
4
 74
0
 40
0
 40
0
 40
0
 40
0
 40
1
 40
1
 40
1
 40
1
 10
40.113319
 20
44.319996
 30
0.0
 10
40.727121
 20
43.173404
 30
0.0
 10
40.809178
 20
42.439660
 30
0.0
 10
40.900602
 20
37.279996
 30
0.0
  0
LWPOLYLINE
  5
14c
100
AcDbEntity
  8
Image
 62
7
100
AcDbPolyline
 90
1
 70
1
 10
37.743117
 20
28.311268
 30
0.0
  0
SPLINE
  5
14d
100
AcDbEntity
  8
Image
 62
7
100
AcDbSpline
 70
8
 71
3
 72
8
 73
4
 74
0
 40
0
 40
0
 40
0
 40
0
 40
1
 40
1
 40
1
 40
1
 10
40.087511
 20
29.713079
 30
0.0
 10
39.039463
 20
27.643777
 30
0.0
 10
39.018826
 20
27.647706
 30
0.0
 10
42.273245
 20
29.296846
 30
0.0
  0
LWPOLYLINE
  5
14e
100
AcDbEntity
  8
Image
 62
7
100
AcDbPolyline
 90
3
 70
0
 10
40.900602
 20
37.279996
 30
0.0
 10
41.002666
 20
31.519996
 30
0.0
 10
40.087511
 20
29.713079
 30
0.0
  0
LWPOLYLINE
  5
14f
100
AcDbEntity
  8
Image
 62
7
100
AcDbPolyline
 90
1
 70
1
 10
42.273245
 20
29.296846
 30
0.0
  0
SPLINE
  5
150
100
AcDbEntity
  8
Image
 62
7
100
AcDbSpline
 70
8
 71
3
 72
8
 73
4
 74
0
 40
0
 40
0
 40
0
 40
0
 40
1
 40
1
 40
1
 40
1
 10
32.297764
 20
58.702013
 30
0.0
 10
31.581533
 20
59.349083
 30
0.0
 10
30.825534
 20
59.827374
 30
0.0
 10
30.617764
 20
59.764881
 30
0.0
  0
SPLINE
  5
151
100
AcDbEntity
  8
Image
 62
7
100
AcDbSpline
 70
8
 71
3
 72
8
 73
4
 74
0
 40
0
 40
0
 40
0
 40
0
 40
1
 40
1
 40
1
 40
1
 10
30.617764
 20
59.764881
 30
0.0
 10
30.409993
 20
59.702391
 30
0.0
 10
29.917410
 20
59.008351
 30
0.0
 10
29.523135
 20
58.222576
 30
0.0
  0
SPLINE
  5
152
100
AcDbEntity
  8
Image
 62
7
100
AcDbSpline
 70
8
 71
3
 72
8
 73
4
 74
0
 40
0
 40
0
 40
0
 40
0
 40
1
 40
1
 40
1
 40
1
 10
29.523135
 20
58.222576
 30
0.0
 10
27.335135
 20
53.861975
 30
0.0
 10
29.090281
 20
47.359996
 30
0.0
 10
32.455383
 20
47.359996
 30
0.0
  0
LWPOLYLINE
  5
153
100
AcDbEntity
  8
Image
 62
7
100
AcDbPolyline
 90
3
 70
0
 10
33.599997
 20
52.442759
 30
0.0
 10
33.599997
 20
57.525522
 30
0.0
 10
32.297764
 20
58.702013
 30
0.0
  0
SPLINE
  5
154
100
AcDbEntity
  8
Image
 62
7
100
AcDbSpline
 70
8
 71
3
 72
8
 73
4
 74
0
 40
0
 40
0
 40
0
 40
0
 40
1
 40
1
 40
1
 40
1
 10
41.337805
 20
58.636012
 30
0.0
 10
42.274010
 20
59.066802
 30
0.0
 10
43.747213
 20
60.062233
 30
0.0
 10
44.611584
 20
60.848081
 30
0.0
  0
LWPOLYLINE
  5
155
100
AcDbEntity
  8
Image
 62
7
100
AcDbPolyline
 90
3
 70
0
 10
32.455383
 20
47.359996
 30
0.0
 10
33.599997
 20
47.359996
 30
0.0
 10
33.599997
 20
52.442759
 30
0.0
  0
SPLINE
  5
156
100
AcDbEntity
  8
Image
 62
7
100
AcDbSpline
 70
8
 71
3
 72
8
 73
4
 74
0
 40
0
 40
0
 40
0
 40
0
 40
1
 40
1
 40
1
 40
1
 10
44.048356
 20
62.140960
 30
0.0
 10
41.506141
 20
61.979084
 30
0.0
 10
40.364858
 20
62.379952
 30
0.0
 10
39.025745
 20
63.905117
 30
0.0
  0
LWPOLYLINE
  5
157
100
AcDbEntity
  8
Image
 62
7
100
AcDbPolyline
 90
3
 70
0
 10
44.611584
 20
60.848081
 30
0.0
 10
46.183172
 20
62.276895
 30
0.0
 10
44.048356
 20
62.140960
 30
0.0
  0
SPLINE
  5
158
100
AcDbEntity
  8
Image
 62
7
100
AcDbSpline
 70
8
 71
3
 72
8
 73
4
 74
0
 40
0
 40
0
 40
0
 40
0
 40
1
 40
1
 40
1
 40
1
 10
36.806333
 20
63.883787
 30
0.0
 10
35.395837
 20
62.609488
 30
0.0
 10
34.196065
 20
61.935301
 30
0.0
 10
31.856405
 20
61.102272
 30
0.0
  0
SPLINE
  5
159
100
AcDbEntity
  8
Image
 62
7
100
AcDbSpline
 70
8
 71
3
 72
8
 73
4
 74
0
 40
0
 40
0
 40
0
 40
0
 40
1
 40
1
 40
1
 40
1
 10
31.856405
 20
61.102272
 30
0.0
 10
30.813333
 20
60.730890
 30
0.0
 10
30.499976
 20
60.518463
 30
0.0
 10
30.972956
 20
60.503375
 30
0.0
  0
SPLINE
  5
15a
100
AcDbEntity
  8
Image
 62
7
100
AcDbSpline
 70
8
 71
3
 72
8
 73
4
 74
0
 40
0
 40
0
 40
0
 40
0
 40
1
 40
1
 40
1
 40
1
 10
30.972956
 20
60.503375
 30
0.0
 10
31.906986
 20
60.473575
 30
0.0
 10
33.537380
 20
59.280589
 30
0.0
 10
34.085245
 20
58.226054
 30
0.0
  0
SPLINE
  5
15b
100
AcDbEntity
  8
Image
 62
7
100
AcDbSpline
 70
8
 71
3
 72
8
 73
4
 74
0
 40
0
 40
0
 40
0
 40
0
 40
1
 40
1
 40
1
 40
1
 10
34.085245
 20
58.226054
 30
0.0
 10
34.500903
 20
57.425985
 30
0.0
 10
34.551799
 20
57.415869
 30
0.0
 10
37.071863
 20
57.632436
 30
0.0
  0
SPLINE
  5
15c
100
AcDbEntity
  8
Image
 62
7
100
AcDbSpline
 70
8
 71
3
 72
8
 73
4
 74
0
 40
0
 40
0
 40
0
 40
0
 40
1
 40
1
 40
1
 40
1
 10
37.071863
 20
57.632436
 30
0.0
 10
38.725341
 20
57.774532
 30
0.0
 10
40.239985
 20
58.130857
 30
0.0
 10
41.337805
 20
58.636012
 30
0.0
  0
LWPOLYLINE
  5
15d
100
AcDbEntity
  8
Image
 62
7
100
AcDbPolyline
 90
3
 70
0
 10
39.025745
 20
63.905117
 30
0.0
 10
38.054439
 20
65.011374
 30
0.0
 10
36.806333
 20
63.883787
 30
0.0
  0
LWPOLYLINE
  5
15e
100
AcDbEntity
  8
Image
 62
7
100
AcDbPolyline
 90
1
 70
1
 10
41.337805
 20
58.636012
 30
0.0
  0
ENDSEC
  0
SECTION
  2
OBJECTS
  0
DICTIONARY
  5
C
330
0
100
AcDbDictionary
  3
ACAD_GROUP
350
D
  3
ACAD_MLINESTYLE
350
17
  0
DICTIONARY
  5
D
330
C
100
AcDbDictionary
  0
DICTIONARY
  5
1A
330
C
100
AcDbDictionary
  0
DICTIONARY
  5
17
330
C
100
AcDbDictionary
  3
STANDARD
350
18
  0
DICTIONARY
  5
19
330
C
100
AcDbDictionary
  0
ENDSEC
  0
EOF
