<?xml version="1.0" encoding="UTF-8" standalone="no"?>
<!-- Created with Inkscape (http://www.inkscape.org/) -->

<svg
   version="1.1"
   id="svg4594"
   width="61.439999"
   height="83.839996"
   viewBox="0 0 61.439999 83.839996"
   sodipodi:docname="s.svg"
   inkscape:version="1.1 (c68e22c387, 2021-05-23)"
   xmlns:inkscape="http://www.inkscape.org/namespaces/inkscape"
   xmlns:sodipodi="http://sodipodi.sourceforge.net/DTD/sodipodi-0.dtd"
   xmlns="http://www.w3.org/2000/svg"
   xmlns:svg="http://www.w3.org/2000/svg">
  <defs
     id="defs4598" />
  <sodipodi:namedview
     id="namedview4596"
     pagecolor="#ffffff"
     bordercolor="#666666"
     borderopacity="1.0"
     inkscape:pageshadow="2"
     inkscape:pageopacity="0.0"
     inkscape:pagecheckerboard="0"
     showgrid="false"
     inkscape:zoom="8.9813935"
     inkscape:cx="30.674527"
     inkscape:cy="41.919998"
     inkscape:window-width="3840"
     inkscape:window-height="2097"
     inkscape:window-x="-8"
     inkscape:window-y="-8"
     inkscape:window-maximized="1"
     inkscape:current-layer="g4600" />
  <g
     inkscape:groupmode="layer"
     inkscape:label="Image"
     id="g4600">
    <path
       style="fill:#000000;stroke-width:0.32"
       d="m 20.880369,66.094541 c -3.716367,-0.844138 -6.217403,-2.664493 -7.83611,-5.70344 -0.592116,-1.111635 -0.720076,-1.861552 -0.721964,-4.231104 -0.002,-2.588588 0.09257,-3.051232 0.93525,-4.572287 1.197068,-2.160733 3.258913,-4.058311 5.566408,-5.122931 1.452072,-0.669949 2.425328,-0.862426 4.856047,-0.960359 2.849025,-0.114784 3.150563,-0.06463 4.8,0.798307 1.95215,1.021316 3.452026,2.919008 4.386419,5.54985 0.301267,0.848243 0.661571,1.471926 0.800672,1.385955 0.299254,-0.184947 0.336662,-11.889024 0.04366,-13.662275 l -0.202199,-1.223737 -1.634278,0.263737 c -0.898854,0.14506 -2.725097,0.263415 -4.058319,0.263018 -4.742071,-0.0014 -7.929297,-2.666784 -8.234505,-6.886235 -0.321069,-4.438739 2.520979,-7.01586 10.73381,-9.733236 3.481721,-1.151995 6.071487,-2.720929 6.882019,-4.169267 0.445552,-0.796159 1.029664,-0.57259 2.151619,0.823531 2.049414,2.550223 4.404172,2.874144 6.731097,0.925931 0.840851,-0.704 1.688835,-1.28 1.88441,-1.28 1.197385,0 -0.629952,3.283065 -2.977463,5.349428 -2.13598,1.880165 -3.824124,2.606161 -7.019043,3.018584 l -2.767904,0.357301 v 4.277343 c 0,4.805068 -0.157865,4.575129 2.58192,3.760652 2.147543,-0.638416 4.80265,-0.450285 6.602275,0.467814 3.009888,1.53553 5.215805,5.557834 5.215805,9.510579 0,6.30289 -6.479065,11.731635 -14.56,12.19968 -5.357286,0.310294 -9.14339,-1.119107 -12.207016,-4.608624 -0.982123,-1.118653 -2.19417,-2.245155 -2.693439,-2.503338 -2.176987,-1.125763 -4.248804,-0.178003 -5.586131,2.555392 -0.75958,1.552525 -0.856217,2.062851 -0.705462,3.725411 0.199196,2.196762 0.965939,3.53857 2.758198,4.82687 2.197844,1.579837 4.216655,2.023876 9.153851,2.013392 5.033778,-0.01069 6.647327,-0.43935 9.789327,-2.600665 1.805751,-1.242141 2.625866,-1.1156 1.978474,0.305264 -0.471568,1.034979 -4.319142,3.596547 -6.647802,4.425849 -2.460647,0.876311 -7.193458,1.091002 -9.99963,0.45361 z m 10.406279,-1.592976 c 1.103659,-0.503216 1.960939,-0.960646 1.90507,-1.016518 -0.05587,-0.05587 -0.814864,0.130937 -1.68665,0.415126 C 29.5172,64.548186 22.692993,64.623728 20.16,64.02576 c -0.968,-0.228515 -2.552,-0.85095 -3.52,-1.383187 -1.374789,-0.755901 -1.633523,-0.825981 -1.182135,-0.320202 0.755234,0.846244 3.961811,2.546829 5.539811,2.938 0.683278,0.169379 2.826324,0.273799 4.762324,0.232045 3.098217,-0.06682 3.760446,-0.185546 5.526648,-0.990851 z m 3.362647,-8.604147 c -0.09396,-0.49152 -0.357347,-0.734947 -0.779036,-0.72 -0.50808,0.01802 -0.8556,-0.528201 -1.716205,-2.697421 -2.435896,-6.139858 -7.246802,-7.931666 -13.242509,-4.932137 -2.74286,1.372198 -3.507834,2.122381 -1.661766,1.629635 2.114837,-0.56448 3.406368,0.05281 6.187347,2.95728 3.300065,3.446602 5.337793,4.417194 9.398499,4.476608 1.879306,0.02749 1.950083,-3.2e-4 1.81367,-0.713965 z m 3.093824,-0.368691 c 0.529108,-0.273613 1.227063,-1.112445 1.664109,-2 0.655955,-1.332115 0.766935,-2.091353 0.86288,-5.90326 0.127037,-5.04696 -0.330845,-7.257683 -1.83719,-8.87023 -0.967437,-1.035645 -2.16712,-1.293037 -2.848919,-0.611239 -0.279443,0.279443 -0.384,2.704592 -0.384,8.906665 0,4.687469 0.096,8.618669 0.213335,8.736 0.353507,0.35351 1.363641,0.241674 2.329785,-0.257936 z m 4.530128,-0.985578 c 2.131543,-1.080134 4.744567,-3.699827 5.67145,-5.685926 0.748041,-1.602883 0.960694,-4.026435 0.528576,-6.024105 -0.625504,-2.89168 -3.105267,-5.904809 -5.513741,-6.699677 -1.044272,-0.34464 -1.605261,-0.32439 -6.624627,0.239146 -0.871802,0.09788 -1.918842,0.39664 -2.326752,0.663914 C 32.9323,37.741425 30.872563,37.385902 29.738667,36.29956 28.483887,35.097406 27.84,32.986104 27.84,30.073852 c 0,-2.686931 0.59658,-5.141886 1.489233,-6.128255 0.522005,-0.57681 0.372745,-0.558804 -1.657789,0.199981 C 22.90178,25.927943 20.48,28.453102 20.48,31.644004 c 0,2.035281 0.542868,3.149076 2.245004,4.606039 1.892987,1.620326 3.438015,1.951488 7.825593,1.677344 2.993972,-0.187072 3.691236,-0.149178 3.699134,0.201043 0.0056,0.246912 0.165014,0.157728 0.372652,-0.208432 0.56394,-0.994489 0.959277,-1.156736 2.329258,-0.955923 1.496371,0.219341 2.227053,0.810026 3.16168,2.555923 0.613802,1.146592 0.695859,1.880336 0.787283,7.04 l 0.102064,5.76 -0.915155,1.806918 c -1.048048,2.069302 -1.068685,2.065373 2.185734,0.416233 z M 33.599999,31.397234 V 26.314471 L 32.297766,25.13798 c -0.716231,-0.64707 -1.472231,-1.125361 -1.680001,-1.062868 -0.207771,0.06249 -0.700354,0.75653 -1.094629,1.542305 -2.188,4.360601 -0.432854,10.862581 2.932249,10.862581 h 1.144614 z m 7.737808,-6.193253 c 0.936205,-0.43079 2.409408,-1.426221 3.273779,-2.212069 l 1.571588,-1.428814 -2.134816,0.135935 c -2.542215,0.161876 -3.683498,-0.238992 -5.022611,-1.764157 l -0.971306,-1.106257 -1.248106,1.127587 c -1.410496,1.274299 -2.610268,1.948486 -4.949928,2.781515 -1.043073,0.371382 -1.35643,0.583809 -0.88345,0.598897 0.934031,0.0298 2.564425,1.222786 3.11229,2.277321 0.415658,0.800069 0.466554,0.810185 2.986618,0.593618 1.653478,-0.142096 3.168122,-0.498421 4.265942,-1.003576 z"
       id="path4640" />
  </g>
</svg>
