<?xml version="1.0" encoding="UTF-8" standalone="no"?>
<!-- Created with Inkscape (http://www.inkscape.org/) -->

<svg
   version="1.1"
   id="svg653"
   width="154.24001"
   height="118.08"
   viewBox="0 0 154.24001 118.08"
   sodipodi:docname="SUU.svg"
   inkscape:version="1.1 (c68e22c387, 2021-05-23)"
   xmlns:inkscape="http://www.inkscape.org/namespaces/inkscape"
   xmlns:sodipodi="http://sodipodi.sourceforge.net/DTD/sodipodi-0.dtd"
   xmlns="http://www.w3.org/2000/svg"
   xmlns:svg="http://www.w3.org/2000/svg">
  <defs
     id="defs657" />
  <sodipodi:namedview
     id="namedview655"
     pagecolor="#ffffff"
     bordercolor="#666666"
     borderopacity="1.0"
     inkscape:pageshadow="2"
     inkscape:pageopacity="0.0"
     inkscape:pagecheckerboard="0"
     showgrid="false"
     inkscape:zoom="6.3770324"
     inkscape:cx="77.073467"
     inkscape:cy="59.040001"
     inkscape:window-width="3840"
     inkscape:window-height="2097"
     inkscape:window-x="-8"
     inkscape:window-y="-8"
     inkscape:window-maximized="1"
     inkscape:current-layer="g659" />
  <g
     inkscape:groupmode="layer"
     inkscape:label="Image"
     id="g659">
    <path
       style="fill:#000000;stroke-width:0.16"
       d="M 71.360005,76.368886 C 69.23202,76.141259 66.312607,75.313096 64.480004,74.417206 60.26729,72.357771 57.553191,69.228946 56.206952,64.88 l -0.44576,-1.44 -0.04554,-16.68 -0.04554,-16.68 h 5.921159 5.92116 l 0.04379,15.72 0.04379,15.72 0.381088,0.843218 c 1.317852,2.915961 5.711097,4.183553 9.066492,2.615974 1.250874,-0.584387 1.976138,-1.232389 2.560997,-2.288176 L 80.080005,61.84 l 0.08,-15.84 0.08,-15.84 5.960001,-0.04195 5.96,-0.04195 v 15.48615 c 0,15.571828 -0.04779,17.126569 -0.58891,19.15775 -0.31978,1.200354 -1.292199,3.33069 -1.984575,4.347728 -0.761755,1.11895 -2.628579,3.007538 -3.798992,3.84328 -2.274463,1.624098 -5.511897,2.86217 -8.688058,3.322518 -1.542369,0.223549 -4.305759,0.288722 -5.739466,0.13536 z m 7.366146,-0.858681 c 3.795554,-0.890493 6.609267,-2.432885 8.996565,-4.931642 1.943517,-2.034256 3.067464,-4.181952 3.652068,-6.978563 0.282907,-1.353362 0.301145,-2.395434 0.30312,-17.32 l 0.0021,-15.88 H 86.16381 80.647616 l -0.04381,15.64 -0.0438,15.64 -0.416177,0.887301 c -0.2289,0.488016 -0.648402,1.151789 -0.932229,1.475049 -0.624728,0.711527 -2.391056,1.624191 -3.649581,1.885744 -1.105048,0.229658 -3.151927,0.117634 -4.298561,-0.235259 -1.089014,-0.335158 -2.42787,-1.242286 -3.046787,-2.064317 -1.064762,-1.414193 -1.016666,-0.57618 -1.016666,-17.71411 V 30.4 H 61.59357 55.987134 l 0.04966,16.2 0.04966,16.2 0.424787,1.54908 c 1.563845,5.702915 5.948343,9.634709 12.448759,11.163411 2.882617,0.677904 6.870948,0.676971 9.766147,-0.0023 z m 35.353859,0.869867 c -0.308,-0.0391 -1.136,-0.184267 -1.84,-0.322597 C 105.88035,74.807861 101.13583,71.109659 99.306133,65.975934 98.39067,63.407342 98.400006,63.611675 98.400006,46.142325 V 30.08 h 5.916214 5.91621 l 0.0438,15.72 0.0438,15.72 0.38109,0.843218 c 1.89743,4.198387 9.36452,4.413632 11.62353,0.335057 l 0.47538,-0.858275 0.08,-15.84 0.08,-15.84 5.96,-0.04195 5.96,-0.04195 v 15.48615 c 0,9.757099 -0.0616,15.98772 -0.16658,16.841947 -0.22297,1.814721 -0.55797,3.014693 -1.27962,4.583531 -0.77838,1.692166 -1.39538,2.584672 -2.78342,4.026293 -2.42384,2.517411 -5.34241,4.058649 -9.45038,4.990571 -1.41467,0.320928 -5.7491,0.549509 -7.12,0.37548 z m 7.87632,-1.001619 c 3.38575,-0.856423 6.23821,-2.460397 8.4235,-4.73665 1.99809,-2.081256 3.12423,-4.215877 3.71496,-7.041803 0.2829,-1.353362 0.30114,-2.395434 0.30312,-17.32 l 0.002,-15.88 h -5.5162 -5.51619 l -0.0438,15.643486 -0.0438,15.643487 -0.52797,1.072329 c -1.28219,2.604212 -4.7082,3.892013 -8.17817,3.074093 -1.91434,-0.451237 -3.32933,-1.485555 -4.1498,-3.033395 l -0.42406,-0.8 -0.043,-15.8 -0.043,-15.8 h -5.6034 -5.603394 l 0.04966,16.2 0.04966,16.2 0.424787,1.54908 c 1.224647,4.465933 4.038577,7.704226 8.552817,9.842642 4.02444,1.906392 9.51095,2.365811 14.17227,1.186731 z M 30.640002,76.154082 C 26.265386,75.471547 21.848701,72.979531 18.719137,69.428 c -0.615525,-0.698517 -1.113429,-1.359574 -1.106451,-1.469016 0.01604,-0.251643 6.957277,-6.739952 7.288967,-6.813347 0.135121,-0.0299 0.550248,0.263504 0.922499,0.652008 3.14932,3.286811 9.458601,4.555269 12.488729,2.510811 0.787653,-0.531437 1.441549,-1.861557 1.296155,-2.63657 -0.127369,-0.678939 -1.001689,-1.697347 -1.915651,-2.231345 -1.010282,-0.590279 -3.314684,-1.295746 -5.718978,-1.750805 -2.698616,-0.510765 -4.27124,-1.009355 -6.134405,-1.944874 C 22.011374,53.822459 19.4068,50.699589 18.379699,46.8 c -0.50117,-1.902786 -0.504395,-5.283194 -0.0067,-7.028614 1.440873,-5.053239 5.317127,-8.38065 11.428501,-9.81033 1.576708,-0.368851 2.153685,-0.421992 4.678509,-0.430898 1.784773,-0.0063 3.336345,0.07287 4.080001,0.208165 2.561704,0.466069 5.163814,1.52217 7.28,2.954685 1.20857,0.81812 4.242461,3.751022 4.232658,4.091765 -0.0061,0.212061 -6.08017,5.025075 -7.270762,5.761259 -0.342371,0.211699 -0.421614,0.176602 -1.249784,-0.553562 -2.096989,-1.848827 -4.482917,-2.828158 -6.912113,-2.837156 -2.254627,-0.0084 -3.659997,0.624403 -4.464515,2.010108 -0.565936,0.974772 -0.668216,1.745599 -0.3442,2.594024 0.614389,1.608754 2.597031,2.615855 6.938058,3.524244 8.769234,1.835022 12.924625,5.038841 14.134649,10.897859 0.268707,1.301099 0.314234,2.000158 0.259099,3.978451 -0.06031,2.163848 -0.114704,2.536872 -0.552835,3.791026 -1.706365,4.884484 -6.450116,8.554283 -12.775582,9.88328 -1.829488,0.384379 -5.682883,0.555648 -7.194674,0.319776 z m 6.029949,-0.558173 c 3.848632,-0.572834 7.82542,-2.433811 10.295988,-4.818114 1.701394,-1.641987 3.032183,-3.857936 3.541919,-5.897795 0.418817,-1.676021 0.372134,-5.325934 -0.09004,-7.04 -1.501885,-5.569997 -5.456085,-8.440336 -14.097814,-10.23355 -3.056198,-0.634181 -4.739603,-1.277764 -5.903174,-2.256844 -1.536311,-1.292721 -1.535769,-3.676145 0.0011,-5.219668 2.322681,-2.332604 7.698506,-1.696176 11.207589,1.326833 l 0.905603,0.78016 1.094397,-0.846248 c 0.601919,-0.465438 2.198724,-1.698685 3.548458,-2.740549 l 2.454059,-1.894299 -1.174059,-1.196806 c -2.9136,-2.970114 -6.181266,-4.728869 -10.052453,-5.410565 -1.658045,-0.291973 -5.221157,-0.330744 -6.96154,-0.07575 -7.945263,1.164106 -13.034238,6.274606 -13.038879,13.094034 -0.0042,6.226414 3.53051,10.871851 10.056103,13.215928 0.647473,0.23258 2.433467,0.675747 3.968874,0.984814 3.72439,0.749696 5.246866,1.321061 6.473818,2.429539 0.826693,0.746866 1.100085,1.293651 1.100085,2.200167 0,2.285792 -2.234692,3.768142 -5.669386,3.760704 -2.940245,-0.0064 -6.772242,-1.559525 -8.765478,-3.55276 l -0.625587,-0.625588 -1.857091,1.730226 c -1.0214,0.951622 -2.575877,2.416768 -3.454391,3.255878 l -1.597299,1.525655 1.665299,1.674345 c 1.861512,1.871624 3.620836,3.191668 5.513789,4.137068 3.796541,1.896112 6.958258,2.363244 11.460092,1.693187 z"
       id="path825" />
  </g>
</svg>
