  0
SECTION
  2
HEADER
  9
$ACADVER
  1
AC1014
  9
$HANDSEED
  5
FFFF
  9
$MEASUREMENT
 70
     1
  0
ENDSEC
  0
SECTION
  2
TABLES
  0
TABLE
  2
VPORT
  5
8
330
0
100
AcDbSymbolTable
 70
     4
  0
VPORT
  5
2E
330
8
100
AcDbSymbolTableRecord
100
AcDbViewportTableRecord
  2
*ACTIVE
 70
     0
 10
0.0
 20
0.0
 11
1.0
 21
1.0
 12
210.0
 22
148.5
 13
0.0
 23
0.0
 14
10.0
 24
10.0
 15
10.0
 25
10.0
 16
0.0
 26
0.0
 36
1.0
 17
0.0
 27
0.0
 37
0.0
 40
341.0
 41
1.24
 42
50.0
 43
0.0
 44
0.0
 50
0.0
 51
0.0
 71
     0
 72
   100
 73
     1
 74
     3
 75
     0
 76
     0
 77
     0
 78
     0
  0
ENDTAB
  0
TABLE
  2
LTYPE
  5
5
330
0
100
AcDbSymbolTable
 70
     1
  0
LTYPE
  5
14
330
5
100
AcDbSymbolTableRecord
100
AcDbLinetypeTableRecord
  2
BYBLOCK
 70
     0
  3

 72
    65
 73
     0
 40
0.0
  0
LTYPE
  5
15
330
5
100
AcDbSymbolTableRecord
100
AcDbLinetypeTableRecord
  2
BYLAYER
 70
     0
  3

 72
    65
 73
     0
 40
0.0
  0
LTYPE
  5
16
330
5
100
AcDbSymbolTableRecord
100
AcDbLinetypeTableRecord
  2
CONTINUOUS
 70
     0
  3
Solid line
 72
    65
 73
     0
 40
0.0
  0
ENDTAB
  0
TABLE
  2
LAYER
  5
2
100
AcDbSymbolTable
 70
2
  0
LAYER
  5
50
100
AcDbSymbolTableRecord
100
AcDbLayerTableRecord
  2
0
 70
0
  6
CONTINUOUS
  0
LAYER
  5
51
100
AcDbSymbolTableRecord
100
AcDbLayerTableRecord
  2
Image
 70
0
  6
CONTINUOUS
  0
ENDTAB
  0
TABLE
  2
STYLE
  5
3
330
0
100
AcDbSymbolTable
 70
     1
  0
STYLE
  5
11
330
3
100
AcDbSymbolTableRecord
100
AcDbTextStyleTableRecord
  2
STANDARD
 70
     0
 40
0.0
 41
1.0
 50
0.0
 71
     0
 42
2.5
  3
txt
  4

  0
ENDTAB
  0
TABLE
  2
VIEW
  5
6
330
0
100
AcDbSymbolTable
 70
     0
  0
ENDTAB
  0
TABLE
  2
UCS
  5
7
330
0
100
AcDbSymbolTable
 70
     0
  0
ENDTAB
  0
TABLE
  2
APPID
  5
9
330
0
100
AcDbSymbolTable
 70
     2
  0
APPID
  5
12
330
9
100
AcDbSymbolTableRecord
100
AcDbRegAppTableRecord
  2
ACAD
 70
     0
  0
ENDTAB
  0
TABLE
  2
DIMSTYLE
  5
A
330
0
100
AcDbSymbolTable
 70
     1
  0
DIMSTYLE
105
27
330
A
100
AcDbSymbolTableRecord
100
AcDbDimStyleTableRecord
  2
ISO-25
 70
     0
  3

  4

  5

  6

  7

 40
1.0
 41
2.5
 42
0.625
 43
3.75
 44
1.25
 45
0.0
 46
0.0
 47
0.0
 48
0.0
140
2.5
141
2.5
142
0.0
143
0.03937007874016
144
1.0
145
0.0
146
1.0
147
0.625
 71
     0
 72
     0
 73
     0
 74
     0
 75
     0
 76
     0
 77
     1
 78
     8
170
     0
171
     3
172
     1
173
     0
174
     0
175
     0
176
     0
177
     0
178
     0
270
     2
271
     2
272
     2
273
     2
274
     3
340
11
275
     0
280
     0
281
     0
282
     0
283
     0
284
     8
285
     0
286
     0
287
     3
288
     0
  0
ENDTAB
  0
TABLE
  2
BLOCK_RECORD
  5
1
330
0
100
AcDbSymbolTable
 70
     1
  0
BLOCK_RECORD
  5
1F
330
1
100
AcDbSymbolTableRecord
100
AcDbBlockTableRecord
  2
*MODEL_SPACE
  0
BLOCK_RECORD
  5
1B
330
1
100
AcDbSymbolTableRecord
100
AcDbBlockTableRecord
  2
*PAPER_SPACE
  0
ENDTAB
  0
ENDSEC
  0
SECTION
  2
BLOCKS
  0
BLOCK
  5
20
330
1F
100
AcDbEntity
  8
0
100
AcDbBlockBegin
  2
*MODEL_SPACE
 70
     0
 10
0.0
 20
0.0
 30
0.0
  3
*MODEL_SPACE
  1

  0
ENDBLK
  5
21
330
1F
100
AcDbEntity
  8
0
100
AcDbBlockEnd
  0
BLOCK
  5
1C
330
1B
100
AcDbEntity
 67
     1
  8
0
100
AcDbBlockBegin
  2
*PAPER_SPACE
  1

  0
ENDBLK
  5
1D
330
1B
100
AcDbEntity
 67
     1
  8
0
100
AcDbBlockEnd
  0
ENDSEC
  0
SECTION
  2
ENTITIES
  0
SPLINE
  5
100
100
AcDbEntity
  8
Image
 62
7
100
AcDbSpline
 70
8
 71
3
 72
8
 73
4
 74
0
 40
0
 40
0
 40
0
 40
0
 40
1
 40
1
 40
1
 40
1
 10
71.360005
 20
41.711114
 30
0.0
 10
69.232020
 20
41.938741
 30
0.0
 10
66.312607
 20
42.766904
 30
0.0
 10
64.480004
 20
43.662794
 30
0.0
  0
SPLINE
  5
101
100
AcDbEntity
  8
Image
 62
7
100
AcDbSpline
 70
8
 71
3
 72
8
 73
4
 74
0
 40
0
 40
0
 40
0
 40
0
 40
1
 40
1
 40
1
 40
1
 10
64.480004
 20
43.662794
 30
0.0
 10
60.267290
 20
45.722229
 30
0.0
 10
57.553191
 20
48.851054
 30
0.0
 10
56.206952
 20
53.200000
 30
0.0
  0
SPLINE
  5
102
100
AcDbEntity
  8
Image
 62
7
100
AcDbSpline
 70
8
 71
3
 72
8
 73
4
 74
0
 40
0
 40
0
 40
0
 40
0
 40
1
 40
1
 40
1
 40
1
 10
67.981099
 20
55.716782
 30
0.0
 10
69.298951
 20
52.800821
 30
0.0
 10
73.692196
 20
51.533229
 30
0.0
 10
77.047591
 20
53.100808
 30
0.0
  0
SPLINE
  5
103
100
AcDbEntity
  8
Image
 62
7
100
AcDbSpline
 70
8
 71
3
 72
8
 73
4
 74
0
 40
0
 40
0
 40
0
 40
0
 40
1
 40
1
 40
1
 40
1
 10
77.047591
 20
53.100808
 30
0.0
 10
78.298465
 20
53.685195
 30
0.0
 10
79.023729
 20
54.333197
 30
0.0
 10
79.608588
 20
55.388984
 30
0.0
  0
LWPOLYLINE
  5
104
100
AcDbEntity
  8
Image
 62
7
100
AcDbPolyline
 90
9
 70
0
 10
56.206952
 20
53.200000
 30
0.0
 10
55.761192
 20
54.640000
 30
0.0
 10
55.715652
 20
71.320000
 30
0.0
 10
55.670112
 20
88.000000
 30
0.0
 10
61.591271
 20
88.000000
 30
0.0
 10
67.512431
 20
88.000000
 30
0.0
 10
67.556221
 20
72.280000
 30
0.0
 10
67.600011
 20
56.560000
 30
0.0
 10
67.981099
 20
55.716782
 30
0.0
  0
SPLINE
  5
105
100
AcDbEntity
  8
Image
 62
7
100
AcDbSpline
 70
8
 71
3
 72
8
 73
4
 74
0
 40
0
 40
0
 40
0
 40
0
 40
1
 40
1
 40
1
 40
1
 10
92.160006
 20
72.517750
 30
0.0
 10
92.160006
 20
56.945922
 30
0.0
 10
92.112216
 20
55.391181
 30
0.0
 10
91.571096
 20
53.360000
 30
0.0
  0
SPLINE
  5
106
100
AcDbEntity
  8
Image
 62
7
100
AcDbSpline
 70
8
 71
3
 72
8
 73
4
 74
0
 40
0
 40
0
 40
0
 40
0
 40
1
 40
1
 40
1
 40
1
 10
91.571096
 20
53.360000
 30
0.0
 10
91.251316
 20
52.159646
 30
0.0
 10
90.278897
 20
50.029310
 30
0.0
 10
89.586521
 20
49.012272
 30
0.0
  0
SPLINE
  5
107
100
AcDbEntity
  8
Image
 62
7
100
AcDbSpline
 70
8
 71
3
 72
8
 73
4
 74
0
 40
0
 40
0
 40
0
 40
0
 40
1
 40
1
 40
1
 40
1
 10
89.586521
 20
49.012272
 30
0.0
 10
88.824766
 20
47.893322
 30
0.0
 10
86.957942
 20
46.004734
 30
0.0
 10
85.787529
 20
45.168992
 30
0.0
  0
SPLINE
  5
108
100
AcDbEntity
  8
Image
 62
7
100
AcDbSpline
 70
8
 71
3
 72
8
 73
4
 74
0
 40
0
 40
0
 40
0
 40
0
 40
1
 40
1
 40
1
 40
1
 10
85.787529
 20
45.168992
 30
0.0
 10
83.513066
 20
43.544894
 30
0.0
 10
80.275632
 20
42.306822
 30
0.0
 10
77.099471
 20
41.846474
 30
0.0
  0
SPLINE
  5
109
100
AcDbEntity
  8
Image
 62
7
100
AcDbSpline
 70
8
 71
3
 72
8
 73
4
 74
0
 40
0
 40
0
 40
0
 40
0
 40
1
 40
1
 40
1
 40
1
 10
77.099471
 20
41.846474
 30
0.0
 10
75.557102
 20
41.622925
 30
0.0
 10
72.793712
 20
41.557752
 30
0.0
 10
71.360005
 20
41.711114
 30
0.0
  0
LWPOLYLINE
  5
10a
100
AcDbEntity
  8
Image
 62
7
100
AcDbPolyline
 90
7
 70
0
 10
79.608588
 20
55.388984
 30
0.0
 10
80.080005
 20
56.240000
 30
0.0
 10
80.160005
 20
72.080000
 30
0.0
 10
80.240005
 20
87.920000
 30
0.0
 10
86.200006
 20
87.961950
 30
0.0
 10
92.160006
 20
88.003900
 30
0.0
 10
92.160006
 20
72.517750
 30
0.0
  0
SPLINE
  5
10b
100
AcDbEntity
  8
Image
 62
7
100
AcDbSpline
 70
8
 71
3
 72
8
 73
4
 74
0
 40
0
 40
0
 40
0
 40
0
 40
1
 40
1
 40
1
 40
1
 10
78.726151
 20
42.569795
 30
0.0
 10
82.521705
 20
43.460288
 30
0.0
 10
85.335418
 20
45.002680
 30
0.0
 10
87.722716
 20
47.501437
 30
0.0
  0
SPLINE
  5
10c
100
AcDbEntity
  8
Image
 62
7
100
AcDbSpline
 70
8
 71
3
 72
8
 73
4
 74
0
 40
0
 40
0
 40
0
 40
0
 40
1
 40
1
 40
1
 40
1
 10
87.722716
 20
47.501437
 30
0.0
 10
89.666233
 20
49.535693
 30
0.0
 10
90.790180
 20
51.683389
 30
0.0
 10
91.374784
 20
54.480000
 30
0.0
  0
SPLINE
  5
10d
100
AcDbEntity
  8
Image
 62
7
100
AcDbSpline
 70
8
 71
3
 72
8
 73
4
 74
0
 40
0
 40
0
 40
0
 40
0
 40
1
 40
1
 40
1
 40
1
 10
91.374784
 20
54.480000
 30
0.0
 10
91.657691
 20
55.833362
 30
0.0
 10
91.675929
 20
56.875434
 30
0.0
 10
91.677904
 20
71.800000
 30
0.0
  0
LWPOLYLINE
  5
10e
100
AcDbEntity
  8
Image
 62
7
100
AcDbPolyline
 90
1
 70
1
 10
71.360005
 20
41.711114
 30
0.0
  0
SPLINE
  5
10f
100
AcDbEntity
  8
Image
 62
7
100
AcDbSpline
 70
8
 71
3
 72
8
 73
4
 74
0
 40
0
 40
0
 40
0
 40
0
 40
1
 40
1
 40
1
 40
1
 10
80.143829
 20
55.512699
 30
0.0
 10
79.914929
 20
55.024683
 30
0.0
 10
79.495427
 20
54.360910
 30
0.0
 10
79.211600
 20
54.037650
 30
0.0
  0
SPLINE
  5
110
100
AcDbEntity
  8
Image
 62
7
100
AcDbSpline
 70
8
 71
3
 72
8
 73
4
 74
0
 40
0
 40
0
 40
0
 40
0
 40
1
 40
1
 40
1
 40
1
 10
79.211600
 20
54.037650
 30
0.0
 10
78.586872
 20
53.326123
 30
0.0
 10
76.820544
 20
52.413459
 30
0.0
 10
75.562019
 20
52.151906
 30
0.0
  0
SPLINE
  5
111
100
AcDbEntity
  8
Image
 62
7
100
AcDbSpline
 70
8
 71
3
 72
8
 73
4
 74
0
 40
0
 40
0
 40
0
 40
0
 40
1
 40
1
 40
1
 40
1
 10
75.562019
 20
52.151906
 30
0.0
 10
74.456971
 20
51.922248
 30
0.0
 10
72.410092
 20
52.034272
 30
0.0
 10
71.263458
 20
52.387165
 30
0.0
  0
SPLINE
  5
112
100
AcDbEntity
  8
Image
 62
7
100
AcDbSpline
 70
8
 71
3
 72
8
 73
4
 74
0
 40
0
 40
0
 40
0
 40
0
 40
1
 40
1
 40
1
 40
1
 10
71.263458
 20
52.387165
 30
0.0
 10
70.174444
 20
52.722323
 30
0.0
 10
68.835588
 20
53.629451
 30
0.0
 10
68.216671
 20
54.451482
 30
0.0
  0
SPLINE
  5
113
100
AcDbEntity
  8
Image
 62
7
100
AcDbSpline
 70
8
 71
3
 72
8
 73
4
 74
0
 40
0
 40
0
 40
0
 40
0
 40
1
 40
1
 40
1
 40
1
 10
68.216671
 20
54.451482
 30
0.0
 10
67.151909
 20
55.865675
 30
0.0
 10
67.200005
 20
55.027662
 30
0.0
 10
67.200005
 20
72.165592
 30
0.0
  0
LWPOLYLINE
  5
114
100
AcDbEntity
  8
Image
 62
7
100
AcDbPolyline
 90
7
 70
0
 10
91.677904
 20
71.800000
 30
0.0
 10
91.680004
 20
87.680000
 30
0.0
 10
86.163810
 20
87.680000
 30
0.0
 10
80.647616
 20
87.680000
 30
0.0
 10
80.603806
 20
72.040000
 30
0.0
 10
80.560006
 20
56.400000
 30
0.0
 10
80.143829
 20
55.512699
 30
0.0
  0
SPLINE
  5
115
100
AcDbEntity
  8
Image
 62
7
100
AcDbSpline
 70
8
 71
3
 72
8
 73
4
 74
0
 40
0
 40
0
 40
0
 40
0
 40
1
 40
1
 40
1
 40
1
 10
56.511241
 20
53.730920
 30
0.0
 10
58.075086
 20
48.028005
 30
0.0
 10
62.459584
 20
44.096211
 30
0.0
 10
68.960000
 20
42.567509
 30
0.0
  0
SPLINE
  5
116
100
AcDbEntity
  8
Image
 62
7
100
AcDbSpline
 70
8
 71
3
 72
8
 73
4
 74
0
 40
0
 40
0
 40
0
 40
0
 40
1
 40
1
 40
1
 40
1
 10
68.960000
 20
42.567509
 30
0.0
 10
71.842617
 20
41.889605
 30
0.0
 10
75.830948
 20
41.890538
 30
0.0
 10
78.726147
 20
42.569809
 30
0.0
  0
LWPOLYLINE
  5
117
100
AcDbEntity
  8
Image
 62
7
100
AcDbPolyline
 90
7
 70
0
 10
67.200005
 20
72.165592
 30
0.0
 10
67.200005
 20
87.680000
 30
0.0
 10
61.593570
 20
87.680000
 30
0.0
 10
55.987134
 20
87.680000
 30
0.0
 10
56.036794
 20
71.480000
 30
0.0
 10
56.086454
 20
55.280000
 30
0.0
 10
56.511241
 20
53.730920
 30
0.0
  0
SPLINE
  5
118
100
AcDbEntity
  8
Image
 62
7
100
AcDbSpline
 70
8
 71
3
 72
8
 73
4
 74
0
 40
0
 40
0
 40
0
 40
0
 40
1
 40
1
 40
1
 40
1
 10
114.080010
 20
41.699928
 30
0.0
 10
113.772010
 20
41.739028
 30
0.0
 10
112.944010
 20
41.884195
 30
0.0
 10
112.240010
 20
42.022525
 30
0.0
  0
SPLINE
  5
119
100
AcDbEntity
  8
Image
 62
7
100
AcDbSpline
 70
8
 71
3
 72
8
 73
4
 74
0
 40
0
 40
0
 40
0
 40
0
 40
1
 40
1
 40
1
 40
1
 10
112.240010
 20
42.022525
 30
0.0
 10
105.880350
 20
43.272139
 30
0.0
 10
101.135830
 20
46.970341
 30
0.0
 10
99.306133
 20
52.104066
 30
0.0
  0
SPLINE
  5
11a
100
AcDbEntity
  8
Image
 62
7
100
AcDbSpline
 70
8
 71
3
 72
8
 73
4
 74
0
 40
0
 40
0
 40
0
 40
0
 40
1
 40
1
 40
1
 40
1
 10
99.306133
 20
52.104066
 30
0.0
 10
98.390670
 20
54.672658
 30
0.0
 10
98.400006
 20
54.468325
 30
0.0
 10
98.400006
 20
71.937675
 30
0.0
  0
LWPOLYLINE
  5
11b
100
AcDbEntity
  8
Image
 62
7
100
AcDbPolyline
 90
1
 70
1
 10
78.726147
 20
42.569809
 30
0.0
  0
SPLINE
  5
11c
100
AcDbEntity
  8
Image
 62
7
100
AcDbSpline
 70
8
 71
3
 72
8
 73
4
 74
0
 40
0
 40
0
 40
0
 40
0
 40
1
 40
1
 40
1
 40
1
 10
110.701120
 20
55.716782
 30
0.0
 10
112.598550
 20
51.518395
 30
0.0
 10
120.065640
 20
51.303150
 30
0.0
 10
122.324650
 20
55.381725
 30
0.0
  0
LWPOLYLINE
  5
11d
100
AcDbEntity
  8
Image
 62
7
100
AcDbPolyline
 90
7
 70
0
 10
98.400006
 20
71.937675
 30
0.0
 10
98.400006
 20
88.000000
 30
0.0
 10
104.316220
 20
88.000000
 30
0.0
 10
110.232430
 20
88.000000
 30
0.0
 10
110.276230
 20
72.280000
 30
0.0
 10
110.320030
 20
56.560000
 30
0.0
 10
110.701120
 20
55.716782
 30
0.0
  0
SPLINE
  5
11e
100
AcDbEntity
  8
Image
 62
7
100
AcDbSpline
 70
8
 71
3
 72
8
 73
4
 74
0
 40
0
 40
0
 40
0
 40
0
 40
1
 40
1
 40
1
 40
1
 10
134.880030
 20
72.517750
 30
0.0
 10
134.880030
 20
62.760651
 30
0.0
 10
134.818430
 20
56.530030
 30
0.0
 10
134.713450
 20
55.675803
 30
0.0
  0
SPLINE
  5
11f
100
AcDbEntity
  8
Image
 62
7
100
AcDbSpline
 70
8
 71
3
 72
8
 73
4
 74
0
 40
0
 40
0
 40
0
 40
0
 40
1
 40
1
 40
1
 40
1
 10
134.713450
 20
55.675803
 30
0.0
 10
134.490480
 20
53.861082
 30
0.0
 10
134.155480
 20
52.661110
 30
0.0
 10
133.433830
 20
51.092272
 30
0.0
  0
SPLINE
  5
120
100
AcDbEntity
  8
Image
 62
7
100
AcDbSpline
 70
8
 71
3
 72
8
 73
4
 74
0
 40
0
 40
0
 40
0
 40
0
 40
1
 40
1
 40
1
 40
1
 10
133.433830
 20
51.092272
 30
0.0
 10
132.655450
 20
49.400106
 30
0.0
 10
132.038450
 20
48.507600
 30
0.0
 10
130.650410
 20
47.065979
 30
0.0
  0
SPLINE
  5
121
100
AcDbEntity
  8
Image
 62
7
100
AcDbSpline
 70
8
 71
3
 72
8
 73
4
 74
0
 40
0
 40
0
 40
0
 40
0
 40
1
 40
1
 40
1
 40
1
 10
130.650410
 20
47.065979
 30
0.0
 10
128.226570
 20
44.548568
 30
0.0
 10
125.308000
 20
43.007330
 30
0.0
 10
121.200030
 20
42.075408
 30
0.0
  0
SPLINE
  5
122
100
AcDbEntity
  8
Image
 62
7
100
AcDbSpline
 70
8
 71
3
 72
8
 73
4
 74
0
 40
0
 40
0
 40
0
 40
0
 40
1
 40
1
 40
1
 40
1
 10
121.200030
 20
42.075408
 30
0.0
 10
119.785360
 20
41.754480
 30
0.0
 10
115.450930
 20
41.525899
 30
0.0
 10
114.080030
 20
41.699928
 30
0.0
  0
LWPOLYLINE
  5
123
100
AcDbEntity
  8
Image
 62
7
100
AcDbPolyline
 90
7
 70
0
 10
122.324650
 20
55.381725
 30
0.0
 10
122.800030
 20
56.240000
 30
0.0
 10
122.880030
 20
72.080000
 30
0.0
 10
122.960030
 20
87.920000
 30
0.0
 10
128.920030
 20
87.961950
 30
0.0
 10
134.880030
 20
88.003900
 30
0.0
 10
134.880030
 20
72.517750
 30
0.0
  0
SPLINE
  5
124
100
AcDbEntity
  8
Image
 62
7
100
AcDbSpline
 70
8
 71
3
 72
8
 73
4
 74
0
 40
0
 40
0
 40
0
 40
0
 40
1
 40
1
 40
1
 40
1
 10
121.956330
 20
42.701547
 30
0.0
 10
125.342080
 20
43.557970
 30
0.0
 10
128.194540
 20
45.161944
 30
0.0
 10
130.379830
 20
47.438197
 30
0.0
  0
SPLINE
  5
125
100
AcDbEntity
  8
Image
 62
7
100
AcDbSpline
 70
8
 71
3
 72
8
 73
4
 74
0
 40
0
 40
0
 40
0
 40
0
 40
1
 40
1
 40
1
 40
1
 10
130.379830
 20
47.438197
 30
0.0
 10
132.377920
 20
49.519453
 30
0.0
 10
133.504060
 20
51.654074
 30
0.0
 10
134.094790
 20
54.480000
 30
0.0
  0
SPLINE
  5
126
100
AcDbEntity
  8
Image
 62
7
100
AcDbSpline
 70
8
 71
3
 72
8
 73
4
 74
0
 40
0
 40
0
 40
0
 40
0
 40
1
 40
1
 40
1
 40
1
 10
134.094790
 20
54.480000
 30
0.0
 10
134.377690
 20
55.833362
 30
0.0
 10
134.395930
 20
56.875434
 30
0.0
 10
134.397910
 20
71.800000
 30
0.0
  0
LWPOLYLINE
  5
127
100
AcDbEntity
  8
Image
 62
7
100
AcDbPolyline
 90
1
 70
1
 10
114.080030
 20
41.699928
 30
0.0
  0
SPLINE
  5
128
100
AcDbEntity
  8
Image
 62
7
100
AcDbSpline
 70
8
 71
3
 72
8
 73
4
 74
0
 40
0
 40
0
 40
0
 40
0
 40
1
 40
1
 40
1
 40
1
 10
122.751950
 20
55.320698
 30
0.0
 10
121.469760
 20
52.716486
 30
0.0
 10
118.043750
 20
51.428685
 30
0.0
 10
114.573780
 20
52.246605
 30
0.0
  0
SPLINE
  5
129
100
AcDbEntity
  8
Image
 62
7
100
AcDbSpline
 70
8
 71
3
 72
8
 73
4
 74
0
 40
0
 40
0
 40
0
 40
0
 40
1
 40
1
 40
1
 40
1
 10
114.573780
 20
52.246605
 30
0.0
 10
112.659440
 20
52.697842
 30
0.0
 10
111.244450
 20
53.732160
 30
0.0
 10
110.423980
 20
55.280000
 30
0.0
  0
LWPOLYLINE
  5
12a
100
AcDbEntity
  8
Image
 62
7
100
AcDbPolyline
 90
7
 70
0
 10
134.397910
 20
71.800000
 30
0.0
 10
134.399910
 20
87.680000
 30
0.0
 10
128.883710
 20
87.680000
 30
0.0
 10
123.367520
 20
87.680000
 30
0.0
 10
123.323720
 20
72.036514
 30
0.0
 10
123.279920
 20
56.393027
 30
0.0
 10
122.751950
 20
55.320698
 30
0.0
  0
SPLINE
  5
12b
100
AcDbEntity
  8
Image
 62
7
100
AcDbSpline
 70
8
 71
3
 72
8
 73
4
 74
0
 40
0
 40
0
 40
0
 40
0
 40
1
 40
1
 40
1
 40
1
 10
99.231233
 20
53.730920
 30
0.0
 10
100.455880
 20
49.264987
 30
0.0
 10
103.269810
 20
46.026694
 30
0.0
 10
107.784050
 20
43.888278
 30
0.0
  0
SPLINE
  5
12c
100
AcDbEntity
  8
Image
 62
7
100
AcDbSpline
 70
8
 71
3
 72
8
 73
4
 74
0
 40
0
 40
0
 40
0
 40
0
 40
1
 40
1
 40
1
 40
1
 10
107.784050
 20
43.888278
 30
0.0
 10
111.808490
 20
41.981886
 30
0.0
 10
117.295000
 20
41.522467
 30
0.0
 10
121.956320
 20
42.701547
 30
0.0
  0
LWPOLYLINE
  5
12d
100
AcDbEntity
  8
Image
 62
7
100
AcDbPolyline
 90
9
 70
0
 10
110.423980
 20
55.280000
 30
0.0
 10
109.999920
 20
56.080000
 30
0.0
 10
109.956920
 20
71.880000
 30
0.0
 10
109.913920
 20
87.680000
 30
0.0
 10
104.310520
 20
87.680000
 30
0.0
 10
98.707126
 20
87.680000
 30
0.0
 10
98.756786
 20
71.480000
 30
0.0
 10
98.806446
 20
55.280000
 30
0.0
 10
99.231233
 20
53.730920
 30
0.0
  0
SPLINE
  5
12e
100
AcDbEntity
  8
Image
 62
7
100
AcDbSpline
 70
8
 71
3
 72
8
 73
4
 74
0
 40
0
 40
0
 40
0
 40
0
 40
1
 40
1
 40
1
 40
1
 10
30.640002
 20
41.925918
 30
0.0
 10
26.265386
 20
42.608453
 30
0.0
 10
21.848701
 20
45.100469
 30
0.0
 10
18.719137
 20
48.652000
 30
0.0
  0
SPLINE
  5
12f
100
AcDbEntity
  8
Image
 62
7
100
AcDbSpline
 70
8
 71
3
 72
8
 73
4
 74
0
 40
0
 40
0
 40
0
 40
0
 40
1
 40
1
 40
1
 40
1
 10
18.719137
 20
48.652000
 30
0.0
 10
18.103612
 20
49.350517
 30
0.0
 10
17.605708
 20
50.011574
 30
0.0
 10
17.612686
 20
50.121016
 30
0.0
  0
SPLINE
  5
130
100
AcDbEntity
  8
Image
 62
7
100
AcDbSpline
 70
8
 71
3
 72
8
 73
4
 74
0
 40
0
 40
0
 40
0
 40
0
 40
1
 40
1
 40
1
 40
1
 10
17.612686
 20
50.121016
 30
0.0
 10
17.628726
 20
50.372659
 30
0.0
 10
24.569963
 20
56.860968
 30
0.0
 10
24.901653
 20
56.934363
 30
0.0
  0
SPLINE
  5
131
100
AcDbEntity
  8
Image
 62
7
100
AcDbSpline
 70
8
 71
3
 72
8
 73
4
 74
0
 40
0
 40
0
 40
0
 40
0
 40
1
 40
1
 40
1
 40
1
 10
24.901653
 20
56.934363
 30
0.0
 10
25.036774
 20
56.964263
 30
0.0
 10
25.451901
 20
56.670859
 30
0.0
 10
25.824152
 20
56.282355
 30
0.0
  0
SPLINE
  5
132
100
AcDbEntity
  8
Image
 62
7
100
AcDbSpline
 70
8
 71
3
 72
8
 73
4
 74
0
 40
0
 40
0
 40
0
 40
0
 40
1
 40
1
 40
1
 40
1
 10
25.824152
 20
56.282355
 30
0.0
 10
28.973472
 20
52.995544
 30
0.0
 10
35.282753
 20
51.727086
 30
0.0
 10
38.312881
 20
53.771544
 30
0.0
  0
SPLINE
  5
133
100
AcDbEntity
  8
Image
 62
7
100
AcDbSpline
 70
8
 71
3
 72
8
 73
4
 74
0
 40
0
 40
0
 40
0
 40
0
 40
1
 40
1
 40
1
 40
1
 10
38.312881
 20
53.771544
 30
0.0
 10
39.100534
 20
54.302981
 30
0.0
 10
39.754430
 20
55.633101
 30
0.0
 10
39.609036
 20
56.408114
 30
0.0
  0
SPLINE
  5
134
100
AcDbEntity
  8
Image
 62
7
100
AcDbSpline
 70
8
 71
3
 72
8
 73
4
 74
0
 40
0
 40
0
 40
0
 40
0
 40
1
 40
1
 40
1
 40
1
 10
39.609036
 20
56.408114
 30
0.0
 10
39.481667
 20
57.087053
 30
0.0
 10
38.607347
 20
58.105461
 30
0.0
 10
37.693385
 20
58.639459
 30
0.0
  0
SPLINE
  5
135
100
AcDbEntity
  8
Image
 62
7
100
AcDbSpline
 70
8
 71
3
 72
8
 73
4
 74
0
 40
0
 40
0
 40
0
 40
0
 40
1
 40
1
 40
1
 40
1
 10
37.693385
 20
58.639459
 30
0.0
 10
36.683103
 20
59.229738
 30
0.0
 10
34.378701
 20
59.935205
 30
0.0
 10
31.974407
 20
60.390264
 30
0.0
  0
SPLINE
  5
136
100
AcDbEntity
  8
Image
 62
7
100
AcDbSpline
 70
8
 71
3
 72
8
 73
4
 74
0
 40
0
 40
0
 40
0
 40
0
 40
1
 40
1
 40
1
 40
1
 10
31.974407
 20
60.390264
 30
0.0
 10
29.275791
 20
60.901029
 30
0.0
 10
27.703167
 20
61.399619
 30
0.0
 10
25.840002
 20
62.335138
 30
0.0
  0
SPLINE
  5
137
100
AcDbEntity
  8
Image
 62
7
100
AcDbSpline
 70
8
 71
3
 72
8
 73
4
 74
0
 40
0
 40
0
 40
0
 40
0
 40
1
 40
1
 40
1
 40
1
 10
25.840002
 20
62.335138
 30
0.0
 10
22.011374
 20
64.257541
 30
0.0
 10
19.406800
 20
67.380411
 30
0.0
 10
18.379699
 20
71.280000
 30
0.0
  0
SPLINE
  5
138
100
AcDbEntity
  8
Image
 62
7
100
AcDbSpline
 70
8
 71
3
 72
8
 73
4
 74
0
 40
0
 40
0
 40
0
 40
0
 40
1
 40
1
 40
1
 40
1
 10
18.379699
 20
71.280000
 30
0.0
 10
17.878529
 20
73.182786
 30
0.0
 10
17.875304
 20
76.563194
 30
0.0
 10
18.372999
 20
78.308614
 30
0.0
  0
SPLINE
  5
139
100
AcDbEntity
  8
Image
 62
7
100
AcDbSpline
 70
8
 71
3
 72
8
 73
4
 74
0
 40
0
 40
0
 40
0
 40
0
 40
1
 40
1
 40
1
 40
1
 10
18.372999
 20
78.308614
 30
0.0
 10
19.813872
 20
83.361853
 30
0.0
 10
23.690126
 20
86.689264
 30
0.0
 10
29.801500
 20
88.118944
 30
0.0
  0
SPLINE
  5
13a
100
AcDbEntity
  8
Image
 62
7
100
AcDbSpline
 70
8
 71
3
 72
8
 73
4
 74
0
 40
0
 40
0
 40
0
 40
0
 40
1
 40
1
 40
1
 40
1
 10
29.801500
 20
88.118944
 30
0.0
 10
31.378208
 20
88.487795
 30
0.0
 10
31.955185
 20
88.540936
 30
0.0
 10
34.480009
 20
88.549842
 30
0.0
  0
SPLINE
  5
13b
100
AcDbEntity
  8
Image
 62
7
100
AcDbSpline
 70
8
 71
3
 72
8
 73
4
 74
0
 40
0
 40
0
 40
0
 40
0
 40
1
 40
1
 40
1
 40
1
 10
34.480009
 20
88.549842
 30
0.0
 10
36.264782
 20
88.556142
 30
0.0
 10
37.816354
 20
88.476972
 30
0.0
 10
38.560010
 20
88.341677
 30
0.0
  0
SPLINE
  5
13c
100
AcDbEntity
  8
Image
 62
7
100
AcDbSpline
 70
8
 71
3
 72
8
 73
4
 74
0
 40
0
 40
0
 40
0
 40
0
 40
1
 40
1
 40
1
 40
1
 10
38.560010
 20
88.341677
 30
0.0
 10
41.121714
 20
87.875608
 30
0.0
 10
43.723824
 20
86.819507
 30
0.0
 10
45.840010
 20
85.386992
 30
0.0
  0
SPLINE
  5
13d
100
AcDbEntity
  8
Image
 62
7
100
AcDbSpline
 70
8
 71
3
 72
8
 73
4
 74
0
 40
0
 40
0
 40
0
 40
0
 40
1
 40
1
 40
1
 40
1
 10
45.840010
 20
85.386992
 30
0.0
 10
47.048580
 20
84.568872
 30
0.0
 10
50.082471
 20
81.635970
 30
0.0
 10
50.072668
 20
81.295227
 30
0.0
  0
SPLINE
  5
13e
100
AcDbEntity
  8
Image
 62
7
100
AcDbSpline
 70
8
 71
3
 72
8
 73
4
 74
0
 40
0
 40
0
 40
0
 40
0
 40
1
 40
1
 40
1
 40
1
 10
50.072668
 20
81.295227
 30
0.0
 10
50.066568
 20
81.083166
 30
0.0
 10
43.992498
 20
76.270152
 30
0.0
 10
42.801906
 20
75.533968
 30
0.0
  0
SPLINE
  5
13f
100
AcDbEntity
  8
Image
 62
7
100
AcDbSpline
 70
8
 71
3
 72
8
 73
4
 74
0
 40
0
 40
0
 40
0
 40
0
 40
1
 40
1
 40
1
 40
1
 10
42.801906
 20
75.533968
 30
0.0
 10
42.459535
 20
75.322269
 30
0.0
 10
42.380292
 20
75.357366
 30
0.0
 10
41.552122
 20
76.087530
 30
0.0
  0
SPLINE
  5
140
100
AcDbEntity
  8
Image
 62
7
100
AcDbSpline
 70
8
 71
3
 72
8
 73
4
 74
0
 40
0
 40
0
 40
0
 40
0
 40
1
 40
1
 40
1
 40
1
 10
41.552122
 20
76.087530
 30
0.0
 10
39.455133
 20
77.936357
 30
0.0
 10
37.069205
 20
78.915688
 30
0.0
 10
34.640009
 20
78.924686
 30
0.0
  0
SPLINE
  5
141
100
AcDbEntity
  8
Image
 62
7
100
AcDbSpline
 70
8
 71
3
 72
8
 73
4
 74
0
 40
0
 40
0
 40
0
 40
0
 40
1
 40
1
 40
1
 40
1
 10
34.640009
 20
78.924686
 30
0.0
 10
32.385382
 20
78.933086
 30
0.0
 10
30.980012
 20
78.300283
 30
0.0
 10
30.175494
 20
76.914578
 30
0.0
  0
SPLINE
  5
142
100
AcDbEntity
  8
Image
 62
7
100
AcDbSpline
 70
8
 71
3
 72
8
 73
4
 74
0
 40
0
 40
0
 40
0
 40
0
 40
1
 40
1
 40
1
 40
1
 10
30.175494
 20
76.914578
 30
0.0
 10
29.609558
 20
75.939806
 30
0.0
 10
29.507278
 20
75.168979
 30
0.0
 10
29.831294
 20
74.320554
 30
0.0
  0
SPLINE
  5
143
100
AcDbEntity
  8
Image
 62
7
100
AcDbSpline
 70
8
 71
3
 72
8
 73
4
 74
0
 40
0
 40
0
 40
0
 40
0
 40
1
 40
1
 40
1
 40
1
 10
29.831294
 20
74.320554
 30
0.0
 10
30.445683
 20
72.711800
 30
0.0
 10
32.428325
 20
71.704699
 30
0.0
 10
36.769352
 20
70.796310
 30
0.0
  0
SPLINE
  5
144
100
AcDbEntity
  8
Image
 62
7
100
AcDbSpline
 70
8
 71
3
 72
8
 73
4
 74
0
 40
0
 40
0
 40
0
 40
0
 40
1
 40
1
 40
1
 40
1
 10
36.769352
 20
70.796310
 30
0.0
 10
45.538586
 20
68.961288
 30
0.0
 10
49.693977
 20
65.757469
 30
0.0
 10
50.904001
 20
59.898451
 30
0.0
  0
SPLINE
  5
145
100
AcDbEntity
  8
Image
 62
7
100
AcDbSpline
 70
8
 71
3
 72
8
 73
4
 74
0
 40
0
 40
0
 40
0
 40
0
 40
1
 40
1
 40
1
 40
1
 10
50.904001
 20
59.898451
 30
0.0
 10
51.172708
 20
58.597352
 30
0.0
 10
51.218235
 20
57.898293
 30
0.0
 10
51.163100
 20
55.920000
 30
0.0
  0
SPLINE
  5
146
100
AcDbEntity
  8
Image
 62
7
100
AcDbSpline
 70
8
 71
3
 72
8
 73
4
 74
0
 40
0
 40
0
 40
0
 40
0
 40
1
 40
1
 40
1
 40
1
 10
51.163100
 20
55.920000
 30
0.0
 10
51.102790
 20
53.756152
 30
0.0
 10
51.048396
 20
53.383128
 30
0.0
 10
50.610265
 20
52.128974
 30
0.0
  0
SPLINE
  5
147
100
AcDbEntity
  8
Image
 62
7
100
AcDbSpline
 70
8
 71
3
 72
8
 73
4
 74
0
 40
0
 40
0
 40
0
 40
0
 40
1
 40
1
 40
1
 40
1
 10
50.610265
 20
52.128974
 30
0.0
 10
48.903900
 20
47.244490
 30
0.0
 10
44.160149
 20
43.574691
 30
0.0
 10
37.834683
 20
42.245694
 30
0.0
  0
SPLINE
  5
148
100
AcDbEntity
  8
Image
 62
7
100
AcDbSpline
 70
8
 71
3
 72
8
 73
4
 74
0
 40
0
 40
0
 40
0
 40
0
 40
1
 40
1
 40
1
 40
1
 10
37.834683
 20
42.245694
 30
0.0
 10
36.005195
 20
41.861315
 30
0.0
 10
32.151800
 20
41.690046
 30
0.0
 10
30.640009
 20
41.925918
 30
0.0
  0
LWPOLYLINE
  5
149
100
AcDbEntity
  8
Image
 62
7
100
AcDbPolyline
 90
1
 70
1
 10
121.956320
 20
42.701547
 30
0.0
  0
SPLINE
  5
14a
100
AcDbEntity
  8
Image
 62
7
100
AcDbSpline
 70
8
 71
3
 72
8
 73
4
 74
0
 40
0
 40
0
 40
0
 40
0
 40
1
 40
1
 40
1
 40
1
 10
36.669951
 20
42.484091
 30
0.0
 10
40.518583
 20
43.056925
 30
0.0
 10
44.495371
 20
44.917902
 30
0.0
 10
46.965939
 20
47.302205
 30
0.0
  0
SPLINE
  5
14b
100
AcDbEntity
  8
Image
 62
7
100
AcDbSpline
 70
8
 71
3
 72
8
 73
4
 74
0
 40
0
 40
0
 40
0
 40
0
 40
1
 40
1
 40
1
 40
1
 10
46.965939
 20
47.302205
 30
0.0
 10
48.667333
 20
48.944192
 30
0.0
 10
49.998122
 20
51.160141
 30
0.0
 10
50.507858
 20
53.200000
 30
0.0
  0
SPLINE
  5
14c
100
AcDbEntity
  8
Image
 62
7
100
AcDbSpline
 70
8
 71
3
 72
8
 73
4
 74
0
 40
0
 40
0
 40
0
 40
0
 40
1
 40
1
 40
1
 40
1
 10
50.507858
 20
53.200000
 30
0.0
 10
50.926675
 20
54.876021
 30
0.0
 10
50.879992
 20
58.525934
 30
0.0
 10
50.417818
 20
60.240000
 30
0.0
  0
SPLINE
  5
14d
100
AcDbEntity
  8
Image
 62
7
100
AcDbSpline
 70
8
 71
3
 72
8
 73
4
 74
0
 40
0
 40
0
 40
0
 40
0
 40
1
 40
1
 40
1
 40
1
 10
50.417818
 20
60.240000
 30
0.0
 10
48.915933
 20
65.809997
 30
0.0
 10
44.961733
 20
68.680336
 30
0.0
 10
36.320004
 20
70.473550
 30
0.0
  0
SPLINE
  5
14e
100
AcDbEntity
  8
Image
 62
7
100
AcDbSpline
 70
8
 71
3
 72
8
 73
4
 74
0
 40
0
 40
0
 40
0
 40
0
 40
1
 40
1
 40
1
 40
1
 10
36.320004
 20
70.473550
 30
0.0
 10
33.263806
 20
71.107731
 30
0.0
 10
31.580401
 20
71.751314
 30
0.0
 10
30.416830
 20
72.730394
 30
0.0
  0
SPLINE
  5
14f
100
AcDbEntity
  8
Image
 62
7
100
AcDbSpline
 70
8
 71
3
 72
8
 73
4
 74
0
 40
0
 40
0
 40
0
 40
0
 40
1
 40
1
 40
1
 40
1
 10
30.416830
 20
72.730394
 30
0.0
 10
28.880519
 20
74.023115
 30
0.0
 10
28.881061
 20
76.406539
 30
0.0
 10
30.417930
 20
77.950062
 30
0.0
  0
SPLINE
  5
150
100
AcDbEntity
  8
Image
 62
7
100
AcDbSpline
 70
8
 71
3
 72
8
 73
4
 74
0
 40
0
 40
0
 40
0
 40
0
 40
1
 40
1
 40
1
 40
1
 10
30.417930
 20
77.950062
 30
0.0
 10
32.740611
 20
80.282666
 30
0.0
 10
38.116436
 20
79.646238
 30
0.0
 10
41.625519
 20
76.623229
 30
0.0
  0
LWPOLYLINE
  5
151
100
AcDbEntity
  8
Image
 62
7
100
AcDbPolyline
 90
1
 70
1
 10
30.640009
 20
41.925918
 30
0.0
  0
SPLINE
  5
152
100
AcDbEntity
  8
Image
 62
7
100
AcDbSpline
 70
8
 71
3
 72
8
 73
4
 74
0
 40
0
 40
0
 40
0
 40
0
 40
1
 40
1
 40
1
 40
1
 10
43.625519
 20
76.689317
 30
0.0
 10
44.227438
 20
77.154755
 30
0.0
 10
45.824243
 20
78.388002
 30
0.0
 10
47.173977
 20
79.429866
 30
0.0
  0
LWPOLYLINE
  5
153
100
AcDbEntity
  8
Image
 62
7
100
AcDbPolyline
 90
3
 70
0
 10
41.625519
 20
76.623229
 30
0.0
 10
42.531122
 20
75.843069
 30
0.0
 10
43.625519
 20
76.689317
 30
0.0
  0
SPLINE
  5
154
100
AcDbEntity
  8
Image
 62
7
100
AcDbSpline
 70
8
 71
3
 72
8
 73
4
 74
0
 40
0
 40
0
 40
0
 40
0
 40
1
 40
1
 40
1
 40
1
 10
48.453977
 20
82.520971
 30
0.0
 10
45.540377
 20
85.491085
 30
0.0
 10
42.272711
 20
87.249840
 30
0.0
 10
38.401524
 20
87.931536
 30
0.0
  0
SPLINE
  5
155
100
AcDbEntity
  8
Image
 62
7
100
AcDbSpline
 70
8
 71
3
 72
8
 73
4
 74
0
 40
0
 40
0
 40
0
 40
0
 40
1
 40
1
 40
1
 40
1
 10
38.401524
 20
87.931536
 30
0.0
 10
36.743479
 20
88.223509
 30
0.0
 10
33.180367
 20
88.262280
 30
0.0
 10
31.439984
 20
88.007286
 30
0.0
  0
SPLINE
  5
156
100
AcDbEntity
  8
Image
 62
7
100
AcDbSpline
 70
8
 71
3
 72
8
 73
4
 74
0
 40
0
 40
0
 40
0
 40
0
 40
1
 40
1
 40
1
 40
1
 10
31.439984
 20
88.007286
 30
0.0
 10
23.494721
 20
86.843180
 30
0.0
 10
18.405746
 20
81.732680
 30
0.0
 10
18.401105
 20
74.913252
 30
0.0
  0
SPLINE
  5
157
100
AcDbEntity
  8
Image
 62
7
100
AcDbSpline
 70
8
 71
3
 72
8
 73
4
 74
0
 40
0
 40
0
 40
0
 40
0
 40
1
 40
1
 40
1
 40
1
 10
18.401105
 20
74.913252
 30
0.0
 10
18.396905
 20
68.686838
 30
0.0
 10
21.931615
 20
64.041401
 30
0.0
 10
28.457208
 20
61.697324
 30
0.0
  0
SPLINE
  5
158
100
AcDbEntity
  8
Image
 62
7
100
AcDbSpline
 70
8
 71
3
 72
8
 73
4
 74
0
 40
0
 40
0
 40
0
 40
0
 40
1
 40
1
 40
1
 40
1
 10
28.457208
 20
61.697324
 30
0.0
 10
29.104681
 20
61.464744
 30
0.0
 10
30.890675
 20
61.021577
 30
0.0
 10
32.426082
 20
60.712510
 30
0.0
  0
SPLINE
  5
159
100
AcDbEntity
  8
Image
 62
7
100
AcDbSpline
 70
8
 71
3
 72
8
 73
4
 74
0
 40
0
 40
0
 40
0
 40
0
 40
1
 40
1
 40
1
 40
1
 10
32.426082
 20
60.712510
 30
0.0
 10
36.150472
 20
59.962814
 30
0.0
 10
37.672948
 20
59.391449
 30
0.0
 10
38.899900
 20
58.282971
 30
0.0
  0
SPLINE
  5
15a
100
AcDbEntity
  8
Image
 62
7
100
AcDbSpline
 70
8
 71
3
 72
8
 73
4
 74
0
 40
0
 40
0
 40
0
 40
0
 40
1
 40
1
 40
1
 40
1
 10
38.899900
 20
58.282971
 30
0.0
 10
39.726593
 20
57.536105
 30
0.0
 10
39.999985
 20
56.989320
 30
0.0
 10
39.999985
 20
56.082804
 30
0.0
  0
SPLINE
  5
15b
100
AcDbEntity
  8
Image
 62
7
100
AcDbSpline
 70
8
 71
3
 72
8
 73
4
 74
0
 40
0
 40
0
 40
0
 40
0
 40
1
 40
1
 40
1
 40
1
 10
39.999985
 20
56.082804
 30
0.0
 10
39.999985
 20
53.797012
 30
0.0
 10
37.765293
 20
52.314662
 30
0.0
 10
34.330599
 20
52.322100
 30
0.0
  0
SPLINE
  5
15c
100
AcDbEntity
  8
Image
 62
7
100
AcDbSpline
 70
8
 71
3
 72
8
 73
4
 74
0
 40
0
 40
0
 40
0
 40
0
 40
1
 40
1
 40
1
 40
1
 10
34.330599
 20
52.322100
 30
0.0
 10
31.390354
 20
52.328500
 30
0.0
 10
27.558357
 20
53.881625
 30
0.0
 10
25.565121
 20
55.874860
 30
0.0
  0
LWPOLYLINE
  5
15d
100
AcDbEntity
  8
Image
 62
7
100
AcDbPolyline
 90
3
 70
0
 10
47.173977
 20
79.429866
 30
0.0
 10
49.628036
 20
81.324165
 30
0.0
 10
48.453977
 20
82.520971
 30
0.0
  0
SPLINE
  5
15e
100
AcDbEntity
  8
Image
 62
7
100
AcDbSpline
 70
8
 71
3
 72
8
 73
4
 74
0
 40
0
 40
0
 40
0
 40
0
 40
1
 40
1
 40
1
 40
1
 10
23.082443
 20
54.770222
 30
0.0
 10
22.061043
 20
53.818600
 30
0.0
 10
20.506566
 20
52.353454
 30
0.0
 10
19.628052
 20
51.514344
 30
0.0
  0
LWPOLYLINE
  5
15f
100
AcDbEntity
  8
Image
 62
7
100
AcDbPolyline
 90
3
 70
0
 10
25.565121
 20
55.874860
 30
0.0
 10
24.939534
 20
56.500448
 30
0.0
 10
23.082443
 20
54.770222
 30
0.0
  0
SPLINE
  5
160
100
AcDbEntity
  8
Image
 62
7
100
AcDbSpline
 70
8
 71
3
 72
8
 73
4
 74
0
 40
0
 40
0
 40
0
 40
0
 40
1
 40
1
 40
1
 40
1
 10
19.696052
 20
48.314344
 30
0.0
 10
21.557564
 20
46.442720
 30
0.0
 10
23.316888
 20
45.122676
 30
0.0
 10
25.209841
 20
44.177276
 30
0.0
  0
SPLINE
  5
161
100
AcDbEntity
  8
Image
 62
7
100
AcDbSpline
 70
8
 71
3
 72
8
 73
4
 74
0
 40
0
 40
0
 40
0
 40
0
 40
1
 40
1
 40
1
 40
1
 10
25.209841
 20
44.177276
 30
0.0
 10
29.006382
 20
42.281164
 30
0.0
 10
32.168099
 20
41.814032
 30
0.0
 10
36.669933
 20
42.484089
 30
0.0
  0
LWPOLYLINE
  5
162
100
AcDbEntity
  8
Image
 62
7
100
AcDbPolyline
 90
3
 70
0
 10
19.628052
 20
51.514344
 30
0.0
 10
18.030753
 20
49.988689
 30
0.0
 10
19.696052
 20
48.314344
 30
0.0
  0
LWPOLYLINE
  5
163
100
AcDbEntity
  8
Image
 62
7
100
AcDbPolyline
 90
1
 70
1
 10
36.669933
 20
42.484089
 30
0.0
  0
ENDSEC
  0
SECTION
  2
OBJECTS
  0
DICTIONARY
  5
C
330
0
100
AcDbDictionary
  3
ACAD_GROUP
350
D
  3
ACAD_MLINESTYLE
350
17
  0
DICTIONARY
  5
D
330
C
100
AcDbDictionary
  0
DICTIONARY
  5
1A
330
C
100
AcDbDictionary
  0
DICTIONARY
  5
17
330
C
100
AcDbDictionary
  3
STANDARD
350
18
  0
DICTIONARY
  5
19
330
C
100
AcDbDictionary
  0
ENDSEC
  0
EOF
