  0
SECTION
  2
HEADER
  9
$ACADVER
  1
AC1014
  9
$HANDSEED
  5
FFFF
  9
$MEASUREMENT
 70
     1
  0
ENDSEC
  0
SECTION
  2
TABLES
  0
TABLE
  2
VPORT
  5
8
330
0
100
AcDbSymbolTable
 70
     4
  0
VPORT
  5
2E
330
8
100
AcDbSymbolTableRecord
100
AcDbViewportTableRecord
  2
*ACTIVE
 70
     0
 10
0.0
 20
0.0
 11
1.0
 21
1.0
 12
210.0
 22
148.5
 13
0.0
 23
0.0
 14
10.0
 24
10.0
 15
10.0
 25
10.0
 16
0.0
 26
0.0
 36
1.0
 17
0.0
 27
0.0
 37
0.0
 40
341.0
 41
1.24
 42
50.0
 43
0.0
 44
0.0
 50
0.0
 51
0.0
 71
     0
 72
   100
 73
     1
 74
     3
 75
     0
 76
     0
 77
     0
 78
     0
  0
ENDTAB
  0
TABLE
  2
LTYPE
  5
5
330
0
100
AcDbSymbolTable
 70
     1
  0
LTYPE
  5
14
330
5
100
AcDbSymbolTableRecord
100
AcDbLinetypeTableRecord
  2
BYBLOCK
 70
     0
  3

 72
    65
 73
     0
 40
0.0
  0
LTYPE
  5
15
330
5
100
AcDbSymbolTableRecord
100
AcDbLinetypeTableRecord
  2
BYLAYER
 70
     0
  3

 72
    65
 73
     0
 40
0.0
  0
LTYPE
  5
16
330
5
100
AcDbSymbolTableRecord
100
AcDbLinetypeTableRecord
  2
CONTINUOUS
 70
     0
  3
Solid line
 72
    65
 73
     0
 40
0.0
  0
ENDTAB
  0
TABLE
  2
LAYER
  5
2
100
AcDbSymbolTable
 70
2
  0
LAYER
  5
50
100
AcDbSymbolTableRecord
100
AcDbLayerTableRecord
  2
0
 70
0
  6
CONTINUOUS
  0
LAYER
  5
51
100
AcDbSymbolTableRecord
100
AcDbLayerTableRecord
  2
Image
 70
0
  6
CONTINUOUS
  0
ENDTAB
  0
TABLE
  2
STYLE
  5
3
330
0
100
AcDbSymbolTable
 70
     1
  0
STYLE
  5
11
330
3
100
AcDbSymbolTableRecord
100
AcDbTextStyleTableRecord
  2
STANDARD
 70
     0
 40
0.0
 41
1.0
 50
0.0
 71
     0
 42
2.5
  3
txt
  4

  0
ENDTAB
  0
TABLE
  2
VIEW
  5
6
330
0
100
AcDbSymbolTable
 70
     0
  0
ENDTAB
  0
TABLE
  2
UCS
  5
7
330
0
100
AcDbSymbolTable
 70
     0
  0
ENDTAB
  0
TABLE
  2
APPID
  5
9
330
0
100
AcDbSymbolTable
 70
     2
  0
APPID
  5
12
330
9
100
AcDbSymbolTableRecord
100
AcDbRegAppTableRecord
  2
ACAD
 70
     0
  0
ENDTAB
  0
TABLE
  2
DIMSTYLE
  5
A
330
0
100
AcDbSymbolTable
 70
     1
  0
DIMSTYLE
105
27
330
A
100
AcDbSymbolTableRecord
100
AcDbDimStyleTableRecord
  2
ISO-25
 70
     0
  3

  4

  5

  6

  7

 40
1.0
 41
2.5
 42
0.625
 43
3.75
 44
1.25
 45
0.0
 46
0.0
 47
0.0
 48
0.0
140
2.5
141
2.5
142
0.0
143
0.03937007874016
144
1.0
145
0.0
146
1.0
147
0.625
 71
     0
 72
     0
 73
     0
 74
     0
 75
     0
 76
     0
 77
     1
 78
     8
170
     0
171
     3
172
     1
173
     0
174
     0
175
     0
176
     0
177
     0
178
     0
270
     2
271
     2
272
     2
273
     2
274
     3
340
11
275
     0
280
     0
281
     0
282
     0
283
     0
284
     8
285
     0
286
     0
287
     3
288
     0
  0
ENDTAB
  0
TABLE
  2
BLOCK_RECORD
  5
1
330
0
100
AcDbSymbolTable
 70
     1
  0
BLOCK_RECORD
  5
1F
330
1
100
AcDbSymbolTableRecord
100
AcDbBlockTableRecord
  2
*MODEL_SPACE
  0
BLOCK_RECORD
  5
1B
330
1
100
AcDbSymbolTableRecord
100
AcDbBlockTableRecord
  2
*PAPER_SPACE
  0
ENDTAB
  0
ENDSEC
  0
SECTION
  2
BLOCKS
  0
BLOCK
  5
20
330
1F
100
AcDbEntity
  8
0
100
AcDbBlockBegin
  2
*MODEL_SPACE
 70
     0
 10
0.0
 20
0.0
 30
0.0
  3
*MODEL_SPACE
  1

  0
ENDBLK
  5
21
330
1F
100
AcDbEntity
  8
0
100
AcDbBlockEnd
  0
BLOCK
  5
1C
330
1B
100
AcDbEntity
 67
     1
  8
0
100
AcDbBlockBegin
  2
*PAPER_SPACE
  1

  0
ENDBLK
  5
1D
330
1B
100
AcDbEntity
 67
     1
  8
0
100
AcDbBlockEnd
  0
ENDSEC
  0
SECTION
  2
ENTITIES
  0
SPLINE
  5
100
100
AcDbEntity
  8
Image
 62
7
100
AcDbSpline
 70
8
 71
3
 72
8
 73
4
 74
0
 40
0
 40
0
 40
0
 40
0
 40
1
 40
1
 40
1
 40
1
 10
0.187502
 20
0.181468
 30
0.0
 10
0.044601
 20
0.221604
 30
0.0
 10
0.097560
 20
0.386400
 30
0.0
 10
0.251043
 20
0.379193
 30
0.0
  0
SPLINE
  5
101
100
AcDbEntity
  8
Image
 62
7
100
AcDbSpline
 70
8
 71
3
 72
8
 73
4
 74
0
 40
0
 40
0
 40
0
 40
0
 40
1
 40
1
 40
1
 40
1
 10
0.251043
 20
0.379193
 30
0.0
 10
0.282435
 20
0.377719
 30
0.0
 10
0.297623
 20
0.372538
 30
0.0
 10
0.320813
 20
0.355392
 30
0.0
  0
SPLINE
  5
102
100
AcDbEntity
  8
Image
 62
7
100
AcDbSpline
 70
8
 71
3
 72
8
 73
4
 74
0
 40
0
 40
0
 40
0
 40
0
 40
1
 40
1
 40
1
 40
1
 10
0.320813
 20
0.355392
 30
0.0
 10
0.343687
 20
0.338481
 30
0.0
 10
0.351419
 20
0.359189
 30
0.0
 10
0.353333
 20
0.442487
 30
0.0
  0
SPLINE
  5
103
100
AcDbEntity
  8
Image
 62
7
100
AcDbSpline
 70
8
 71
3
 72
8
 73
4
 74
0
 40
0
 40
0
 40
0
 40
0
 40
1
 40
1
 40
1
 40
1
 10
0.353333
 20
0.442487
 30
0.0
 10
0.355581
 20
0.540305
 30
0.0
 10
0.364769
 20
0.560590
 30
0.0
 10
0.418636
 20
0.586667
 30
0.0
  0
SPLINE
  5
104
100
AcDbEntity
  8
Image
 62
7
100
AcDbSpline
 70
8
 71
3
 72
8
 73
4
 74
0
 40
0
 40
0
 40
0
 40
0
 40
1
 40
1
 40
1
 40
1
 10
0.418636
 20
0.586667
 30
0.0
 10
0.433398
 20
0.593813
 30
0.0
 10
0.433398
 20
0.593813
 30
0.0
 10
0.412532
 20
0.607328
 30
0.0
  0
SPLINE
  5
105
100
AcDbEntity
  8
Image
 62
7
100
AcDbSpline
 70
8
 71
3
 72
8
 73
4
 74
0
 40
0
 40
0
 40
0
 40
0
 40
1
 40
1
 40
1
 40
1
 10
0.412532
 20
0.607328
 30
0.0
 10
0.351948
 20
0.646569
 30
0.0
 10
0.324023
 20
0.632777
 30
0.0
 10
0.328206
 20
0.565680
 30
0.0
  0
SPLINE
  5
106
100
AcDbEntity
  8
Image
 62
7
100
AcDbSpline
 70
8
 71
3
 72
8
 73
4
 74
0
 40
0
 40
0
 40
0
 40
0
 40
1
 40
1
 40
1
 40
1
 10
0.328206
 20
0.565680
 30
0.0
 10
0.335524
 20
0.448299
 30
0.0
 10
0.245502
 20
0.360664
 30
0.0
 10
0.165759
 20
0.407538
 30
0.0
  0
SPLINE
  5
107
100
AcDbEntity
  8
Image
 62
7
100
AcDbSpline
 70
8
 71
3
 72
8
 73
4
 74
0
 40
0
 40
0
 40
0
 40
0
 40
1
 40
1
 40
1
 40
1
 10
0.165759
 20
0.407538
 30
0.0
 10
0.105698
 20
0.442843
 30
0.0
 10
0.129634
 20
0.536595
 30
0.0
 10
0.192590
 20
0.512633
 30
0.0
  0
SPLINE
  5
108
100
AcDbEntity
  8
Image
 62
7
100
AcDbSpline
 70
8
 71
3
 72
8
 73
4
 74
0
 40
0
 40
0
 40
0
 40
0
 40
1
 40
1
 40
1
 40
1
 10
0.192590
 20
0.512633
 30
0.0
 10
0.233906
 20
0.496908
 30
0.0
 10
0.227200
 20
0.435598
 30
0.0
 10
0.183353
 20
0.428191
 30
0.0
  0
SPLINE
  5
109
100
AcDbEntity
  8
Image
 62
7
100
AcDbSpline
 70
8
 71
3
 72
8
 73
4
 74
0
 40
0
 40
0
 40
0
 40
0
 40
1
 40
1
 40
1
 40
1
 10
0.183353
 20
0.428191
 30
0.0
 10
0.160283
 20
0.424293
 30
0.0
 10
0.172881
 20
0.418934
 30
0.0
 10
0.201693
 20
0.420389
 30
0.0
  0
SPLINE
  5
10a
100
AcDbEntity
  8
Image
 62
7
100
AcDbSpline
 70
8
 71
3
 72
8
 73
4
 74
0
 40
0
 40
0
 40
0
 40
0
 40
1
 40
1
 40
1
 40
1
 10
0.201693
 20
0.420389
 30
0.0
 10
0.248438
 20
0.422749
 30
0.0
 10
0.272530
 20
0.466645
 30
0.0
 10
0.259760
 20
0.526188
 30
0.0
  0
SPLINE
  5
10b
100
AcDbEntity
  8
Image
 62
7
100
AcDbSpline
 70
8
 71
3
 72
8
 73
4
 74
0
 40
0
 40
0
 40
0
 40
0
 40
1
 40
1
 40
1
 40
1
 10
0.259760
 20
0.526188
 30
0.0
 10
0.250070
 20
0.571370
 30
0.0
 10
0.227407
 20
0.583804
 30
0.0
 10
0.153616
 20
0.584420
 30
0.0
  0
SPLINE
  5
10c
100
AcDbEntity
  8
Image
 62
7
100
AcDbSpline
 70
8
 71
3
 72
8
 73
4
 74
0
 40
0
 40
0
 40
0
 40
0
 40
1
 40
1
 40
1
 40
1
 10
0.153616
 20
0.584420
 30
0.0
 10
0.068589
 20
0.585130
 30
0.0
 10
0.019696
 20
0.630620
 30
0.0
 10
0.047462
 20
0.683187
 30
0.0
  0
SPLINE
  5
10d
100
AcDbEntity
  8
Image
 62
7
100
AcDbSpline
 70
8
 71
3
 72
8
 73
4
 74
0
 40
0
 40
0
 40
0
 40
0
 40
1
 40
1
 40
1
 40
1
 10
0.047462
 20
0.683187
 30
0.0
 10
0.055199
 20
0.697836
 30
0.0
 10
0.065000
 20
0.694111
 30
0.0
 10
0.065000
 20
0.676521
 30
0.0
  0
SPLINE
  5
10e
100
AcDbEntity
  8
Image
 62
7
100
AcDbSpline
 70
8
 71
3
 72
8
 73
4
 74
0
 40
0
 40
0
 40
0
 40
0
 40
1
 40
1
 40
1
 40
1
 10
0.065000
 20
0.676521
 30
0.0
 10
0.065000
 20
0.656223
 30
0.0
 10
0.077288
 20
0.654884
 30
0.0
 10
0.122869
 20
0.670214
 30
0.0
  0
SPLINE
  5
10f
100
AcDbEntity
  8
Image
 62
7
100
AcDbSpline
 70
8
 71
3
 72
8
 73
4
 74
0
 40
0
 40
0
 40
0
 40
0
 40
1
 40
1
 40
1
 40
1
 10
0.122869
 20
0.670214
 30
0.0
 10
0.204982
 20
0.697832
 30
0.0
 10
0.272894
 20
0.681187
 30
0.0
 10
0.310524
 20
0.624223
 30
0.0
  0
SPLINE
  5
110
100
AcDbEntity
  8
Image
 62
7
100
AcDbSpline
 70
8
 71
3
 72
8
 73
4
 74
0
 40
0
 40
0
 40
0
 40
0
 40
1
 40
1
 40
1
 40
1
 10
0.310524
 20
0.624223
 30
0.0
 10
0.315251
 20
0.617066
 30
0.0
 10
0.315726
 20
0.617385
 30
0.0
 10
0.335181
 20
0.640786
 30
0.0
  0
SPLINE
  5
111
100
AcDbEntity
  8
Image
 62
7
100
AcDbSpline
 70
8
 71
3
 72
8
 73
4
 74
0
 40
0
 40
0
 40
0
 40
0
 40
1
 40
1
 40
1
 40
1
 10
0.335181
 20
0.640786
 30
0.0
 10
0.375537
 20
0.689331
 30
0.0
 10
0.421297
 20
0.698432
 30
0.0
 10
0.484016
 20
0.670390
 30
0.0
  0
SPLINE
  5
112
100
AcDbEntity
  8
Image
 62
7
100
AcDbSpline
 70
8
 71
3
 72
8
 73
4
 74
0
 40
0
 40
0
 40
0
 40
0
 40
1
 40
1
 40
1
 40
1
 10
0.484016
 20
0.670390
 30
0.0
 10
0.530744
 20
0.649498
 30
0.0
 10
0.538963
 20
0.649021
 30
0.0
 10
0.557522
 20
0.666129
 30
0.0
  0
SPLINE
  5
113
100
AcDbEntity
  8
Image
 62
7
100
AcDbSpline
 70
8
 71
3
 72
8
 73
4
 74
0
 40
0
 40
0
 40
0
 40
0
 40
1
 40
1
 40
1
 40
1
 10
0.557522
 20
0.666129
 30
0.0
 10
0.588553
 20
0.694732
 30
0.0
 10
0.588802
 20
0.676523
 30
0.0
 10
0.557962
 20
0.634021
 30
0.0
  0
SPLINE
  5
114
100
AcDbEntity
  8
Image
 62
7
100
AcDbSpline
 70
8
 71
3
 72
8
 73
4
 74
0
 40
0
 40
0
 40
0
 40
0
 40
1
 40
1
 40
1
 40
1
 10
0.557962
 20
0.634021
 30
0.0
 10
0.554674
 20
0.629488
 30
0.0
 10
0.554000
 20
0.626521
 30
0.0
 10
0.556260
 20
0.626521
 30
0.0
  0
SPLINE
  5
115
100
AcDbEntity
  8
Image
 62
7
100
AcDbSpline
 70
8
 71
3
 72
8
 73
4
 74
0
 40
0
 40
0
 40
0
 40
0
 40
1
 40
1
 40
1
 40
1
 10
0.556260
 20
0.626521
 30
0.0
 10
0.562828
 20
0.626521
 30
0.0
 10
0.560297
 20
0.616872
 30
0.0
 10
0.550000
 20
0.602658
 30
0.0
  0
SPLINE
  5
116
100
AcDbEntity
  8
Image
 62
7
100
AcDbSpline
 70
8
 71
3
 72
8
 73
4
 74
0
 40
0
 40
0
 40
0
 40
0
 40
1
 40
1
 40
1
 40
1
 10
0.550000
 20
0.602658
 30
0.0
 10
0.532563
 20
0.578587
 30
0.0
 10
0.536192
 20
0.559105
 30
0.0
 10
0.565171
 20
0.521199
 30
0.0
  0
SPLINE
  5
117
100
AcDbEntity
  8
Image
 62
7
100
AcDbSpline
 70
8
 71
3
 72
8
 73
4
 74
0
 40
0
 40
0
 40
0
 40
0
 40
1
 40
1
 40
1
 40
1
 10
0.565171
 20
0.521199
 30
0.0
 10
0.627301
 20
0.439932
 30
0.0
 10
0.607685
 20
0.375636
 30
0.0
 10
0.500464
 20
0.309108
 30
0.0
  0
SPLINE
  5
118
100
AcDbEntity
  8
Image
 62
7
100
AcDbSpline
 70
8
 71
3
 72
8
 73
4
 74
0
 40
0
 40
0
 40
0
 40
0
 40
1
 40
1
 40
1
 40
1
 10
0.500464
 20
0.309108
 30
0.0
 10
0.479513
 20
0.296108
 30
0.0
 10
0.457514
 20
0.281207
 30
0.0
 10
0.451578
 20
0.275996
 30
0.0
  0
SPLINE
  5
119
100
AcDbEntity
  8
Image
 62
7
100
AcDbSpline
 70
8
 71
3
 72
8
 73
4
 74
0
 40
0
 40
0
 40
0
 40
0
 40
1
 40
1
 40
1
 40
1
 10
0.451578
 20
0.275996
 30
0.0
 10
0.435151
 20
0.261572
 30
0.0
 10
0.405913
 20
0.283643
 30
0.0
 10
0.374724
 20
0.334012
 30
0.0
  0
SPLINE
  5
11a
100
AcDbEntity
  8
Image
 62
7
100
AcDbSpline
 70
8
 71
3
 72
8
 73
4
 74
0
 40
0
 40
0
 40
0
 40
0
 40
1
 40
1
 40
1
 40
1
 10
0.374724
 20
0.334012
 30
0.0
 10
0.364460
 20
0.350587
 30
0.0
 10
0.362010
 20
0.352713
 30
0.0
 10
0.356541
 20
0.349787
 30
0.0
  0
SPLINE
  5
11b
100
AcDbEntity
  8
Image
 62
7
100
AcDbSpline
 70
8
 71
3
 72
8
 73
4
 74
0
 40
0
 40
0
 40
0
 40
0
 40
1
 40
1
 40
1
 40
1
 10
0.356541
 20
0.349787
 30
0.0
 10
0.345985
 20
0.344137
 30
0.0
 10
0.291750
 20
0.291071
 30
0.0
 10
0.281678
 20
0.276536
 30
0.0
  0
SPLINE
  5
11c
100
AcDbEntity
  8
Image
 62
7
100
AcDbSpline
 70
8
 71
3
 72
8
 73
4
 74
0
 40
0
 40
0
 40
0
 40
0
 40
1
 40
1
 40
1
 40
1
 10
0.281678
 20
0.276536
 30
0.0
 10
0.271077
 20
0.261240
 30
0.0
 10
0.263887
 20
0.260408
 30
0.0
 10
0.257497
 20
0.273741
 30
0.0
  0
SPLINE
  5
11d
100
AcDbEntity
  8
Image
 62
7
100
AcDbSpline
 70
8
 71
3
 72
8
 73
4
 74
0
 40
0
 40
0
 40
0
 40
0
 40
1
 40
1
 40
1
 40
1
 10
0.257497
 20
0.273741
 30
0.0
 10
0.228544
 20
0.334150
 30
0.0
 10
0.114812
 20
0.329080
 30
0.0
 10
0.121040
 20
0.267658
 30
0.0
  0
SPLINE
  5
11e
100
AcDbEntity
  8
Image
 62
7
100
AcDbSpline
 70
8
 71
3
 72
8
 73
4
 74
0
 40
0
 40
0
 40
0
 40
0
 40
1
 40
1
 40
1
 40
1
 10
0.121040
 20
0.267658
 30
0.0
 10
0.128001
 20
0.199006
 30
0.0
 10
0.278948
 20
0.187019
 30
0.0
 10
0.347502
 20
0.249674
 30
0.0
  0
SPLINE
  5
11f
100
AcDbEntity
  8
Image
 62
7
100
AcDbSpline
 70
8
 71
3
 72
8
 73
4
 74
0
 40
0
 40
0
 40
0
 40
0
 40
1
 40
1
 40
1
 40
1
 10
0.347502
 20
0.249674
 30
0.0
 10
0.371941
 20
0.272010
 30
0.0
 10
0.380957
 20
0.270931
 30
0.0
 10
0.368655
 20
0.247143
 30
0.0
  0
SPLINE
  5
120
100
AcDbEntity
  8
Image
 62
7
100
AcDbSpline
 70
8
 71
3
 72
8
 73
4
 74
0
 40
0
 40
0
 40
0
 40
0
 40
1
 40
1
 40
1
 40
1
 10
0.368655
 20
0.247143
 30
0.0
 10
0.342372
 20
0.196317
 30
0.0
 10
0.251688
 20
0.163441
 30
0.0
 10
0.187502
 20
0.181468
 30
0.0
  0
SPLINE
  5
121
100
AcDbEntity
  8
Image
 62
7
100
AcDbSpline
 70
8
 71
3
 72
8
 73
4
 74
0
 40
0
 40
0
 40
0
 40
0
 40
1
 40
1
 40
1
 40
1
 10
0.266378
 20
0.188325
 30
0.0
 10
0.290134
 20
0.193925
 30
0.0
 10
0.312374
 20
0.205045
 30
0.0
 10
0.330000
 20
0.220139
 30
0.0
  0
SPLINE
  5
122
100
AcDbEntity
  8
Image
 62
7
100
AcDbSpline
 70
8
 71
3
 72
8
 73
4
 74
0
 40
0
 40
0
 40
0
 40
0
 40
1
 40
1
 40
1
 40
1
 10
0.330000
 20
0.220139
 30
0.0
 10
0.341667
 20
0.230130
 30
0.0
 10
0.341667
 20
0.230130
 30
0.0
 10
0.325505
 20
0.220198
 30
0.0
  0
SPLINE
  5
123
100
AcDbEntity
  8
Image
 62
7
100
AcDbSpline
 70
8
 71
3
 72
8
 73
4
 74
0
 40
0
 40
0
 40
0
 40
0
 40
1
 40
1
 40
1
 40
1
 10
0.325505
 20
0.220198
 30
0.0
 10
0.287549
 20
0.196871
 30
0.0
 10
0.191860
 20
0.196096
 30
0.0
 10
0.145000
 20
0.218735
 30
0.0
  0
SPLINE
  5
124
100
AcDbEntity
  8
Image
 62
7
100
AcDbSpline
 70
8
 71
3
 72
8
 73
4
 74
0
 40
0
 40
0
 40
0
 40
0
 40
1
 40
1
 40
1
 40
1
 10
0.145000
 20
0.218735
 30
0.0
 10
0.128333
 20
0.226787
 30
0.0
 10
0.128333
 20
0.226787
 30
0.0
 10
0.138333
 20
0.218132
 30
0.0
  0
SPLINE
  5
125
100
AcDbEntity
  8
Image
 62
7
100
AcDbSpline
 70
8
 71
3
 72
8
 73
4
 74
0
 40
0
 40
0
 40
0
 40
0
 40
1
 40
1
 40
1
 40
1
 10
0.138333
 20
0.218132
 30
0.0
 10
0.171156
 20
0.189725
 30
0.0
 10
0.222053
 20
0.177877
 30
0.0
 10
0.266378
 20
0.188325
 30
0.0
  0
LWPOLYLINE
  5
126
100
AcDbEntity
  8
Image
 62
7
100
AcDbPolyline
 90
1
 70
1
 10
0.187502
 20
0.181468
 30
0.0
  0
SPLINE
  5
127
100
AcDbEntity
  8
Image
 62
7
100
AcDbSpline
 70
8
 71
3
 72
8
 73
4
 74
0
 40
0
 40
0
 40
0
 40
0
 40
1
 40
1
 40
1
 40
1
 10
0.311966
 20
0.325277
 30
0.0
 10
0.325988
 20
0.336767
 30
0.0
 10
0.330183
 20
0.343187
 30
0.0
 10
0.323668
 20
0.343187
 30
0.0
  0
SPLINE
  5
128
100
AcDbEntity
  8
Image
 62
7
100
AcDbSpline
 70
8
 71
3
 72
8
 73
4
 74
0
 40
0
 40
0
 40
0
 40
0
 40
1
 40
1
 40
1
 40
1
 10
0.323668
 20
0.343187
 30
0.0
 10
0.322019
 20
0.343187
 30
0.0
 10
0.313030
 20
0.348329
 30
0.0
 10
0.303692
 20
0.354613
 30
0.0
  0
SPLINE
  5
129
100
AcDbEntity
  8
Image
 62
7
100
AcDbSpline
 70
8
 71
3
 72
8
 73
4
 74
0
 40
0
 40
0
 40
0
 40
0
 40
1
 40
1
 40
1
 40
1
 10
0.303692
 20
0.354613
 30
0.0
 10
0.250891
 20
0.390145
 30
0.0
 10
0.155104
 20
0.366287
 30
0.0
 10
0.121835
 20
0.309316
 30
0.0
  0
SPLINE
  5
12a
100
AcDbEntity
  8
Image
 62
7
100
AcDbSpline
 70
8
 71
3
 72
8
 73
4
 74
0
 40
0
 40
0
 40
0
 40
0
 40
1
 40
1
 40
1
 40
1
 10
0.121835
 20
0.309316
 30
0.0
 10
0.115336
 20
0.298187
 30
0.0
 10
0.115336
 20
0.298187
 30
0.0
 10
0.125870
 20
0.307028
 30
0.0
  0
SPLINE
  5
12b
100
AcDbEntity
  8
Image
 62
7
100
AcDbSpline
 70
8
 71
3
 72
8
 73
4
 74
0
 40
0
 40
0
 40
0
 40
0
 40
1
 40
1
 40
1
 40
1
 10
0.125870
 20
0.307028
 30
0.0
 10
0.152246
 20
0.329164
 30
0.0
 10
0.197744
 20
0.332957
 30
0.0
 10
0.227529
 20
0.315501
 30
0.0
  0
SPLINE
  5
12c
100
AcDbEntity
  8
Image
 62
7
100
AcDbSpline
 70
8
 71
3
 72
8
 73
4
 74
0
 40
0
 40
0
 40
0
 40
0
 40
1
 40
1
 40
1
 40
1
 10
0.227529
 20
0.315501
 30
0.0
 10
0.242775
 20
0.306567
 30
0.0
 10
0.266667
 20
0.282563
 30
0.0
 10
0.266667
 20
0.276181
 30
0.0
  0
SPLINE
  5
12d
100
AcDbEntity
  8
Image
 62
7
100
AcDbSpline
 70
8
 71
3
 72
8
 73
4
 74
0
 40
0
 40
0
 40
0
 40
0
 40
1
 40
1
 40
1
 40
1
 10
0.266667
 20
0.276181
 30
0.0
 10
0.266667
 20
0.274171
 30
0.0
 10
0.273551
 20
0.281685
 30
0.0
 10
0.281966
 20
0.292879
 30
0.0
  0
SPLINE
  5
12e
100
AcDbEntity
  8
Image
 62
7
100
AcDbSpline
 70
8
 71
3
 72
8
 73
4
 74
0
 40
0
 40
0
 40
0
 40
0
 40
1
 40
1
 40
1
 40
1
 10
0.281966
 20
0.292879
 30
0.0
 10
0.290380
 20
0.304072
 30
0.0
 10
0.303880
 20
0.318652
 30
0.0
 10
0.311966
 20
0.325277
 30
0.0
  0
LWPOLYLINE
  5
12f
100
AcDbEntity
  8
Image
 62
7
100
AcDbPolyline
 90
1
 70
1
 10
0.266378
 20
0.188325
 30
0.0
  0
SPLINE
  5
130
100
AcDbEntity
  8
Image
 62
7
100
AcDbSpline
 70
8
 71
3
 72
8
 73
4
 74
0
 40
0
 40
0
 40
0
 40
0
 40
1
 40
1
 40
1
 40
1
 10
0.483063
 20
0.310300
 30
0.0
 10
0.501044
 20
0.320937
 30
0.0
 10
0.502612
 20
0.322646
 30
0.0
 10
0.495930
 20
0.324323
 30
0.0
  0
SPLINE
  5
131
100
AcDbEntity
  8
Image
 62
7
100
AcDbSpline
 70
8
 71
3
 72
8
 73
4
 74
0
 40
0
 40
0
 40
0
 40
0
 40
1
 40
1
 40
1
 40
1
 10
0.495930
 20
0.324323
 30
0.0
 10
0.439911
 20
0.338382
 30
0.0
 10
0.413365
 20
0.438833
 30
0.0
 10
0.433300
 20
0.561318
 30
0.0
  0
SPLINE
  5
132
100
AcDbEntity
  8
Image
 62
7
100
AcDbSpline
 70
8
 71
3
 72
8
 73
4
 74
0
 40
0
 40
0
 40
0
 40
0
 40
1
 40
1
 40
1
 40
1
 10
0.433300
 20
0.561318
 30
0.0
 10
0.439888
 20
0.601796
 30
0.0
 10
0.381222
 20
0.562057
 30
0.0
 10
0.367595
 20
0.516811
 30
0.0
  0
SPLINE
  5
133
100
AcDbEntity
  8
Image
 62
7
100
AcDbSpline
 70
8
 71
3
 72
8
 73
4
 74
0
 40
0
 40
0
 40
0
 40
0
 40
1
 40
1
 40
1
 40
1
 10
0.367595
 20
0.516811
 30
0.0
 10
0.361039
 20
0.495043
 30
0.0
 10
0.358859
 20
0.363198
 30
0.0
 10
0.365055
 20
0.363191
 30
0.0
  0
SPLINE
  5
134
100
AcDbEntity
  8
Image
 62
7
100
AcDbSpline
 70
8
 71
3
 72
8
 73
4
 74
0
 40
0
 40
0
 40
0
 40
0
 40
1
 40
1
 40
1
 40
1
 10
0.365055
 20
0.363191
 30
0.0
 10
0.366918
 20
0.363189
 30
0.0
 10
0.373490
 20
0.354562
 30
0.0
 10
0.379660
 20
0.344021
 30
0.0
  0
SPLINE
  5
135
100
AcDbEntity
  8
Image
 62
7
100
AcDbSpline
 70
8
 71
3
 72
8
 73
4
 74
0
 40
0
 40
0
 40
0
 40
0
 40
1
 40
1
 40
1
 40
1
 10
0.379660
 20
0.344021
 30
0.0
 10
0.405052
 20
0.300634
 30
0.0
 10
0.436255
 20
0.275649
 30
0.0
 10
0.450172
 20
0.287560
 30
0.0
  0
SPLINE
  5
136
100
AcDbEntity
  8
Image
 62
7
100
AcDbSpline
 70
8
 71
3
 72
8
 73
4
 74
0
 40
0
 40
0
 40
0
 40
0
 40
1
 40
1
 40
1
 40
1
 10
0.450172
 20
0.287560
 30
0.0
 10
0.457000
 20
0.293405
 30
0.0
 10
0.471801
 20
0.303638
 30
0.0
 10
0.483063
 20
0.310300
 30
0.0
  0
LWPOLYLINE
  5
137
100
AcDbEntity
  8
Image
 62
7
100
AcDbPolyline
 90
1
 70
1
 10
0.311966
 20
0.325277
 30
0.0
  0
SPLINE
  5
138
100
AcDbEntity
  8
Image
 62
7
100
AcDbSpline
 70
8
 71
3
 72
8
 73
4
 74
0
 40
0
 40
0
 40
0
 40
0
 40
1
 40
1
 40
1
 40
1
 10
0.522000
 20
0.344521
 30
0.0
 10
0.542248
 20
0.364768
 30
0.0
 10
0.538157
 20
0.389321
 30
0.0
 10
0.508401
 20
0.426149
 30
0.0
  0
SPLINE
  5
139
100
AcDbEntity
  8
Image
 62
7
100
AcDbSpline
 70
8
 71
3
 72
8
 73
4
 74
0
 40
0
 40
0
 40
0
 40
0
 40
1
 40
1
 40
1
 40
1
 10
0.508401
 20
0.426149
 30
0.0
 10
0.465668
 20
0.479040
 30
0.0
 10
0.460678
 20
0.535872
 30
0.0
 10
0.495061
 20
0.578086
 30
0.0
  0
SPLINE
  5
13a
100
AcDbEntity
  8
Image
 62
7
100
AcDbSpline
 70
8
 71
3
 72
8
 73
4
 74
0
 40
0
 40
0
 40
0
 40
0
 40
1
 40
1
 40
1
 40
1
 10
0.495061
 20
0.578086
 30
0.0
 10
0.509398
 20
0.595687
 30
0.0
 10
0.509398
 20
0.595687
 30
0.0
 10
0.493865
 20
0.590881
 30
0.0
  0
SPLINE
  5
13b
100
AcDbEntity
  8
Image
 62
7
100
AcDbSpline
 70
8
 71
3
 72
8
 73
4
 74
0
 40
0
 40
0
 40
0
 40
0
 40
1
 40
1
 40
1
 40
1
 10
0.493865
 20
0.590881
 30
0.0
 10
0.485323
 20
0.588238
 30
0.0
 10
0.470710
 20
0.586653
 30
0.0
 10
0.461392
 20
0.587359
 30
0.0
  0
SPLINE
  5
13c
100
AcDbEntity
  8
Image
 62
7
100
AcDbSpline
 70
8
 71
3
 72
8
 73
4
 74
0
 40
0
 40
0
 40
0
 40
0
 40
1
 40
1
 40
1
 40
1
 10
0.461392
 20
0.587359
 30
0.0
 10
0.441781
 20
0.588845
 30
0.0
 10
0.434538
 20
0.549116
 30
0.0
 10
0.437152
 20
0.454401
 30
0.0
  0
SPLINE
  5
13d
100
AcDbEntity
  8
Image
 62
7
100
AcDbSpline
 70
8
 71
3
 72
8
 73
4
 74
0
 40
0
 40
0
 40
0
 40
0
 40
1
 40
1
 40
1
 40
1
 10
0.437152
 20
0.454401
 30
0.0
 10
0.439445
 20
0.371334
 30
0.0
 10
0.487099
 20
0.309620
 30
0.0
 10
0.522000
 20
0.344521
 30
0.0
  0
LWPOLYLINE
  5
13e
100
AcDbEntity
  8
Image
 62
7
100
AcDbPolyline
 90
1
 70
1
 10
0.483063
 20
0.310300
 30
0.0
  0
SPLINE
  5
13f
100
AcDbEntity
  8
Image
 62
7
100
AcDbSpline
 70
8
 71
3
 72
8
 73
4
 74
0
 40
0
 40
0
 40
0
 40
0
 40
1
 40
1
 40
1
 40
1
 10
0.560178
 20
0.365687
 30
0.0
 10
0.599804
 20
0.410255
 30
0.0
 10
0.599835
 20
0.459972
 30
0.0
 10
0.560269
 20
0.511173
 30
0.0
  0
SPLINE
  5
140
100
AcDbEntity
  8
Image
 62
7
100
AcDbSpline
 70
8
 71
3
 72
8
 73
4
 74
0
 40
0
 40
0
 40
0
 40
0
 40
1
 40
1
 40
1
 40
1
 10
0.560269
 20
0.511173
 30
0.0
 10
0.529281
 20
0.551272
 30
0.0
 10
0.521682
 20
0.584107
 30
0.0
 10
0.538772
 20
0.604063
 30
0.0
  0
SPLINE
  5
141
100
AcDbEntity
  8
Image
 62
7
100
AcDbSpline
 70
8
 71
3
 72
8
 73
4
 74
0
 40
0
 40
0
 40
0
 40
0
 40
1
 40
1
 40
1
 40
1
 10
0.538772
 20
0.604063
 30
0.0
 10
0.542198
 20
0.608062
 30
0.0
 10
0.537231
 20
0.604493
 30
0.0
 10
0.527736
 20
0.596131
 30
0.0
  0
SPLINE
  5
142
100
AcDbEntity
  8
Image
 62
7
100
AcDbSpline
 70
8
 71
3
 72
8
 73
4
 74
0
 40
0
 40
0
 40
0
 40
0
 40
1
 40
1
 40
1
 40
1
 10
0.527736
 20
0.596131
 30
0.0
 10
0.469751
 20
0.545064
 30
0.0
 10
0.465310
 20
0.495786
 30
0.0
 10
0.513354
 20
0.436521
 30
0.0
  0
SPLINE
  5
143
100
AcDbEntity
  8
Image
 62
7
100
AcDbSpline
 70
8
 71
3
 72
8
 73
4
 74
0
 40
0
 40
0
 40
0
 40
0
 40
1
 40
1
 40
1
 40
1
 10
0.513354
 20
0.436521
 30
0.0
 10
0.537044
 20
0.407298
 30
0.0
 10
0.544207
 20
0.390594
 30
0.0
 10
0.542791
 20
0.367878
 30
0.0
  0
SPLINE
  5
144
100
AcDbEntity
  8
Image
 62
7
100
AcDbSpline
 70
8
 71
3
 72
8
 73
4
 74
0
 40
0
 40
0
 40
0
 40
0
 40
1
 40
1
 40
1
 40
1
 10
0.542791
 20
0.367878
 30
0.0
 10
0.541420
 20
0.345883
 30
0.0
 10
0.542453
 20
0.345753
 30
0.0
 10
0.560178
 20
0.365687
 30
0.0
  0
LWPOLYLINE
  5
145
100
AcDbEntity
  8
Image
 62
7
100
AcDbPolyline
 90
1
 70
1
 10
0.522000
 20
0.344521
 30
0.0
  0
SPLINE
  5
146
100
AcDbEntity
  8
Image
 62
7
100
AcDbSpline
 70
8
 71
3
 72
8
 73
4
 74
0
 40
0
 40
0
 40
0
 40
0
 40
1
 40
1
 40
1
 40
1
 10
0.245000
 20
0.414369
 30
0.0
 10
0.277723
 20
0.429651
 30
0.0
 10
0.299738
 20
0.456165
 30
0.0
 10
0.313415
 20
0.496762
 30
0.0
  0
SPLINE
  5
147
100
AcDbEntity
  8
Image
 62
7
100
AcDbSpline
 70
8
 71
3
 72
8
 73
4
 74
0
 40
0
 40
0
 40
0
 40
0
 40
1
 40
1
 40
1
 40
1
 10
0.313415
 20
0.496762
 30
0.0
 10
0.321624
 20
0.521132
 30
0.0
 10
0.322385
 20
0.606448
 30
0.0
 10
0.314394
 20
0.606496
 30
0.0
  0
SPLINE
  5
148
100
AcDbEntity
  8
Image
 62
7
100
AcDbSpline
 70
8
 71
3
 72
8
 73
4
 74
0
 40
0
 40
0
 40
0
 40
0
 40
1
 40
1
 40
1
 40
1
 10
0.314394
 20
0.606496
 30
0.0
 10
0.312227
 20
0.606510
 30
0.0
 10
0.307119
 20
0.611396
 30
0.0
 10
0.303042
 20
0.617354
 30
0.0
  0
SPLINE
  5
149
100
AcDbEntity
  8
Image
 62
7
100
AcDbSpline
 70
8
 71
3
 72
8
 73
4
 74
0
 40
0
 40
0
 40
0
 40
0
 40
1
 40
1
 40
1
 40
1
 10
0.303042
 20
0.617354
 30
0.0
 10
0.263835
 20
0.674662
 30
0.0
 10
0.209457
 20
0.688201
 30
0.0
 10
0.126667
 20
0.661268
 30
0.0
  0
SPLINE
  5
14a
100
AcDbEntity
  8
Image
 62
7
100
AcDbSpline
 70
8
 71
3
 72
8
 73
4
 74
0
 40
0
 40
0
 40
0
 40
0
 40
1
 40
1
 40
1
 40
1
 10
0.126667
 20
0.661268
 30
0.0
 10
0.095895
 20
0.651257
 30
0.0
 10
0.067243
 20
0.649126
 30
0.0
 10
0.058702
 20
0.656214
 30
0.0
  0
SPLINE
  5
14b
100
AcDbEntity
  8
Image
 62
7
100
AcDbSpline
 70
8
 71
3
 72
8
 73
4
 74
0
 40
0
 40
0
 40
0
 40
0
 40
1
 40
1
 40
1
 40
1
 10
0.058702
 20
0.656214
 30
0.0
 10
0.050367
 20
0.663132
 30
0.0
 10
0.051613
 20
0.645489
 30
0.0
 10
0.060588
 20
0.629520
 30
0.0
  0
SPLINE
  5
14c
100
AcDbEntity
  8
Image
 62
7
100
AcDbSpline
 70
8
 71
3
 72
8
 73
4
 74
0
 40
0
 40
0
 40
0
 40
0
 40
1
 40
1
 40
1
 40
1
 10
0.060588
 20
0.629520
 30
0.0
 10
0.076797
 20
0.600680
 30
0.0
 10
0.107806
 20
0.589160
 30
0.0
 10
0.161099
 20
0.592177
 30
0.0
  0
SPLINE
  5
14d
100
AcDbEntity
  8
Image
 62
7
100
AcDbSpline
 70
8
 71
3
 72
8
 73
4
 74
0
 40
0
 40
0
 40
0
 40
0
 40
1
 40
1
 40
1
 40
1
 10
0.161099
 20
0.592177
 30
0.0
 10
0.240834
 20
0.596693
 30
0.0
 10
0.268333
 20
0.573018
 30
0.0
 10
0.268333
 20
0.499854
 30
0.0
  0
SPLINE
  5
14e
100
AcDbEntity
  8
Image
 62
7
100
AcDbSpline
 70
8
 71
3
 72
8
 73
4
 74
0
 40
0
 40
0
 40
0
 40
0
 40
1
 40
1
 40
1
 40
1
 10
0.268333
 20
0.499854
 30
0.0
 10
0.268333
 20
0.440129
 30
0.0
 10
0.250736
 20
0.414943
 30
0.0
 10
0.205386
 20
0.409762
 30
0.0
  0
SPLINE
  5
14f
100
AcDbEntity
  8
Image
 62
7
100
AcDbSpline
 70
8
 71
3
 72
8
 73
4
 74
0
 40
0
 40
0
 40
0
 40
0
 40
1
 40
1
 40
1
 40
1
 10
0.205386
 20
0.409762
 30
0.0
 10
0.185000
 20
0.407433
 30
0.0
 10
0.185000
 20
0.407433
 30
0.0
 10
0.206667
 20
0.407009
 30
0.0
  0
SPLINE
  5
150
100
AcDbEntity
  8
Image
 62
7
100
AcDbSpline
 70
8
 71
3
 72
8
 73
4
 74
0
 40
0
 40
0
 40
0
 40
0
 40
1
 40
1
 40
1
 40
1
 10
0.206667
 20
0.407009
 30
0.0
 10
0.223034
 20
0.406689
 30
0.0
 10
0.232410
 20
0.408489
 30
0.0
 10
0.245000
 20
0.414369
 30
0.0
  0
LWPOLYLINE
  5
151
100
AcDbEntity
  8
Image
 62
7
100
AcDbPolyline
 90
1
 70
1
 10
0.560178
 20
0.365687
 30
0.0
  0
SPLINE
  5
152
100
AcDbEntity
  8
Image
 62
7
100
AcDbSpline
 70
8
 71
3
 72
8
 73
4
 74
0
 40
0
 40
0
 40
0
 40
0
 40
1
 40
1
 40
1
 40
1
 10
0.161205
 20
0.431521
 30
0.0
 10
0.162336
 20
0.434468
 30
0.0
 10
0.167340
 20
0.436521
 30
0.0
 10
0.173394
 20
0.436521
 30
0.0
  0
SPLINE
  5
153
100
AcDbEntity
  8
Image
 62
7
100
AcDbSpline
 70
8
 71
3
 72
8
 73
4
 74
0
 40
0
 40
0
 40
0
 40
0
 40
1
 40
1
 40
1
 40
1
 10
0.173394
 20
0.436521
 30
0.0
 10
0.206743
 20
0.436521
 30
0.0
 10
0.223322
 20
0.473711
 30
0.0
 10
0.200256
 20
0.496777
 30
0.0
  0
SPLINE
  5
154
100
AcDbEntity
  8
Image
 62
7
100
AcDbSpline
 70
8
 71
3
 72
8
 73
4
 74
0
 40
0
 40
0
 40
0
 40
0
 40
1
 40
1
 40
1
 40
1
 10
0.200256
 20
0.496777
 30
0.0
 10
0.176388
 20
0.520645
 30
0.0
 10
0.132519
 20
0.496238
 30
0.0
 10
0.138808
 20
0.462589
 30
0.0
  0
SPLINE
  5
155
100
AcDbEntity
  8
Image
 62
7
100
AcDbSpline
 70
8
 71
3
 72
8
 73
4
 74
0
 40
0
 40
0
 40
0
 40
0
 40
1
 40
1
 40
1
 40
1
 10
0.138808
 20
0.462589
 30
0.0
 10
0.142973
 20
0.440308
 30
0.0
 10
0.157072
 20
0.420750
 30
0.0
 10
0.161205
 20
0.431521
 30
0.0
  0
LWPOLYLINE
  5
156
100
AcDbEntity
  8
Image
 62
7
100
AcDbPolyline
 90
1
 70
1
 10
0.245000
 20
0.414369
 30
0.0
  0
SPLINE
  5
157
100
AcDbEntity
  8
Image
 62
7
100
AcDbSpline
 70
8
 71
3
 72
8
 73
4
 74
0
 40
0
 40
0
 40
0
 40
0
 40
1
 40
1
 40
1
 40
1
 10
0.510481
 20
0.607409
 30
0.0
 10
0.525733
 20
0.616444
 30
0.0
 10
0.566972
 20
0.656678
 30
0.0
 10
0.554386
 20
0.650243
 30
0.0
  0
SPLINE
  5
158
100
AcDbEntity
  8
Image
 62
7
100
AcDbSpline
 70
8
 71
3
 72
8
 73
4
 74
0
 40
0
 40
0
 40
0
 40
0
 40
1
 40
1
 40
1
 40
1
 10
0.554386
 20
0.650243
 30
0.0
 10
0.539237
 20
0.642498
 30
0.0
 10
0.514899
 20
0.645820
 30
0.0
 10
0.483628
 20
0.659900
 30
0.0
  0
SPLINE
  5
159
100
AcDbEntity
  8
Image
 62
7
100
AcDbSpline
 70
8
 71
3
 72
8
 73
4
 74
0
 40
0
 40
0
 40
0
 40
0
 40
1
 40
1
 40
1
 40
1
 10
0.483628
 20
0.659900
 30
0.0
 10
0.437316
 20
0.680753
 30
0.0
 10
0.410013
 20
0.682467
 30
0.0
 10
0.379007
 20
0.666465
 30
0.0
  0
SPLINE
  5
15a
100
AcDbEntity
  8
Image
 62
7
100
AcDbSpline
 70
8
 71
3
 72
8
 73
4
 74
0
 40
0
 40
0
 40
0
 40
0
 40
1
 40
1
 40
1
 40
1
 10
0.379007
 20
0.666465
 30
0.0
 10
0.353689
 20
0.653399
 30
0.0
 10
0.334445
 20
0.631103
 30
0.0
 10
0.353104
 20
0.636455
 30
0.0
  0
SPLINE
  5
15b
100
AcDbEntity
  8
Image
 62
7
100
AcDbSpline
 70
8
 71
3
 72
8
 73
4
 74
0
 40
0
 40
0
 40
0
 40
0
 40
1
 40
1
 40
1
 40
1
 10
0.353104
 20
0.636455
 30
0.0
 10
0.368681
 20
0.640922
 30
0.0
 10
0.388178
 20
0.634467
 30
0.0
 10
0.419345
 20
0.614525
 30
0.0
  0
SPLINE
  5
15c
100
AcDbEntity
  8
Image
 62
7
100
AcDbSpline
 70
8
 71
3
 72
8
 73
4
 74
0
 40
0
 40
0
 40
0
 40
0
 40
1
 40
1
 40
1
 40
1
 10
0.419345
 20
0.614525
 30
0.0
 10
0.453945
 20
0.592385
 30
0.0
 10
0.481491
 20
0.590234
 30
0.0
 10
0.510481
 20
0.607409
 30
0.0
  0
LWPOLYLINE
  5
15d
100
AcDbEntity
  8
Image
 62
7
100
AcDbPolyline
 90
1
 70
1
 10
0.161205
 20
0.431521
 30
0.0
  0
LWPOLYLINE
  5
15e
100
AcDbEntity
  8
Image
 62
7
100
AcDbPolyline
 90
1
 70
1
 10
0.510481
 20
0.607409
 30
0.0
  0
ENDSEC
  0
SECTION
  2
OBJECTS
  0
DICTIONARY
  5
C
330
0
100
AcDbDictionary
  3
ACAD_GROUP
350
D
  3
ACAD_MLINESTYLE
350
17
  0
DICTIONARY
  5
D
330
C
100
AcDbDictionary
  0
DICTIONARY
  5
1A
330
C
100
AcDbDictionary
  0
DICTIONARY
  5
17
330
C
100
AcDbDictionary
  3
STANDARD
350
18
  0
DICTIONARY
  5
19
330
C
100
AcDbDictionary
  0
ENDSEC
  0
EOF
