<?xml version="1.0" encoding="UTF-8" standalone="no"?>
<!-- Created with Inkscape (http://www.inkscape.org/) -->

<svg
   version="1.1"
   id="svg855"
   width="61.439999"
   height="83.839996"
   viewBox="0 0 61.439999 83.839996"
   sodipodi:docname="w.svg"
   inkscape:version="1.1 (c68e22c387, 2021-05-23)"
   xmlns:inkscape="http://www.inkscape.org/namespaces/inkscape"
   xmlns:sodipodi="http://sodipodi.sourceforge.net/DTD/sodipodi-0.dtd"
   xmlns="http://www.w3.org/2000/svg"
   xmlns:svg="http://www.w3.org/2000/svg">
  <defs
     id="defs859" />
  <sodipodi:namedview
     id="namedview857"
     pagecolor="#ffffff"
     bordercolor="#666666"
     borderopacity="1.0"
     inkscape:pageshadow="2"
     inkscape:pageopacity="0.0"
     inkscape:pagecheckerboard="0"
     showgrid="false"
     inkscape:zoom="8.9813935"
     inkscape:cx="30.674527"
     inkscape:cy="41.919998"
     inkscape:window-width="3840"
     inkscape:window-height="2097"
     inkscape:window-x="-8"
     inkscape:window-y="-8"
     inkscape:window-maximized="1"
     inkscape:current-layer="g861" />
  <g
     inkscape:groupmode="layer"
     inkscape:label="Image"
     id="g861">
    <path
       style="fill:#000000;stroke-width:0.32"
       d="M 18.000215,66.419045 C 4.2817335,62.565976 9.3657935,46.745583 24.100147,47.4375 c 3.013614,0.141517 4.471659,0.638893 6.697892,2.284819 2.195916,1.62351 2.938197,-0.364422 3.12196,-8.361068 0.215799,-9.390577 1.097802,-11.337933 6.269056,-13.841294 1.417172,-0.686041 1.417172,-0.686041 -0.585942,-1.983465 -5.816096,-3.767105 -8.49694,-2.443067 -8.09537,3.998209 0.702519,11.26855 -7.939524,19.68157 -15.594909,15.181631 -5.765822,-3.389228 -3.468011,-12.389437 2.575822,-10.089139 3.966369,1.509613 3.322544,7.395351 -0.88675,8.106506 -2.214706,0.374172 -1.005317,0.888627 1.760651,0.74895 4.487456,-0.226605 6.800277,-4.440611 5.574401,-10.156671 -0.930237,-4.337549 -3.105856,-5.531132 -10.189792,-5.5903 -8.1626595,-0.06818 -12.8563525,-4.435241 -10.1908275,-9.481655 0.742809,-1.406296 1.683661,-1.048656 1.683661,0.64 0,1.948578 1.179624,2.077129 5.5554125,0.605407 7.88289,-2.651275 14.402452,-1.053426 18.014858,4.415176 0.45387,0.687086 0.499473,0.656452 2.36707,-1.590062 3.874234,-4.66028 8.267152,-5.534055 14.288237,-2.842005 4.485878,2.005652 5.27487,2.051393 7.056547,0.409103 2.978947,-2.745898 3.002912,-0.997822 0.04226,3.082381 -0.315702,0.435084 -0.380368,0.72 -0.163411,0.72 0.630493,0 0.387501,0.926241 -0.60097,2.290783 -1.673926,2.310788 -1.32559,4.181145 1.456416,7.82008 5.964458,7.801664 4.081328,13.97406 -6.211846,20.360758 -2.011363,1.248006 -4.123232,2.678441 -4.69304,3.178742 -1.577082,1.384694 -4.38393,-0.734134 -7.378016,-5.569504 -0.985328,-1.591273 -1.220579,-1.795376 -1.745555,-1.514416 -1.013379,0.542343 -6.219955,5.636726 -7.186909,7.032042 -1.017658,1.46848 -1.707884,1.548275 -2.321329,0.268364 -2.779506,-5.799244 -13.697745,-5.312569 -13.099861,0.58392 0.668265,6.590598 15.159114,7.741354 21.740368,1.726461 2.346134,-2.144237 3.211606,-2.040662 2.030668,0.243021 -2.52319,4.879312 -11.228827,8.03543 -17.39068,6.304771 z m 7.572062,-0.658234 c 2.280603,-0.537571 4.415592,-1.605177 6.107722,-3.054182 1.12,-0.959075 1.12,-0.959075 -0.431484,-0.0056 -3.643809,2.239315 -12.829971,2.313744 -17.328515,0.140403 -1.6,-0.772995 -1.6,-0.772995 -0.64,0.05786 3.150982,2.727082 8.037121,3.864528 12.292277,2.86153 z m 4.376418,-13.147426 c 1.346111,-1.103037 1.748829,-1.719364 1.123461,-1.719364 -0.158314,0 -1.021301,-0.49358 -1.917749,-1.096844 -5.068893,-3.411114 -14.264409,-1.120698 -17.458293,4.348505 -0.623885,1.068339 -0.623885,1.068339 0.387363,0.219632 2.532096,-2.125104 6.899938,-2.489165 9.759344,-0.81344 1.46355,0.857696 3.757179,3.162067 3.757179,3.774774 0,0.192935 0.660913,-0.528422 1.468695,-1.603011 0.807783,-1.074588 2.103783,-2.474201 2.88,-3.110252 z m 16.425362,1.437808 c 1.726185,-1.021136 1.876701,-1.185168 1.235222,-1.34617 -5.377808,-1.349744 -7.926192,-10.993036 -6.012444,-22.751564 0.632441,-3.885869 -4.999524,-0.07094 -6.307728,4.272669 -0.62938,2.089712 -0.838679,14.746815 -0.243869,14.747513 0.17888,2.08e-4 0.809833,0.828381 1.402115,1.84038 2.43768,4.165127 5.433158,6.563667 6.769117,5.420173 0.655532,-0.561094 2.076448,-1.543446 3.157587,-2.183001 z m 3.737942,-3.285172 c 1.943767,-1.943766 1.551101,-4.300854 -1.305453,-7.836358 -4.102422,-5.077487 -4.581456,-10.53341 -1.280649,-14.585909 1.376275,-1.689692 1.376275,-1.689692 -0.114813,-1.228348 -0.820096,0.25374 -2.222947,0.405885 -3.11745,0.338101 -1.882643,-0.142664 -2.577996,3.671386 -2.327049,12.764006 0.22009,7.974448 4.794937,13.898985 8.145414,10.548508 z m 3.665082,-2.031999 c 3.804147,-4.278522 3.807116,-9.051366 0.0087,-13.966643 -2.974813,-3.849498 -3.704272,-7.001676 -2.063623,-8.917412 0.328813,-0.383946 -0.147948,-0.04128 -1.059468,0.761472 -5.566628,4.902389 -5.992896,9.633066 -1.380679,15.322583 2.274202,2.805398 2.96185,4.408918 2.825904,6.589699 -0.131632,2.111523 -0.03238,2.124028 1.669162,0.210301 z M 23.52,44.06055 c 3.141418,-1.467082 5.254887,-4.012362 6.567805,-7.909696 0.78813,-2.339529 0.861201,-10.529822 0.09399,-10.534517 -0.208016,-0.0013 -0.698388,-0.470314 -1.089717,-1.042314 -3.763872,-5.501606 -8.984165,-6.801344 -16.932073,-4.215714 -2.9541125,0.961037 -5.7047075,1.165544 -6.5245885,0.485103 -0.800214,-0.664118 -0.680556,1.029637 0.181041,2.562643 1.556074,2.768661 4.5328735,3.874626 9.6490605,3.584899 7.654583,-0.433474 10.294487,1.839358 10.294487,8.863068 0,5.733568 -1.68938,8.151465 -6.042924,8.648845 -1.957076,0.223587 -1.957076,0.223587 0.122924,0.264246 1.57127,0.03072 2.47133,-0.142099 3.68,-0.706563 z m -8.04428,-1.646528 c 0.108579,-0.28295 0.588939,-0.48 1.170128,-0.48 3.201479,0 4.793101,-3.570282 2.578767,-5.784614 -2.291377,-2.291379 -6.502819,0.0517 -5.899049,3.282 0.3998,2.139017 1.753364,4.016633 2.150154,2.982614 z M 49.006172,25.528744 c 1.464157,-0.867405 5.423158,-4.729871 4.214864,-4.11209 -1.454243,0.743531 -3.790774,0.424634 -6.79279,-0.927101 -4.44593,-2.001893 -7.066983,-2.166366 -10.043536,-0.630237 -2.430563,1.254357 -4.278029,3.39476 -2.48672,2.881019 1.495376,-0.428868 3.367078,0.190791 6.359097,2.105285 3.321648,2.125414 5.966023,2.331885 8.749085,0.683124 z"
       id="path4449" />
  </g>
</svg>
