  0
SECTION
  2
HEADER
  9
$ACADVER
  1
AC1014
  9
$HANDSEED
  5
FFFF
  9
$MEASUREMENT
 70
     1
  0
ENDSEC
  0
SECTION
  2
TABLES
  0
TABLE
  2
VPORT
  5
8
330
0
100
AcDbSymbolTable
 70
     4
  0
VPORT
  5
2E
330
8
100
AcDbSymbolTableRecord
100
AcDbViewportTableRecord
  2
*ACTIVE
 70
     0
 10
0.0
 20
0.0
 11
1.0
 21
1.0
 12
210.0
 22
148.5
 13
0.0
 23
0.0
 14
10.0
 24
10.0
 15
10.0
 25
10.0
 16
0.0
 26
0.0
 36
1.0
 17
0.0
 27
0.0
 37
0.0
 40
341.0
 41
1.24
 42
50.0
 43
0.0
 44
0.0
 50
0.0
 51
0.0
 71
     0
 72
   100
 73
     1
 74
     3
 75
     0
 76
     0
 77
     0
 78
     0
  0
ENDTAB
  0
TABLE
  2
LTYPE
  5
5
330
0
100
AcDbSymbolTable
 70
     1
  0
LTYPE
  5
14
330
5
100
AcDbSymbolTableRecord
100
AcDbLinetypeTableRecord
  2
BYBLOCK
 70
     0
  3

 72
    65
 73
     0
 40
0.0
  0
LTYPE
  5
15
330
5
100
AcDbSymbolTableRecord
100
AcDbLinetypeTableRecord
  2
BYLAYER
 70
     0
  3

 72
    65
 73
     0
 40
0.0
  0
LTYPE
  5
16
330
5
100
AcDbSymbolTableRecord
100
AcDbLinetypeTableRecord
  2
CONTINUOUS
 70
     0
  3
Solid line
 72
    65
 73
     0
 40
0.0
  0
ENDTAB
  0
TABLE
  2
LAYER
  5
2
100
AcDbSymbolTable
 70
2
  0
LAYER
  5
50
100
AcDbSymbolTableRecord
100
AcDbLayerTableRecord
  2
0
 70
0
  6
CONTINUOUS
  0
LAYER
  5
51
100
AcDbSymbolTableRecord
100
AcDbLayerTableRecord
  2
Image
 70
0
  6
CONTINUOUS
  0
ENDTAB
  0
TABLE
  2
STYLE
  5
3
330
0
100
AcDbSymbolTable
 70
     1
  0
STYLE
  5
11
330
3
100
AcDbSymbolTableRecord
100
AcDbTextStyleTableRecord
  2
STANDARD
 70
     0
 40
0.0
 41
1.0
 50
0.0
 71
     0
 42
2.5
  3
txt
  4

  0
ENDTAB
  0
TABLE
  2
VIEW
  5
6
330
0
100
AcDbSymbolTable
 70
     0
  0
ENDTAB
  0
TABLE
  2
UCS
  5
7
330
0
100
AcDbSymbolTable
 70
     0
  0
ENDTAB
  0
TABLE
  2
APPID
  5
9
330
0
100
AcDbSymbolTable
 70
     2
  0
APPID
  5
12
330
9
100
AcDbSymbolTableRecord
100
AcDbRegAppTableRecord
  2
ACAD
 70
     0
  0
ENDTAB
  0
TABLE
  2
DIMSTYLE
  5
A
330
0
100
AcDbSymbolTable
 70
     1
  0
DIMSTYLE
105
27
330
A
100
AcDbSymbolTableRecord
100
AcDbDimStyleTableRecord
  2
ISO-25
 70
     0
  3

  4

  5

  6

  7

 40
1.0
 41
2.5
 42
0.625
 43
3.75
 44
1.25
 45
0.0
 46
0.0
 47
0.0
 48
0.0
140
2.5
141
2.5
142
0.0
143
0.03937007874016
144
1.0
145
0.0
146
1.0
147
0.625
 71
     0
 72
     0
 73
     0
 74
     0
 75
     0
 76
     0
 77
     1
 78
     8
170
     0
171
     3
172
     1
173
     0
174
     0
175
     0
176
     0
177
     0
178
     0
270
     2
271
     2
272
     2
273
     2
274
     3
340
11
275
     0
280
     0
281
     0
282
     0
283
     0
284
     8
285
     0
286
     0
287
     3
288
     0
  0
ENDTAB
  0
TABLE
  2
BLOCK_RECORD
  5
1
330
0
100
AcDbSymbolTable
 70
     1
  0
BLOCK_RECORD
  5
1F
330
1
100
AcDbSymbolTableRecord
100
AcDbBlockTableRecord
  2
*MODEL_SPACE
  0
BLOCK_RECORD
  5
1B
330
1
100
AcDbSymbolTableRecord
100
AcDbBlockTableRecord
  2
*PAPER_SPACE
  0
ENDTAB
  0
ENDSEC
  0
SECTION
  2
BLOCKS
  0
BLOCK
  5
20
330
1F
100
AcDbEntity
  8
0
100
AcDbBlockBegin
  2
*MODEL_SPACE
 70
     0
 10
0.0
 20
0.0
 30
0.0
  3
*MODEL_SPACE
  1

  0
ENDBLK
  5
21
330
1F
100
AcDbEntity
  8
0
100
AcDbBlockEnd
  0
BLOCK
  5
1C
330
1B
100
AcDbEntity
 67
     1
  8
0
100
AcDbBlockBegin
  2
*PAPER_SPACE
  1

  0
ENDBLK
  5
1D
330
1B
100
AcDbEntity
 67
     1
  8
0
100
AcDbBlockEnd
  0
ENDSEC
  0
SECTION
  2
ENTITIES
  0
SPLINE
  5
100
100
AcDbEntity
  8
Image
 62
7
100
AcDbSpline
 70
8
 71
3
 72
8
 73
4
 74
0
 40
0
 40
0
 40
0
 40
0
 40
1
 40
1
 40
1
 40
1
 10
4.762557
 20
4.609293
 30
0.0
 10
1.132875
 20
5.628751
 30
0.0
 10
2.478033
 20
9.814563
 30
0.0
 10
6.376497
 20
9.631493
 30
0.0
  0
SPLINE
  5
101
100
AcDbEntity
  8
Image
 62
7
100
AcDbSpline
 70
8
 71
3
 72
8
 73
4
 74
0
 40
0
 40
0
 40
0
 40
0
 40
1
 40
1
 40
1
 40
1
 10
6.376497
 20
9.631493
 30
0.0
 10
7.173849
 20
9.594050
 30
0.0
 10
7.559623
 20
9.462453
 30
0.0
 10
8.148647
 20
9.026968
 30
0.0
  0
SPLINE
  5
102
100
AcDbEntity
  8
Image
 62
7
100
AcDbSpline
 70
8
 71
3
 72
8
 73
4
 74
0
 40
0
 40
0
 40
0
 40
0
 40
1
 40
1
 40
1
 40
1
 10
8.148647
 20
9.026968
 30
0.0
 10
8.729650
 20
8.597415
 30
0.0
 10
8.926045
 20
9.123388
 30
0.0
 10
8.974666
 20
11.239167
 30
0.0
  0
SPLINE
  5
103
100
AcDbEntity
  8
Image
 62
7
100
AcDbSpline
 70
8
 71
3
 72
8
 73
4
 74
0
 40
0
 40
0
 40
0
 40
0
 40
1
 40
1
 40
1
 40
1
 10
8.974666
 20
11.239167
 30
0.0
 10
9.031763
 20
13.723757
 30
0.0
 10
9.265126
 20
14.238995
 30
0.0
 10
10.633354
 20
14.901343
 30
0.0
  0
SPLINE
  5
104
100
AcDbEntity
  8
Image
 62
7
100
AcDbSpline
 70
8
 71
3
 72
8
 73
4
 74
0
 40
0
 40
0
 40
0
 40
0
 40
1
 40
1
 40
1
 40
1
 10
10.633354
 20
14.901343
 30
0.0
 10
11.008314
 20
15.082858
 30
0.0
 10
11.008314
 20
15.082858
 30
0.0
 10
10.478323
 20
15.426135
 30
0.0
  0
SPLINE
  5
105
100
AcDbEntity
  8
Image
 62
7
100
AcDbSpline
 70
8
 71
3
 72
8
 73
4
 74
0
 40
0
 40
0
 40
0
 40
0
 40
1
 40
1
 40
1
 40
1
 10
10.478323
 20
15.426135
 30
0.0
 10
8.939481
 20
16.422848
 30
0.0
 10
8.230175
 20
16.072529
 30
0.0
 10
8.336423
 20
14.368275
 30
0.0
  0
SPLINE
  5
106
100
AcDbEntity
  8
Image
 62
7
100
AcDbSpline
 70
8
 71
3
 72
8
 73
4
 74
0
 40
0
 40
0
 40
0
 40
0
 40
1
 40
1
 40
1
 40
1
 10
8.336423
 20
14.368275
 30
0.0
 10
8.522298
 20
11.386805
 30
0.0
 10
6.235758
 20
9.160860
 30
0.0
 10
4.210270
 20
10.351469
 30
0.0
  0
SPLINE
  5
107
100
AcDbEntity
  8
Image
 62
7
100
AcDbSpline
 70
8
 71
3
 72
8
 73
4
 74
0
 40
0
 40
0
 40
0
 40
0
 40
1
 40
1
 40
1
 40
1
 10
4.210270
 20
10.351469
 30
0.0
 10
2.684730
 20
11.248202
 30
0.0
 10
3.292693
 20
13.629507
 30
0.0
 10
4.891790
 20
13.020887
 30
0.0
  0
SPLINE
  5
108
100
AcDbEntity
  8
Image
 62
7
100
AcDbSpline
 70
8
 71
3
 72
8
 73
4
 74
0
 40
0
 40
0
 40
0
 40
0
 40
1
 40
1
 40
1
 40
1
 10
4.891790
 20
13.020887
 30
0.0
 10
5.941225
 20
12.621468
 30
0.0
 10
5.770880
 20
11.064200
 30
0.0
 10
4.657171
 20
10.876041
 30
0.0
  0
SPLINE
  5
109
100
AcDbEntity
  8
Image
 62
7
100
AcDbSpline
 70
8
 71
3
 72
8
 73
4
 74
0
 40
0
 40
0
 40
0
 40
0
 40
1
 40
1
 40
1
 40
1
 10
4.657171
 20
10.876041
 30
0.0
 10
4.071196
 20
10.777041
 30
0.0
 10
4.391181
 20
10.640925
 30
0.0
 10
5.123010
 20
10.677881
 30
0.0
  0
SPLINE
  5
10a
100
AcDbEntity
  8
Image
 62
7
100
AcDbSpline
 70
8
 71
3
 72
8
 73
4
 74
0
 40
0
 40
0
 40
0
 40
0
 40
1
 40
1
 40
1
 40
1
 10
5.123010
 20
10.677881
 30
0.0
 10
6.310316
 20
10.737837
 30
0.0
 10
6.922249
 20
11.852792
 30
0.0
 10
6.597903
 20
13.365167
 30
0.0
  0
SPLINE
  5
10b
100
AcDbEntity
  8
Image
 62
7
100
AcDbSpline
 70
8
 71
3
 72
8
 73
4
 74
0
 40
0
 40
0
 40
0
 40
0
 40
1
 40
1
 40
1
 40
1
 10
6.597903
 20
13.365167
 30
0.0
 10
6.351778
 20
14.512810
 30
0.0
 10
5.776145
 20
14.828612
 30
0.0
 10
3.901854
 20
14.844267
 30
0.0
  0
SPLINE
  5
10c
100
AcDbEntity
  8
Image
 62
7
100
AcDbSpline
 70
8
 71
3
 72
8
 73
4
 74
0
 40
0
 40
0
 40
0
 40
0
 40
1
 40
1
 40
1
 40
1
 10
3.901854
 20
14.844267
 30
0.0
 10
1.742151
 20
14.862306
 30
0.0
 10
0.500278
 20
16.017758
 30
0.0
 10
1.205531
 20
17.352955
 30
0.0
  0
SPLINE
  5
10d
100
AcDbEntity
  8
Image
 62
7
100
AcDbSpline
 70
8
 71
3
 72
8
 73
4
 74
0
 40
0
 40
0
 40
0
 40
0
 40
1
 40
1
 40
1
 40
1
 10
1.205531
 20
17.352955
 30
0.0
 10
1.402066
 20
17.725037
 30
0.0
 10
1.651000
 20
17.630411
 30
0.0
 10
1.651000
 20
17.183621
 30
0.0
  0
SPLINE
  5
10e
100
AcDbEntity
  8
Image
 62
7
100
AcDbSpline
 70
8
 71
3
 72
8
 73
4
 74
0
 40
0
 40
0
 40
0
 40
0
 40
1
 40
1
 40
1
 40
1
 10
1.651000
 20
17.183621
 30
0.0
 10
1.651000
 20
16.668060
 30
0.0
 10
1.963109
 20
16.634048
 30
0.0
 10
3.120869
 20
17.023441
 30
0.0
  0
SPLINE
  5
10f
100
AcDbEntity
  8
Image
 62
7
100
AcDbSpline
 70
8
 71
3
 72
8
 73
4
 74
0
 40
0
 40
0
 40
0
 40
0
 40
1
 40
1
 40
1
 40
1
 10
3.120869
 20
17.023441
 30
0.0
 10
5.206550
 20
17.724924
 30
0.0
 10
6.931518
 20
17.302160
 30
0.0
 10
7.887300
 20
15.855259
 30
0.0
  0
SPLINE
  5
110
100
AcDbEntity
  8
Image
 62
7
100
AcDbSpline
 70
8
 71
3
 72
8
 73
4
 74
0
 40
0
 40
0
 40
0
 40
0
 40
1
 40
1
 40
1
 40
1
 10
7.887300
 20
15.855259
 30
0.0
 10
8.007387
 20
15.673467
 30
0.0
 10
8.019452
 20
15.681572
 30
0.0
 10
8.513587
 20
16.275963
 30
0.0
  0
SPLINE
  5
111
100
AcDbEntity
  8
Image
 62
7
100
AcDbSpline
 70
8
 71
3
 72
8
 73
4
 74
0
 40
0
 40
0
 40
0
 40
0
 40
1
 40
1
 40
1
 40
1
 10
8.513587
 20
16.275963
 30
0.0
 10
9.538645
 20
17.508995
 30
0.0
 10
10.700938
 20
17.740181
 30
0.0
 10
12.294017
 20
17.027910
 30
0.0
  0
SPLINE
  5
112
100
AcDbEntity
  8
Image
 62
7
100
AcDbSpline
 70
8
 71
3
 72
8
 73
4
 74
0
 40
0
 40
0
 40
0
 40
0
 40
1
 40
1
 40
1
 40
1
 10
12.294017
 20
17.027910
 30
0.0
 10
13.480905
 20
16.497248
 30
0.0
 10
13.689659
 20
16.485145
 30
0.0
 10
14.161061
 20
16.919668
 30
0.0
  0
SPLINE
  5
113
100
AcDbEntity
  8
Image
 62
7
100
AcDbSpline
 70
8
 71
3
 72
8
 73
4
 74
0
 40
0
 40
0
 40
0
 40
0
 40
1
 40
1
 40
1
 40
1
 10
14.161061
 20
16.919668
 30
0.0
 10
14.949241
 20
17.646187
 30
0.0
 10
14.955582
 20
17.183675
 30
0.0
 10
14.172243
 20
16.104121
 30
0.0
  0
SPLINE
  5
114
100
AcDbEntity
  8
Image
 62
7
100
AcDbSpline
 70
8
 71
3
 72
8
 73
4
 74
0
 40
0
 40
0
 40
0
 40
0
 40
1
 40
1
 40
1
 40
1
 10
14.172243
 20
16.104121
 30
0.0
 10
14.088713
 20
15.989005
 30
0.0
 10
14.071604
 20
15.913621
 30
0.0
 10
14.129007
 20
15.913621
 30
0.0
  0
SPLINE
  5
115
100
AcDbEntity
  8
Image
 62
7
100
AcDbSpline
 70
8
 71
3
 72
8
 73
4
 74
0
 40
0
 40
0
 40
0
 40
0
 40
1
 40
1
 40
1
 40
1
 10
14.129007
 20
15.913621
 30
0.0
 10
14.295825
 20
15.913621
 30
0.0
 10
14.231533
 20
15.668553
 30
0.0
 10
13.970000
 20
15.307518
 30
0.0
  0
SPLINE
  5
116
100
AcDbEntity
  8
Image
 62
7
100
AcDbSpline
 70
8
 71
3
 72
8
 73
4
 74
0
 40
0
 40
0
 40
0
 40
0
 40
1
 40
1
 40
1
 40
1
 10
13.970000
 20
15.307518
 30
0.0
 10
13.527107
 20
14.696122
 30
0.0
 10
13.619271
 20
14.201257
 30
0.0
 10
14.355344
 20
13.238456
 30
0.0
  0
SPLINE
  5
117
100
AcDbEntity
  8
Image
 62
7
100
AcDbSpline
 70
8
 71
3
 72
8
 73
4
 74
0
 40
0
 40
0
 40
0
 40
0
 40
1
 40
1
 40
1
 40
1
 10
14.355344
 20
13.238456
 30
0.0
 10
15.933440
 20
11.174265
 30
0.0
 10
15.435195
 20
9.541152
 30
0.0
 10
12.711793
 20
7.851339
 30
0.0
  0
SPLINE
  5
118
100
AcDbEntity
  8
Image
 62
7
100
AcDbSpline
 70
8
 71
3
 72
8
 73
4
 74
0
 40
0
 40
0
 40
0
 40
0
 40
1
 40
1
 40
1
 40
1
 10
12.711793
 20
7.851339
 30
0.0
 10
12.179620
 20
7.521137
 30
0.0
 10
11.620854
 20
7.142668
 30
0.0
 10
11.470093
 20
7.010296
 30
0.0
  0
SPLINE
  5
119
100
AcDbEntity
  8
Image
 62
7
100
AcDbSpline
 70
8
 71
3
 72
8
 73
4
 74
0
 40
0
 40
0
 40
0
 40
0
 40
1
 40
1
 40
1
 40
1
 10
11.470093
 20
7.010296
 30
0.0
 10
11.052823
 20
6.643930
 30
0.0
 10
10.310178
 20
7.204536
 30
0.0
 10
9.517993
 20
8.483894
 30
0.0
  0
SPLINE
  5
11a
100
AcDbEntity
  8
Image
 62
7
100
AcDbSpline
 70
8
 71
3
 72
8
 73
4
 74
0
 40
0
 40
0
 40
0
 40
0
 40
1
 40
1
 40
1
 40
1
 10
9.517993
 20
8.483894
 30
0.0
 10
9.257291
 20
8.904919
 30
0.0
 10
9.195048
 20
8.958921
 30
0.0
 10
9.056148
 20
8.884584
 30
0.0
  0
SPLINE
  5
11b
100
AcDbEntity
  8
Image
 62
7
100
AcDbSpline
 70
8
 71
3
 72
8
 73
4
 74
0
 40
0
 40
0
 40
0
 40
0
 40
1
 40
1
 40
1
 40
1
 10
9.056148
 20
8.884584
 30
0.0
 10
8.788025
 20
8.741089
 30
0.0
 10
7.410451
 20
7.393200
 30
0.0
 10
7.154612
 20
7.024023
 30
0.0
  0
SPLINE
  5
11c
100
AcDbEntity
  8
Image
 62
7
100
AcDbSpline
 70
8
 71
3
 72
8
 73
4
 74
0
 40
0
 40
0
 40
0
 40
0
 40
1
 40
1
 40
1
 40
1
 10
7.154612
 20
7.024023
 30
0.0
 10
6.885356
 20
6.635487
 30
0.0
 10
6.702734
 20
6.614375
 30
0.0
 10
6.540427
 20
6.953018
 30
0.0
  0
SPLINE
  5
11d
100
AcDbEntity
  8
Image
 62
7
100
AcDbSpline
 70
8
 71
3
 72
8
 73
4
 74
0
 40
0
 40
0
 40
0
 40
0
 40
1
 40
1
 40
1
 40
1
 10
6.540427
 20
6.953018
 30
0.0
 10
5.805016
 20
8.487401
 30
0.0
 10
2.916232
 20
8.358635
 30
0.0
 10
3.074422
 20
6.798522
 30
0.0
  0
SPLINE
  5
11e
100
AcDbEntity
  8
Image
 62
7
100
AcDbSpline
 70
8
 71
3
 72
8
 73
4
 74
0
 40
0
 40
0
 40
0
 40
0
 40
1
 40
1
 40
1
 40
1
 10
3.074422
 20
6.798522
 30
0.0
 10
3.251234
 20
5.054760
 30
0.0
 10
7.085271
 20
4.750289
 30
0.0
 10
8.826561
 20
6.341730
 30
0.0
  0
SPLINE
  5
11f
100
AcDbEntity
  8
Image
 62
7
100
AcDbSpline
 70
8
 71
3
 72
8
 73
4
 74
0
 40
0
 40
0
 40
0
 40
0
 40
1
 40
1
 40
1
 40
1
 10
8.826561
 20
6.341730
 30
0.0
 10
9.447309
 20
6.909059
 30
0.0
 10
9.676298
 20
6.881655
 30
0.0
 10
9.363842
 20
6.277430
 30
0.0
  0
SPLINE
  5
120
100
AcDbEntity
  8
Image
 62
7
100
AcDbSpline
 70
8
 71
3
 72
8
 73
4
 74
0
 40
0
 40
0
 40
0
 40
0
 40
1
 40
1
 40
1
 40
1
 10
9.363842
 20
6.277430
 30
0.0
 10
8.696248
 20
4.986446
 30
0.0
 10
6.392881
 20
4.151390
 30
0.0
 10
4.762558
 20
4.609293
 30
0.0
  0
SPLINE
  5
121
100
AcDbEntity
  8
Image
 62
7
100
AcDbSpline
 70
8
 71
3
 72
8
 73
4
 74
0
 40
0
 40
0
 40
0
 40
0
 40
1
 40
1
 40
1
 40
1
 10
6.765998
 20
4.783451
 30
0.0
 10
7.369407
 20
4.925683
 30
0.0
 10
7.934290
 20
5.208154
 30
0.0
 10
8.381999
 20
5.591536
 30
0.0
  0
SPLINE
  5
122
100
AcDbEntity
  8
Image
 62
7
100
AcDbSpline
 70
8
 71
3
 72
8
 73
4
 74
0
 40
0
 40
0
 40
0
 40
0
 40
1
 40
1
 40
1
 40
1
 10
8.381999
 20
5.591536
 30
0.0
 10
8.678333
 20
5.845292
 30
0.0
 10
8.678333
 20
5.845292
 30
0.0
 10
8.267836
 20
5.593018
 30
0.0
  0
SPLINE
  5
123
100
AcDbEntity
  8
Image
 62
7
100
AcDbSpline
 70
8
 71
3
 72
8
 73
4
 74
0
 40
0
 40
0
 40
0
 40
0
 40
1
 40
1
 40
1
 40
1
 10
8.267836
 20
5.593018
 30
0.0
 10
7.303745
 20
5.000533
 30
0.0
 10
4.873240
 20
4.980840
 30
0.0
 10
3.683000
 20
5.555870
 30
0.0
  0
SPLINE
  5
124
100
AcDbEntity
  8
Image
 62
7
100
AcDbSpline
 70
8
 71
3
 72
8
 73
4
 74
0
 40
0
 40
0
 40
0
 40
0
 40
1
 40
1
 40
1
 40
1
 10
3.683000
 20
5.555870
 30
0.0
 10
3.259667
 20
5.760391
 30
0.0
 10
3.259667
 20
5.760391
 30
0.0
 10
3.513666
 20
5.540561
 30
0.0
  0
SPLINE
  5
125
100
AcDbEntity
  8
Image
 62
7
100
AcDbSpline
 70
8
 71
3
 72
8
 73
4
 74
0
 40
0
 40
0
 40
0
 40
0
 40
1
 40
1
 40
1
 40
1
 10
3.513666
 20
5.540561
 30
0.0
 10
4.347364
 20
4.819021
 30
0.0
 10
5.640155
 20
4.518071
 30
0.0
 10
6.765998
 20
4.783448
 30
0.0
  0
LWPOLYLINE
  5
126
100
AcDbEntity
  8
Image
 62
7
100
AcDbPolyline
 90
1
 70
1
 10
4.762558
 20
4.609293
 30
0.0
  0
SPLINE
  5
127
100
AcDbEntity
  8
Image
 62
7
100
AcDbSpline
 70
8
 71
3
 72
8
 73
4
 74
0
 40
0
 40
0
 40
0
 40
0
 40
1
 40
1
 40
1
 40
1
 10
7.923925
 20
8.262040
 30
0.0
 10
8.280084
 20
8.553886
 30
0.0
 10
8.386636
 20
8.716955
 30
0.0
 10
8.221174
 20
8.716955
 30
0.0
  0
SPLINE
  5
128
100
AcDbEntity
  8
Image
 62
7
100
AcDbSpline
 70
8
 71
3
 72
8
 73
4
 74
0
 40
0
 40
0
 40
0
 40
0
 40
1
 40
1
 40
1
 40
1
 10
8.221174
 20
8.716955
 30
0.0
 10
8.179287
 20
8.716955
 30
0.0
 10
7.950955
 20
8.847549
 30
0.0
 10
7.713770
 20
9.007162
 30
0.0
  0
SPLINE
  5
129
100
AcDbEntity
  8
Image
 62
7
100
AcDbSpline
 70
8
 71
3
 72
8
 73
4
 74
0
 40
0
 40
0
 40
0
 40
0
 40
1
 40
1
 40
1
 40
1
 10
7.713770
 20
9.007162
 30
0.0
 10
6.372625
 20
9.909686
 30
0.0
 10
3.939645
 20
9.303680
 30
0.0
 10
3.094597
 20
7.856620
 30
0.0
  0
SPLINE
  5
12a
100
AcDbEntity
  8
Image
 62
7
100
AcDbSpline
 70
8
 71
3
 72
8
 73
4
 74
0
 40
0
 40
0
 40
0
 40
0
 40
1
 40
1
 40
1
 40
1
 10
3.094597
 20
7.856620
 30
0.0
 10
2.929527
 20
7.573956
 30
0.0
 10
2.929527
 20
7.573956
 30
0.0
 10
3.197086
 20
7.798509
 30
0.0
  0
SPLINE
  5
12b
100
AcDbEntity
  8
Image
 62
7
100
AcDbSpline
 70
8
 71
3
 72
8
 73
4
 74
0
 40
0
 40
0
 40
0
 40
0
 40
1
 40
1
 40
1
 40
1
 10
3.197086
 20
7.798509
 30
0.0
 10
3.867037
 20
8.360776
 30
0.0
 10
5.022695
 20
8.457101
 30
0.0
 10
5.779246
 20
8.013732
 30
0.0
  0
SPLINE
  5
12c
100
AcDbEntity
  8
Image
 62
7
100
AcDbSpline
 70
8
 71
3
 72
8
 73
4
 74
0
 40
0
 40
0
 40
0
 40
0
 40
1
 40
1
 40
1
 40
1
 10
5.779246
 20
8.013732
 30
0.0
 10
6.166477
 20
7.786800
 30
0.0
 10
6.773333
 20
7.177102
 30
0.0
 10
6.773333
 20
7.014990
 30
0.0
  0
SPLINE
  5
12d
100
AcDbEntity
  8
Image
 62
7
100
AcDbSpline
 70
8
 71
3
 72
8
 73
4
 74
0
 40
0
 40
0
 40
0
 40
0
 40
1
 40
1
 40
1
 40
1
 10
6.773333
 20
7.014990
 30
0.0
 10
6.773333
 20
6.963942
 30
0.0
 10
6.948200
 20
7.154801
 30
0.0
 10
7.161925
 20
7.439120
 30
0.0
  0
SPLINE
  5
12e
100
AcDbEntity
  8
Image
 62
7
100
AcDbSpline
 70
8
 71
3
 72
8
 73
4
 74
0
 40
0
 40
0
 40
0
 40
0
 40
1
 40
1
 40
1
 40
1
 10
7.161925
 20
7.439120
 30
0.0
 10
7.375651
 20
7.723438
 30
0.0
 10
7.718551
 20
8.093752
 30
0.0
 10
7.923925
 20
8.262040
 30
0.0
  0
LWPOLYLINE
  5
12f
100
AcDbEntity
  8
Image
 62
7
100
AcDbPolyline
 90
1
 70
1
 10
6.765998
 20
4.783448
 30
0.0
  0
SPLINE
  5
130
100
AcDbEntity
  8
Image
 62
7
100
AcDbSpline
 70
8
 71
3
 72
8
 73
4
 74
0
 40
0
 40
0
 40
0
 40
0
 40
1
 40
1
 40
1
 40
1
 10
12.269802
 20
7.881620
 30
0.0
 10
12.726522
 20
8.151796
 30
0.0
 10
12.766346
 20
8.195196
 30
0.0
 10
12.596621
 20
8.237795
 30
0.0
  0
SPLINE
  5
131
100
AcDbEntity
  8
Image
 62
7
100
AcDbSpline
 70
8
 71
3
 72
8
 73
4
 74
0
 40
0
 40
0
 40
0
 40
0
 40
1
 40
1
 40
1
 40
1
 10
12.596621
 20
8.237795
 30
0.0
 10
11.173743
 20
8.594914
 30
0.0
 10
10.499483
 20
11.146369
 30
0.0
 10
11.005829
 20
14.257479
 30
0.0
  0
SPLINE
  5
132
100
AcDbEntity
  8
Image
 62
7
100
AcDbSpline
 70
8
 71
3
 72
8
 73
4
 74
0
 40
0
 40
0
 40
0
 40
0
 40
1
 40
1
 40
1
 40
1
 10
11.005829
 20
14.257479
 30
0.0
 10
11.173162
 20
15.285615
 30
0.0
 10
9.683038
 20
14.276248
 30
0.0
 10
9.336909
 20
13.127002
 30
0.0
  0
SPLINE
  5
133
100
AcDbEntity
  8
Image
 62
7
100
AcDbSpline
 70
8
 71
3
 72
8
 73
4
 74
0
 40
0
 40
0
 40
0
 40
0
 40
1
 40
1
 40
1
 40
1
 10
9.336909
 20
13.127002
 30
0.0
 10
9.170386
 20
12.574099
 30
0.0
 10
9.115009
 20
9.225241
 30
0.0
 10
9.272385
 20
9.225056
 30
0.0
  0
SPLINE
  5
134
100
AcDbEntity
  8
Image
 62
7
100
AcDbSpline
 70
8
 71
3
 72
8
 73
4
 74
0
 40
0
 40
0
 40
0
 40
0
 40
1
 40
1
 40
1
 40
1
 10
9.272385
 20
9.225056
 30
0.0
 10
9.319714
 20
9.225001
 30
0.0
 10
9.486654
 20
9.005880
 30
0.0
 10
9.643362
 20
8.738122
 30
0.0
  0
SPLINE
  5
135
100
AcDbEntity
  8
Image
 62
7
100
AcDbSpline
 70
8
 71
3
 72
8
 73
4
 74
0
 40
0
 40
0
 40
0
 40
0
 40
1
 40
1
 40
1
 40
1
 10
9.643362
 20
8.738122
 30
0.0
 10
10.288331
 20
7.636099
 30
0.0
 10
11.080885
 20
7.001485
 30
0.0
 10
11.434357
 20
7.304035
 30
0.0
  0
SPLINE
  5
136
100
AcDbEntity
  8
Image
 62
7
100
AcDbSpline
 70
8
 71
3
 72
8
 73
4
 74
0
 40
0
 40
0
 40
0
 40
0
 40
1
 40
1
 40
1
 40
1
 10
11.434357
 20
7.304035
 30
0.0
 10
11.607800
 20
7.452491
 30
0.0
 10
11.983751
 20
7.712405
 30
0.0
 10
12.269802
 20
7.881620
 30
0.0
  0
LWPOLYLINE
  5
137
100
AcDbEntity
  8
Image
 62
7
100
AcDbPolyline
 90
1
 70
1
 10
7.923925
 20
8.262040
 30
0.0
  0
SPLINE
  5
138
100
AcDbEntity
  8
Image
 62
7
100
AcDbSpline
 70
8
 71
3
 72
8
 73
4
 74
0
 40
0
 40
0
 40
0
 40
0
 40
1
 40
1
 40
1
 40
1
 10
13.258799
 20
8.750822
 30
0.0
 10
13.773087
 20
9.265110
 30
0.0
 10
13.669195
 20
9.888756
 30
0.0
 10
12.913398
 20
10.824192
 30
0.0
  0
SPLINE
  5
139
100
AcDbEntity
  8
Image
 62
7
100
AcDbSpline
 70
8
 71
3
 72
8
 73
4
 74
0
 40
0
 40
0
 40
0
 40
0
 40
1
 40
1
 40
1
 40
1
 10
12.913398
 20
10.824192
 30
0.0
 10
11.827966
 20
12.167610
 30
0.0
 10
11.701221
 20
13.611156
 30
0.0
 10
12.574560
 20
14.683380
 30
0.0
  0
SPLINE
  5
13a
100
AcDbEntity
  8
Image
 62
7
100
AcDbSpline
 70
8
 71
3
 72
8
 73
4
 74
0
 40
0
 40
0
 40
0
 40
0
 40
1
 40
1
 40
1
 40
1
 10
12.574560
 20
14.683380
 30
0.0
 10
12.938699
 20
15.130444
 30
0.0
 10
12.938699
 20
15.130444
 30
0.0
 10
12.544182
 20
15.008380
 30
0.0
  0
SPLINE
  5
13b
100
AcDbEntity
  8
Image
 62
7
100
AcDbSpline
 70
8
 71
3
 72
8
 73
4
 74
0
 40
0
 40
0
 40
0
 40
0
 40
1
 40
1
 40
1
 40
1
 10
12.544182
 20
15.008380
 30
0.0
 10
12.327198
 20
14.941245
 30
0.0
 10
11.956027
 20
14.900990
 30
0.0
 10
11.719357
 20
14.918925
 30
0.0
  0
SPLINE
  5
13c
100
AcDbEntity
  8
Image
 62
7
100
AcDbSpline
 70
8
 71
3
 72
8
 73
4
 74
0
 40
0
 40
0
 40
0
 40
0
 40
1
 40
1
 40
1
 40
1
 10
11.719357
 20
14.918925
 30
0.0
 10
11.221241
 20
14.956671
 30
0.0
 10
11.037262
 20
13.947537
 30
0.0
 10
11.103658
 20
11.541781
 30
0.0
  0
SPLINE
  5
13d
100
AcDbEntity
  8
Image
 62
7
100
AcDbSpline
 70
8
 71
3
 72
8
 73
4
 74
0
 40
0
 40
0
 40
0
 40
0
 40
1
 40
1
 40
1
 40
1
 10
11.103658
 20
11.541781
 30
0.0
 10
11.161891
 20
9.431875
 30
0.0
 10
12.372319
 20
7.864342
 30
0.0
 10
13.258799
 20
8.750822
 30
0.0
  0
LWPOLYLINE
  5
13e
100
AcDbEntity
  8
Image
 62
7
100
AcDbPolyline
 90
1
 70
1
 10
12.269802
 20
7.881620
 30
0.0
  0
SPLINE
  5
13f
100
AcDbEntity
  8
Image
 62
7
100
AcDbSpline
 70
8
 71
3
 72
8
 73
4
 74
0
 40
0
 40
0
 40
0
 40
0
 40
1
 40
1
 40
1
 40
1
 10
14.228519
 20
9.288455
 30
0.0
 10
15.235033
 20
10.420481
 30
0.0
 10
15.235818
 20
11.683296
 30
0.0
 10
14.230821
 20
12.983796
 30
0.0
  0
SPLINE
  5
140
100
AcDbEntity
  8
Image
 62
7
100
AcDbSpline
 70
8
 71
3
 72
8
 73
4
 74
0
 40
0
 40
0
 40
0
 40
0
 40
1
 40
1
 40
1
 40
1
 10
14.230821
 20
12.983796
 30
0.0
 10
13.443735
 20
14.002309
 30
0.0
 10
13.250732
 20
14.836323
 30
0.0
 10
13.684820
 20
15.343194
 30
0.0
  0
SPLINE
  5
141
100
AcDbEntity
  8
Image
 62
7
100
AcDbSpline
 70
8
 71
3
 72
8
 73
4
 74
0
 40
0
 40
0
 40
0
 40
0
 40
1
 40
1
 40
1
 40
1
 10
13.684820
 20
15.343194
 30
0.0
 10
13.771819
 20
15.444780
 30
0.0
 10
13.645676
 20
15.354116
 30
0.0
 10
13.404503
 20
15.141722
 30
0.0
  0
SPLINE
  5
142
100
AcDbEntity
  8
Image
 62
7
100
AcDbSpline
 70
8
 71
3
 72
8
 73
4
 74
0
 40
0
 40
0
 40
0
 40
0
 40
1
 40
1
 40
1
 40
1
 10
13.404503
 20
15.141722
 30
0.0
 10
11.931666
 20
13.844631
 30
0.0
 10
11.818882
 20
12.592973
 30
0.0
 10
13.039198
 20
11.087622
 30
0.0
  0
SPLINE
  5
143
100
AcDbEntity
  8
Image
 62
7
100
AcDbSpline
 70
8
 71
3
 72
8
 73
4
 74
0
 40
0
 40
0
 40
0
 40
0
 40
1
 40
1
 40
1
 40
1
 10
13.039198
 20
11.087622
 30
0.0
 10
13.640914
 20
10.345360
 30
0.0
 10
13.822854
 20
9.921096
 30
0.0
 10
13.786885
 20
9.344097
 30
0.0
  0
SPLINE
  5
144
100
AcDbEntity
  8
Image
 62
7
100
AcDbSpline
 70
8
 71
3
 72
8
 73
4
 74
0
 40
0
 40
0
 40
0
 40
0
 40
1
 40
1
 40
1
 40
1
 10
13.786885
 20
9.344097
 30
0.0
 10
13.752058
 20
8.785424
 30
0.0
 10
13.778318
 20
8.782115
 30
0.0
 10
14.228518
 20
9.288455
 30
0.0
  0
LWPOLYLINE
  5
145
100
AcDbEntity
  8
Image
 62
7
100
AcDbPolyline
 90
1
 70
1
 10
13.258799
 20
8.750822
 30
0.0
  0
SPLINE
  5
146
100
AcDbEntity
  8
Image
 62
7
100
AcDbSpline
 70
8
 71
3
 72
8
 73
4
 74
0
 40
0
 40
0
 40
0
 40
0
 40
1
 40
1
 40
1
 40
1
 10
6.223000
 20
10.524978
 30
0.0
 10
7.054167
 20
10.913143
 30
0.0
 10
7.613355
 20
11.586582
 30
0.0
 10
7.960731
 20
12.617752
 30
0.0
  0
SPLINE
  5
147
100
AcDbEntity
  8
Image
 62
7
100
AcDbSpline
 70
8
 71
3
 72
8
 73
4
 74
0
 40
0
 40
0
 40
0
 40
0
 40
1
 40
1
 40
1
 40
1
 10
7.960731
 20
12.617752
 30
0.0
 10
8.169257
 20
13.236752
 30
0.0
 10
8.188591
 20
15.403767
 30
0.0
 10
7.985600
 20
15.405009
 30
0.0
  0
SPLINE
  5
148
100
AcDbEntity
  8
Image
 62
7
100
AcDbSpline
 70
8
 71
3
 72
8
 73
4
 74
0
 40
0
 40
0
 40
0
 40
0
 40
1
 40
1
 40
1
 40
1
 10
7.985600
 20
15.405009
 30
0.0
 10
7.930562
 20
15.405353
 30
0.0
 10
7.800818
 20
15.529446
 30
0.0
 10
7.697279
 20
15.680788
 30
0.0
  0
SPLINE
  5
149
100
AcDbEntity
  8
Image
 62
7
100
AcDbSpline
 70
8
 71
3
 72
8
 73
4
 74
0
 40
0
 40
0
 40
0
 40
0
 40
1
 40
1
 40
1
 40
1
 10
7.697279
 20
15.680788
 30
0.0
 10
6.701421
 20
17.136421
 30
0.0
 10
5.320218
 20
17.480310
 30
0.0
 10
3.217335
 20
16.796196
 30
0.0
  0
SPLINE
  5
14a
100
AcDbEntity
  8
Image
 62
7
100
AcDbSpline
 70
8
 71
3
 72
8
 73
4
 74
0
 40
0
 40
0
 40
0
 40
0
 40
1
 40
1
 40
1
 40
1
 10
3.217335
 20
16.796196
 30
0.0
 10
2.435726
 20
16.541921
 30
0.0
 10
1.707964
 20
16.487812
 30
0.0
 10
1.491037
 20
16.667845
 30
0.0
  0
SPLINE
  5
14b
100
AcDbEntity
  8
Image
 62
7
100
AcDbSpline
 70
8
 71
3
 72
8
 73
4
 74
0
 40
0
 40
0
 40
0
 40
0
 40
1
 40
1
 40
1
 40
1
 10
1.491037
 20
16.667845
 30
0.0
 10
1.279314
 20
16.843560
 30
0.0
 10
1.310973
 20
16.395421
 30
0.0
 10
1.538938
 20
15.989813
 30
0.0
  0
SPLINE
  5
14c
100
AcDbEntity
  8
Image
 62
7
100
AcDbSpline
 70
8
 71
3
 72
8
 73
4
 74
0
 40
0
 40
0
 40
0
 40
0
 40
1
 40
1
 40
1
 40
1
 10
1.538938
 20
15.989813
 30
0.0
 10
1.950649
 20
15.257271
 30
0.0
 10
2.738260
 20
14.964651
 30
0.0
 10
4.091918
 20
15.041308
 30
0.0
  0
SPLINE
  5
14d
100
AcDbEntity
  8
Image
 62
7
100
AcDbSpline
 70
8
 71
3
 72
8
 73
4
 74
0
 40
0
 40
0
 40
0
 40
0
 40
1
 40
1
 40
1
 40
1
 10
4.091918
 20
15.041308
 30
0.0
 10
6.117193
 20
15.155998
 30
0.0
 10
6.815668
 20
14.554645
 30
0.0
 10
6.815668
 20
12.696288
 30
0.0
  0
SPLINE
  5
14e
100
AcDbEntity
  8
Image
 62
7
100
AcDbSpline
 70
8
 71
3
 72
8
 73
4
 74
0
 40
0
 40
0
 40
0
 40
0
 40
1
 40
1
 40
1
 40
1
 10
6.815668
 20
12.696288
 30
0.0
 10
6.815668
 20
11.179282
 30
0.0
 10
6.368686
 20
10.539547
 30
0.0
 10
5.216811
 20
10.407948
 30
0.0
  0
SPLINE
  5
14f
100
AcDbEntity
  8
Image
 62
7
100
AcDbSpline
 70
8
 71
3
 72
8
 73
4
 74
0
 40
0
 40
0
 40
0
 40
0
 40
1
 40
1
 40
1
 40
1
 10
5.216811
 20
10.407948
 30
0.0
 10
4.699001
 20
10.348791
 30
0.0
 10
4.699001
 20
10.348791
 30
0.0
 10
5.249334
 20
10.338033
 30
0.0
  0
SPLINE
  5
150
100
AcDbEntity
  8
Image
 62
7
100
AcDbSpline
 70
8
 71
3
 72
8
 73
4
 74
0
 40
0
 40
0
 40
0
 40
0
 40
1
 40
1
 40
1
 40
1
 10
5.249334
 20
10.338033
 30
0.0
 10
5.665066
 20
10.329905
 30
0.0
 10
5.903207
 20
10.375630
 30
0.0
 10
6.223001
 20
10.524978
 30
0.0
  0
LWPOLYLINE
  5
151
100
AcDbEntity
  8
Image
 62
7
100
AcDbPolyline
 90
1
 70
1
 10
14.228518
 20
9.288455
 30
0.0
  0
SPLINE
  5
152
100
AcDbEntity
  8
Image
 62
7
100
AcDbSpline
 70
8
 71
3
 72
8
 73
4
 74
0
 40
0
 40
0
 40
0
 40
0
 40
1
 40
1
 40
1
 40
1
 10
4.094617
 20
10.960622
 30
0.0
 10
4.123346
 20
11.035486
 30
0.0
 10
4.250441
 20
11.087622
 30
0.0
 10
4.404214
 20
11.087622
 30
0.0
  0
SPLINE
  5
153
100
AcDbEntity
  8
Image
 62
7
100
AcDbSpline
 70
8
 71
3
 72
8
 73
4
 74
0
 40
0
 40
0
 40
0
 40
0
 40
1
 40
1
 40
1
 40
1
 10
4.404214
 20
11.087622
 30
0.0
 10
5.251272
 20
11.087622
 30
0.0
 10
5.672388
 20
12.032259
 30
0.0
 10
5.086512
 20
12.618134
 30
0.0
  0
SPLINE
  5
154
100
AcDbEntity
  8
Image
 62
7
100
AcDbSpline
 70
8
 71
3
 72
8
 73
4
 74
0
 40
0
 40
0
 40
0
 40
0
 40
1
 40
1
 40
1
 40
1
 10
5.086512
 20
12.618134
 30
0.0
 10
4.480252
 20
13.224395
 30
0.0
 10
3.365975
 20
12.604455
 30
0.0
 10
3.525723
 20
11.749772
 30
0.0
  0
SPLINE
  5
155
100
AcDbEntity
  8
Image
 62
7
100
AcDbSpline
 70
8
 71
3
 72
8
 73
4
 74
0
 40
0
 40
0
 40
0
 40
0
 40
1
 40
1
 40
1
 40
1
 10
3.525723
 20
11.749772
 30
0.0
 10
3.631503
 20
11.183823
 30
0.0
 10
3.989633
 20
10.687038
 30
0.0
 10
4.094617
 20
10.960622
 30
0.0
  0
LWPOLYLINE
  5
156
100
AcDbEntity
  8
Image
 62
7
100
AcDbPolyline
 90
1
 70
1
 10
6.223001
 20
10.524978
 30
0.0
  0
SPLINE
  5
157
100
AcDbEntity
  8
Image
 62
7
100
AcDbSpline
 70
8
 71
3
 72
8
 73
4
 74
0
 40
0
 40
0
 40
0
 40
0
 40
1
 40
1
 40
1
 40
1
 10
12.966216
 20
15.428185
 30
0.0
 10
13.353607
 20
15.657686
 30
0.0
 10
14.401093
 20
16.679630
 30
0.0
 10
14.081398
 20
16.516175
 30
0.0
  0
SPLINE
  5
158
100
AcDbEntity
  8
Image
 62
7
100
AcDbSpline
 70
8
 71
3
 72
8
 73
4
 74
0
 40
0
 40
0
 40
0
 40
0
 40
1
 40
1
 40
1
 40
1
 10
14.081398
 20
16.516175
 30
0.0
 10
13.696630
 20
16.319449
 30
0.0
 10
13.078423
 20
16.403824
 30
0.0
 10
12.284140
 20
16.761471
 30
0.0
  0
SPLINE
  5
159
100
AcDbEntity
  8
Image
 62
7
100
AcDbSpline
 70
8
 71
3
 72
8
 73
4
 74
0
 40
0
 40
0
 40
0
 40
0
 40
1
 40
1
 40
1
 40
1
 10
12.284140
 20
16.761471
 30
0.0
 10
11.107821
 20
17.291138
 30
0.0
 10
10.414334
 20
17.334655
 30
0.0
 10
9.626787
 20
16.928221
 30
0.0
  0
SPLINE
  5
15a
100
AcDbEntity
  8
Image
 62
7
100
AcDbSpline
 70
8
 71
3
 72
8
 73
4
 74
0
 40
0
 40
0
 40
0
 40
0
 40
1
 40
1
 40
1
 40
1
 10
9.626787
 20
16.928221
 30
0.0
 10
8.983701
 20
16.596339
 30
0.0
 10
8.494892
 20
16.030024
 30
0.0
 10
8.968843
 20
16.165951
 30
0.0
  0
SPLINE
  5
15b
100
AcDbEntity
  8
Image
 62
7
100
AcDbSpline
 70
8
 71
3
 72
8
 73
4
 74
0
 40
0
 40
0
 40
0
 40
0
 40
1
 40
1
 40
1
 40
1
 10
8.968843
 20
16.165951
 30
0.0
 10
9.364494
 20
16.279423
 30
0.0
 10
9.859715
 20
16.115471
 30
0.0
 10
10.651354
 20
15.608928
 30
0.0
  0
SPLINE
  5
15c
100
AcDbEntity
  8
Image
 62
7
100
AcDbSpline
 70
8
 71
3
 72
8
 73
4
 74
0
 40
0
 40
0
 40
0
 40
0
 40
1
 40
1
 40
1
 40
1
 10
10.651354
 20
15.608928
 30
0.0
 10
11.530206
 20
15.046579
 30
0.0
 10
12.229864
 20
14.991950
 30
0.0
 10
12.966216
 20
15.428185
 30
0.0
  0
LWPOLYLINE
  5
15d
100
AcDbEntity
  8
Image
 62
7
100
AcDbPolyline
 90
1
 70
1
 10
4.094617
 20
10.960622
 30
0.0
  0
LWPOLYLINE
  5
15e
100
AcDbEntity
  8
Image
 62
7
100
AcDbPolyline
 90
1
 70
1
 10
12.966216
 20
15.428185
 30
0.0
  0
ENDSEC
  0
SECTION
  2
OBJECTS
  0
DICTIONARY
  5
C
330
0
100
AcDbDictionary
  3
ACAD_GROUP
350
D
  3
ACAD_MLINESTYLE
350
17
  0
DICTIONARY
  5
D
330
C
100
AcDbDictionary
  0
DICTIONARY
  5
1A
330
C
100
AcDbDictionary
  0
DICTIONARY
  5
17
330
C
100
AcDbDictionary
  3
STANDARD
350
18
  0
DICTIONARY
  5
19
330
C
100
AcDbDictionary
  0
ENDSEC
  0
EOF
