  0
SECTION
  2
HEADER
  9
$ACADVER
  1
AC1014
  9
$HANDSEED
  5
FFFF
  9
$MEASUREMENT
 70
     1
  0
ENDSEC
  0
SECTION
  2
TABLES
  0
TABLE
  2
VPORT
  5
8
330
0
100
AcDbSymbolTable
 70
     4
  0
VPORT
  5
2E
330
8
100
AcDbSymbolTableRecord
100
AcDbViewportTableRecord
  2
*ACTIVE
 70
     0
 10
0.0
 20
0.0
 11
1.0
 21
1.0
 12
210.0
 22
148.5
 13
0.0
 23
0.0
 14
10.0
 24
10.0
 15
10.0
 25
10.0
 16
0.0
 26
0.0
 36
1.0
 17
0.0
 27
0.0
 37
0.0
 40
341.0
 41
1.24
 42
50.0
 43
0.0
 44
0.0
 50
0.0
 51
0.0
 71
     0
 72
   100
 73
     1
 74
     3
 75
     0
 76
     0
 77
     0
 78
     0
  0
ENDTAB
  0
TABLE
  2
LTYPE
  5
5
330
0
100
AcDbSymbolTable
 70
     1
  0
LTYPE
  5
14
330
5
100
AcDbSymbolTableRecord
100
AcDbLinetypeTableRecord
  2
BYBLOCK
 70
     0
  3

 72
    65
 73
     0
 40
0.0
  0
LTYPE
  5
15
330
5
100
AcDbSymbolTableRecord
100
AcDbLinetypeTableRecord
  2
BYLAYER
 70
     0
  3

 72
    65
 73
     0
 40
0.0
  0
LTYPE
  5
16
330
5
100
AcDbSymbolTableRecord
100
AcDbLinetypeTableRecord
  2
CONTINUOUS
 70
     0
  3
Solid line
 72
    65
 73
     0
 40
0.0
  0
ENDTAB
  0
TABLE
  2
LAYER
  5
2
100
AcDbSymbolTable
 70
2
  0
LAYER
  5
50
100
AcDbSymbolTableRecord
100
AcDbLayerTableRecord
  2
0
 70
0
  6
CONTINUOUS
  0
LAYER
  5
51
100
AcDbSymbolTableRecord
100
AcDbLayerTableRecord
  2
Image
 70
0
  6
CONTINUOUS
  0
ENDTAB
  0
TABLE
  2
STYLE
  5
3
330
0
100
AcDbSymbolTable
 70
     1
  0
STYLE
  5
11
330
3
100
AcDbSymbolTableRecord
100
AcDbTextStyleTableRecord
  2
STANDARD
 70
     0
 40
0.0
 41
1.0
 50
0.0
 71
     0
 42
2.5
  3
txt
  4

  0
ENDTAB
  0
TABLE
  2
VIEW
  5
6
330
0
100
AcDbSymbolTable
 70
     0
  0
ENDTAB
  0
TABLE
  2
UCS
  5
7
330
0
100
AcDbSymbolTable
 70
     0
  0
ENDTAB
  0
TABLE
  2
APPID
  5
9
330
0
100
AcDbSymbolTable
 70
     2
  0
APPID
  5
12
330
9
100
AcDbSymbolTableRecord
100
AcDbRegAppTableRecord
  2
ACAD
 70
     0
  0
ENDTAB
  0
TABLE
  2
DIMSTYLE
  5
A
330
0
100
AcDbSymbolTable
 70
     1
  0
DIMSTYLE
105
27
330
A
100
AcDbSymbolTableRecord
100
AcDbDimStyleTableRecord
  2
ISO-25
 70
     0
  3

  4

  5

  6

  7

 40
1.0
 41
2.5
 42
0.625
 43
3.75
 44
1.25
 45
0.0
 46
0.0
 47
0.0
 48
0.0
140
2.5
141
2.5
142
0.0
143
0.03937007874016
144
1.0
145
0.0
146
1.0
147
0.625
 71
     0
 72
     0
 73
     0
 74
     0
 75
     0
 76
     0
 77
     1
 78
     8
170
     0
171
     3
172
     1
173
     0
174
     0
175
     0
176
     0
177
     0
178
     0
270
     2
271
     2
272
     2
273
     2
274
     3
340
11
275
     0
280
     0
281
     0
282
     0
283
     0
284
     8
285
     0
286
     0
287
     3
288
     0
  0
ENDTAB
  0
TABLE
  2
BLOCK_RECORD
  5
1
330
0
100
AcDbSymbolTable
 70
     1
  0
BLOCK_RECORD
  5
1F
330
1
100
AcDbSymbolTableRecord
100
AcDbBlockTableRecord
  2
*MODEL_SPACE
  0
BLOCK_RECORD
  5
1B
330
1
100
AcDbSymbolTableRecord
100
AcDbBlockTableRecord
  2
*PAPER_SPACE
  0
ENDTAB
  0
ENDSEC
  0
SECTION
  2
BLOCKS
  0
BLOCK
  5
20
330
1F
100
AcDbEntity
  8
0
100
AcDbBlockBegin
  2
*MODEL_SPACE
 70
     0
 10
0.0
 20
0.0
 30
0.0
  3
*MODEL_SPACE
  1

  0
ENDBLK
  5
21
330
1F
100
AcDbEntity
  8
0
100
AcDbBlockEnd
  0
BLOCK
  5
1C
330
1B
100
AcDbEntity
 67
     1
  8
0
100
AcDbBlockBegin
  2
*PAPER_SPACE
  1

  0
ENDBLK
  5
1D
330
1B
100
AcDbEntity
 67
     1
  8
0
100
AcDbBlockEnd
  0
ENDSEC
  0
SECTION
  2
ENTITIES
  0
SPLINE
  5
100
100
AcDbEntity
  8
Image
 62
7
100
AcDbSpline
 70
8
 71
3
 72
8
 73
4
 74
0
 40
0
 40
0
 40
0
 40
0
 40
1
 40
1
 40
1
 40
1
 10
18.000214
 20
17.420950
 30
0.0
 10
4.281733
 20
21.274019
 30
0.0
 10
9.365793
 20
37.094411
 30
0.0
 10
24.100146
 20
36.402494
 30
0.0
  0
SPLINE
  5
101
100
AcDbEntity
  8
Image
 62
7
100
AcDbSpline
 70
8
 71
3
 72
8
 73
4
 74
0
 40
0
 40
0
 40
0
 40
0
 40
1
 40
1
 40
1
 40
1
 10
24.100146
 20
36.402494
 30
0.0
 10
27.113760
 20
36.260977
 30
0.0
 10
28.571805
 20
35.763601
 30
0.0
 10
30.798038
 20
34.117675
 30
0.0
  0
SPLINE
  5
102
100
AcDbEntity
  8
Image
 62
7
100
AcDbSpline
 70
8
 71
3
 72
8
 73
4
 74
0
 40
0
 40
0
 40
0
 40
0
 40
1
 40
1
 40
1
 40
1
 10
30.798038
 20
34.117675
 30
0.0
 10
32.993953
 20
32.494165
 30
0.0
 10
33.736234
 20
34.482097
 30
0.0
 10
33.919997
 20
42.478743
 30
0.0
  0
SPLINE
  5
103
100
AcDbEntity
  8
Image
 62
7
100
AcDbSpline
 70
8
 71
3
 72
8
 73
4
 74
0
 40
0
 40
0
 40
0
 40
0
 40
1
 40
1
 40
1
 40
1
 10
33.919997
 20
42.478743
 30
0.0
 10
34.135796
 20
51.869320
 30
0.0
 10
35.017799
 20
53.816675
 30
0.0
 10
40.189053
 20
56.320036
 30
0.0
  0
SPLINE
  5
104
100
AcDbEntity
  8
Image
 62
7
100
AcDbSpline
 70
8
 71
3
 72
8
 73
4
 74
0
 40
0
 40
0
 40
0
 40
0
 40
1
 40
1
 40
1
 40
1
 10
40.189053
 20
56.320036
 30
0.0
 10
41.606225
 20
57.006077
 30
0.0
 10
41.606225
 20
57.006077
 30
0.0
 10
39.603111
 20
58.303501
 30
0.0
  0
SPLINE
  5
105
100
AcDbEntity
  8
Image
 62
7
100
AcDbSpline
 70
8
 71
3
 72
8
 73
4
 74
0
 40
0
 40
0
 40
0
 40
0
 40
1
 40
1
 40
1
 40
1
 10
39.603111
 20
58.303501
 30
0.0
 10
33.787015
 20
62.070606
 30
0.0
 10
31.106172
 20
60.746568
 30
0.0
 10
31.507741
 20
54.305292
 30
0.0
  0
SPLINE
  5
106
100
AcDbEntity
  8
Image
 62
7
100
AcDbSpline
 70
8
 71
3
 72
8
 73
4
 74
0
 40
0
 40
0
 40
0
 40
0
 40
1
 40
1
 40
1
 40
1
 10
31.507741
 20
54.305292
 30
0.0
 10
32.210260
 20
43.036743
 30
0.0
 10
23.568218
 20
34.623723
 30
0.0
 10
15.912833
 20
39.123662
 30
0.0
  0
SPLINE
  5
107
100
AcDbEntity
  8
Image
 62
7
100
AcDbSpline
 70
8
 71
3
 72
8
 73
4
 74
0
 40
0
 40
0
 40
0
 40
0
 40
1
 40
1
 40
1
 40
1
 10
15.912833
 20
39.123662
 30
0.0
 10
10.147012
 20
42.512890
 30
0.0
 10
12.444822
 20
51.513099
 30
0.0
 10
18.488655
 20
49.212801
 30
0.0
  0
SPLINE
  5
108
100
AcDbEntity
  8
Image
 62
7
100
AcDbSpline
 70
8
 71
3
 72
8
 73
4
 74
0
 40
0
 40
0
 40
0
 40
0
 40
1
 40
1
 40
1
 40
1
 10
18.488655
 20
49.212801
 30
0.0
 10
22.455024
 20
47.703188
 30
0.0
 10
21.811199
 20
41.817450
 30
0.0
 10
17.601905
 20
41.106295
 30
0.0
  0
SPLINE
  5
109
100
AcDbEntity
  8
Image
 62
7
100
AcDbSpline
 70
8
 71
3
 72
8
 73
4
 74
0
 40
0
 40
0
 40
0
 40
0
 40
1
 40
1
 40
1
 40
1
 10
17.601905
 20
41.106295
 30
0.0
 10
15.387199
 20
40.732123
 30
0.0
 10
16.596588
 20
40.217668
 30
0.0
 10
19.362556
 20
40.357345
 30
0.0
  0
SPLINE
  5
10a
100
AcDbEntity
  8
Image
 62
7
100
AcDbSpline
 70
8
 71
3
 72
8
 73
4
 74
0
 40
0
 40
0
 40
0
 40
0
 40
1
 40
1
 40
1
 40
1
 10
19.362556
 20
40.357345
 30
0.0
 10
23.850012
 20
40.583950
 30
0.0
 10
26.162833
 20
44.797956
 30
0.0
 10
24.936957
 20
50.514016
 30
0.0
  0
SPLINE
  5
10b
100
AcDbEntity
  8
Image
 62
7
100
AcDbSpline
 70
8
 71
3
 72
8
 73
4
 74
0
 40
0
 40
0
 40
0
 40
0
 40
1
 40
1
 40
1
 40
1
 10
24.936957
 20
50.514016
 30
0.0
 10
24.006720
 20
54.851564
 30
0.0
 10
21.831101
 20
56.045147
 30
0.0
 10
14.747165
 20
56.104315
 30
0.0
  0
SPLINE
  5
10c
100
AcDbEntity
  8
Image
 62
7
100
AcDbSpline
 70
8
 71
3
 72
8
 73
4
 74
0
 40
0
 40
0
 40
0
 40
0
 40
1
 40
1
 40
1
 40
1
 10
14.747165
 20
56.104315
 30
0.0
 10
6.584506
 20
56.172495
 30
0.0
 10
1.890813
 20
60.539556
 30
0.0
 10
4.556338
 20
65.585970
 30
0.0
  0
SPLINE
  5
10d
100
AcDbEntity
  8
Image
 62
7
100
AcDbSpline
 70
8
 71
3
 72
8
 73
4
 74
0
 40
0
 40
0
 40
0
 40
0
 40
1
 40
1
 40
1
 40
1
 10
4.556338
 20
65.585970
 30
0.0
 10
5.299147
 20
66.992266
 30
0.0
 10
6.239999
 20
66.634626
 30
0.0
 10
6.239999
 20
64.945970
 30
0.0
  0
SPLINE
  5
10e
100
AcDbEntity
  8
Image
 62
7
100
AcDbSpline
 70
8
 71
3
 72
8
 73
4
 74
0
 40
0
 40
0
 40
0
 40
0
 40
1
 40
1
 40
1
 40
1
 10
6.239999
 20
64.945970
 30
0.0
 10
6.239999
 20
62.997392
 30
0.0
 10
7.419623
 20
62.868841
 30
0.0
 10
11.795411
 20
64.340563
 30
0.0
  0
SPLINE
  5
10f
100
AcDbEntity
  8
Image
 62
7
100
AcDbSpline
 70
8
 71
3
 72
8
 73
4
 74
0
 40
0
 40
0
 40
0
 40
0
 40
1
 40
1
 40
1
 40
1
 10
11.795411
 20
64.340563
 30
0.0
 10
19.678301
 20
66.991838
 30
0.0
 10
26.197863
 20
65.393989
 30
0.0
 10
29.810269
 20
59.925387
 30
0.0
  0
SPLINE
  5
110
100
AcDbEntity
  8
Image
 62
7
100
AcDbSpline
 70
8
 71
3
 72
8
 73
4
 74
0
 40
0
 40
0
 40
0
 40
0
 40
1
 40
1
 40
1
 40
1
 10
29.810269
 20
59.925387
 30
0.0
 10
30.264139
 20
59.238301
 30
0.0
 10
30.309742
 20
59.268935
 30
0.0
 10
32.177338
 20
61.515449
 30
0.0
  0
SPLINE
  5
111
100
AcDbEntity
  8
Image
 62
7
100
AcDbSpline
 70
8
 71
3
 72
8
 73
4
 74
0
 40
0
 40
0
 40
0
 40
0
 40
1
 40
1
 40
1
 40
1
 10
32.177338
 20
61.515449
 30
0.0
 10
36.051572
 20
66.175729
 30
0.0
 10
40.444490
 20
67.049504
 30
0.0
 10
46.465575
 20
64.357454
 30
0.0
  0
SPLINE
  5
112
100
AcDbEntity
  8
Image
 62
7
100
AcDbSpline
 70
8
 71
3
 72
8
 73
4
 74
0
 40
0
 40
0
 40
0
 40
0
 40
1
 40
1
 40
1
 40
1
 10
46.465575
 20
64.357454
 30
0.0
 10
50.951453
 20
62.351802
 30
0.0
 10
51.740445
 20
62.306061
 30
0.0
 10
53.522121
 20
63.948351
 30
0.0
  0
SPLINE
  5
113
100
AcDbEntity
  8
Image
 62
7
100
AcDbSpline
 70
8
 71
3
 72
8
 73
4
 74
0
 40
0
 40
0
 40
0
 40
0
 40
1
 40
1
 40
1
 40
1
 10
53.522121
 20
63.948351
 30
0.0
 10
56.501068
 20
66.694249
 30
0.0
 10
56.525033
 20
64.946173
 30
0.0
 10
53.564381
 20
60.865970
 30
0.0
  0
SPLINE
  5
114
100
AcDbEntity
  8
Image
 62
7
100
AcDbSpline
 70
8
 71
3
 72
8
 73
4
 74
0
 40
0
 40
0
 40
0
 40
0
 40
1
 40
1
 40
1
 40
1
 10
53.564381
 20
60.865970
 30
0.0
 10
53.248679
 20
60.430886
 30
0.0
 10
53.184013
 20
60.145970
 30
0.0
 10
53.400970
 20
60.145970
 30
0.0
  0
SPLINE
  5
115
100
AcDbEntity
  8
Image
 62
7
100
AcDbSpline
 70
8
 71
3
 72
8
 73
4
 74
0
 40
0
 40
0
 40
0
 40
0
 40
1
 40
1
 40
1
 40
1
 10
53.400970
 20
60.145970
 30
0.0
 10
54.031463
 20
60.145970
 30
0.0
 10
53.788471
 20
59.219729
 30
0.0
 10
52.800000
 20
57.855187
 30
0.0
  0
SPLINE
  5
116
100
AcDbEntity
  8
Image
 62
7
100
AcDbSpline
 70
8
 71
3
 72
8
 73
4
 74
0
 40
0
 40
0
 40
0
 40
0
 40
1
 40
1
 40
1
 40
1
 10
52.800000
 20
57.855187
 30
0.0
 10
51.126075
 20
55.544399
 30
0.0
 10
51.474411
 20
53.674042
 30
0.0
 10
54.256416
 20
50.035108
 30
0.0
  0
SPLINE
  5
117
100
AcDbEntity
  8
Image
 62
7
100
AcDbSpline
 70
8
 71
3
 72
8
 73
4
 74
0
 40
0
 40
0
 40
0
 40
0
 40
1
 40
1
 40
1
 40
1
 10
54.256416
 20
50.035108
 30
0.0
 10
60.220874
 20
42.233444
 30
0.0
 10
58.337744
 20
36.061048
 30
0.0
 10
48.044571
 20
29.674351
 30
0.0
  0
SPLINE
  5
118
100
AcDbEntity
  8
Image
 62
7
100
AcDbSpline
 70
8
 71
3
 72
8
 73
4
 74
0
 40
0
 40
0
 40
0
 40
0
 40
1
 40
1
 40
1
 40
1
 10
48.044571
 20
29.674351
 30
0.0
 10
46.033208
 20
28.426345
 30
0.0
 10
43.921339
 20
26.995910
 30
0.0
 10
43.351531
 20
26.495609
 30
0.0
  0
SPLINE
  5
119
100
AcDbEntity
  8
Image
 62
7
100
AcDbSpline
 70
8
 71
3
 72
8
 73
4
 74
0
 40
0
 40
0
 40
0
 40
0
 40
1
 40
1
 40
1
 40
1
 10
43.351531
 20
26.495609
 30
0.0
 10
41.774449
 20
25.110915
 30
0.0
 10
38.967601
 20
27.229743
 30
0.0
 10
35.973515
 20
32.065112
 30
0.0
  0
SPLINE
  5
11a
100
AcDbEntity
  8
Image
 62
7
100
AcDbSpline
 70
8
 71
3
 72
8
 73
4
 74
0
 40
0
 40
0
 40
0
 40
0
 40
1
 40
1
 40
1
 40
1
 10
35.973515
 20
32.065112
 30
0.0
 10
34.988187
 20
33.656385
 30
0.0
 10
34.752936
 20
33.860488
 30
0.0
 10
34.227960
 20
33.579528
 30
0.0
  0
SPLINE
  5
11b
100
AcDbEntity
  8
Image
 62
7
100
AcDbSpline
 70
8
 71
3
 72
8
 73
4
 74
0
 40
0
 40
0
 40
0
 40
0
 40
1
 40
1
 40
1
 40
1
 10
34.227960
 20
33.579528
 30
0.0
 10
33.214581
 20
33.037185
 30
0.0
 10
28.008006
 20
27.942803
 30
0.0
 10
27.041052
 20
26.547487
 30
0.0
  0
SPLINE
  5
11c
100
AcDbEntity
  8
Image
 62
7
100
AcDbSpline
 70
8
 71
3
 72
8
 73
4
 74
0
 40
0
 40
0
 40
0
 40
0
 40
1
 40
1
 40
1
 40
1
 10
27.041052
 20
26.547487
 30
0.0
 10
26.023394
 20
25.079007
 30
0.0
 10
25.333168
 20
24.999212
 30
0.0
 10
24.719723
 20
26.279123
 30
0.0
  0
SPLINE
  5
11d
100
AcDbEntity
  8
Image
 62
7
100
AcDbSpline
 70
8
 71
3
 72
8
 73
4
 74
0
 40
0
 40
0
 40
0
 40
0
 40
1
 40
1
 40
1
 40
1
 10
24.719723
 20
26.279123
 30
0.0
 10
21.940217
 20
32.078366
 30
0.0
 10
11.021978
 20
31.591691
 30
0.0
 10
11.619862
 20
25.695203
 30
0.0
  0
SPLINE
  5
11e
100
AcDbEntity
  8
Image
 62
7
100
AcDbSpline
 70
8
 71
3
 72
8
 73
4
 74
0
 40
0
 40
0
 40
0
 40
0
 40
1
 40
1
 40
1
 40
1
 10
11.619862
 20
25.695203
 30
0.0
 10
12.288127
 20
19.104605
 30
0.0
 10
26.778976
 20
17.953849
 30
0.0
 10
33.360229
 20
23.968742
 30
0.0
  0
SPLINE
  5
11f
100
AcDbEntity
  8
Image
 62
7
100
AcDbSpline
 70
8
 71
3
 72
8
 73
4
 74
0
 40
0
 40
0
 40
0
 40
0
 40
1
 40
1
 40
1
 40
1
 10
33.360229
 20
23.968742
 30
0.0
 10
35.706363
 20
26.112979
 30
0.0
 10
36.571835
 20
26.009404
 30
0.0
 10
35.390897
 20
23.725721
 30
0.0
  0
SPLINE
  5
120
100
AcDbEntity
  8
Image
 62
7
100
AcDbSpline
 70
8
 71
3
 72
8
 73
4
 74
0
 40
0
 40
0
 40
0
 40
0
 40
1
 40
1
 40
1
 40
1
 10
35.390897
 20
23.725721
 30
0.0
 10
32.867707
 20
18.846409
 30
0.0
 10
24.162071
 20
15.690291
 30
0.0
 10
18.000218
 20
17.420950
 30
0.0
  0
SPLINE
  5
121
100
AcDbEntity
  8
Image
 62
7
100
AcDbSpline
 70
8
 71
3
 72
8
 73
4
 74
0
 40
0
 40
0
 40
0
 40
0
 40
1
 40
1
 40
1
 40
1
 10
25.572276
 20
18.079184
 30
0.0
 10
27.852879
 20
18.616755
 30
0.0
 10
29.987868
 20
19.684361
 30
0.0
 10
31.679997
 20
21.133366
 30
0.0
  0
SPLINE
  5
122
100
AcDbEntity
  8
Image
 62
7
100
AcDbSpline
 70
8
 71
3
 72
8
 73
4
 74
0
 40
0
 40
0
 40
0
 40
0
 40
1
 40
1
 40
1
 40
1
 10
31.679997
 20
21.133366
 30
0.0
 10
32.799997
 20
22.092441
 30
0.0
 10
32.799997
 20
22.092441
 30
0.0
 10
31.248514
 20
21.138966
 30
0.0
  0
SPLINE
  5
123
100
AcDbEntity
  8
Image
 62
7
100
AcDbSpline
 70
8
 71
3
 72
8
 73
4
 74
0
 40
0
 40
0
 40
0
 40
0
 40
1
 40
1
 40
1
 40
1
 10
31.248514
 20
21.138966
 30
0.0
 10
27.604705
 20
18.899651
 30
0.0
 10
18.418543
 20
18.825222
 30
0.0
 10
13.919999
 20
20.998563
 30
0.0
  0
SPLINE
  5
124
100
AcDbEntity
  8
Image
 62
7
100
AcDbSpline
 70
8
 71
3
 72
8
 73
4
 74
0
 40
0
 40
0
 40
0
 40
0
 40
1
 40
1
 40
1
 40
1
 10
13.919999
 20
20.998563
 30
0.0
 10
12.319999
 20
21.771558
 30
0.0
 10
12.319999
 20
21.771558
 30
0.0
 10
13.279999
 20
20.940703
 30
0.0
  0
SPLINE
  5
125
100
AcDbEntity
  8
Image
 62
7
100
AcDbSpline
 70
8
 71
3
 72
8
 73
4
 74
0
 40
0
 40
0
 40
0
 40
0
 40
1
 40
1
 40
1
 40
1
 10
13.279999
 20
20.940703
 30
0.0
 10
16.430981
 20
18.213621
 30
0.0
 10
21.317120
 20
17.076175
 30
0.0
 10
25.572276
 20
18.079173
 30
0.0
  0
LWPOLYLINE
  5
126
100
AcDbEntity
  8
Image
 62
7
100
AcDbPolyline
 90
1
 70
1
 10
18.000218
 20
17.420950
 30
0.0
  0
SPLINE
  5
127
100
AcDbEntity
  8
Image
 62
7
100
AcDbSpline
 70
8
 71
3
 72
8
 73
4
 74
0
 40
0
 40
0
 40
0
 40
0
 40
1
 40
1
 40
1
 40
1
 10
29.948694
 20
31.226610
 30
0.0
 10
31.294805
 20
32.329646
 30
0.0
 10
31.697522
 20
32.945973
 30
0.0
 10
31.072155
 20
32.945973
 30
0.0
  0
SPLINE
  5
128
100
AcDbEntity
  8
Image
 62
7
100
AcDbSpline
 70
8
 71
3
 72
8
 73
4
 74
0
 40
0
 40
0
 40
0
 40
0
 40
1
 40
1
 40
1
 40
1
 10
31.072155
 20
32.945973
 30
0.0
 10
30.913841
 20
32.945973
 30
0.0
 10
30.050854
 20
33.439553
 30
0.0
 10
29.154406
 20
34.042817
 30
0.0
  0
SPLINE
  5
129
100
AcDbEntity
  8
Image
 62
7
100
AcDbSpline
 70
8
 71
3
 72
8
 73
4
 74
0
 40
0
 40
0
 40
0
 40
0
 40
1
 40
1
 40
1
 40
1
 10
29.154406
 20
34.042817
 30
0.0
 10
24.085513
 20
37.453931
 30
0.0
 10
14.889997
 20
35.163515
 30
0.0
 10
11.696113
 20
29.694313
 30
0.0
  0
SPLINE
  5
12a
100
AcDbEntity
  8
Image
 62
7
100
AcDbSpline
 70
8
 71
3
 72
8
 73
4
 74
0
 40
0
 40
0
 40
0
 40
0
 40
1
 40
1
 40
1
 40
1
 10
11.696113
 20
29.694313
 30
0.0
 10
11.072228
 20
28.625974
 30
0.0
 10
11.072228
 20
28.625974
 30
0.0
 10
12.083476
 20
29.474681
 30
0.0
  0
SPLINE
  5
12b
100
AcDbEntity
  8
Image
 62
7
100
AcDbSpline
 70
8
 71
3
 72
8
 73
4
 74
0
 40
0
 40
0
 40
0
 40
0
 40
1
 40
1
 40
1
 40
1
 10
12.083476
 20
29.474681
 30
0.0
 10
14.615572
 20
31.599784
 30
0.0
 10
18.983414
 20
31.963845
 30
0.0
 10
21.842820
 20
30.288121
 30
0.0
  0
SPLINE
  5
12c
100
AcDbEntity
  8
Image
 62
7
100
AcDbSpline
 70
8
 71
3
 72
8
 73
4
 74
0
 40
0
 40
0
 40
0
 40
0
 40
1
 40
1
 40
1
 40
1
 10
21.842820
 20
30.288121
 30
0.0
 10
23.306370
 20
29.430425
 30
0.0
 10
25.599999
 20
27.126054
 30
0.0
 10
25.599999
 20
26.513347
 30
0.0
  0
SPLINE
  5
12d
100
AcDbEntity
  8
Image
 62
7
100
AcDbSpline
 70
8
 71
3
 72
8
 73
4
 74
0
 40
0
 40
0
 40
0
 40
0
 40
1
 40
1
 40
1
 40
1
 10
25.599999
 20
26.513347
 30
0.0
 10
25.599999
 20
26.320412
 30
0.0
 10
26.260912
 20
27.041769
 30
0.0
 10
27.068694
 20
28.116358
 30
0.0
  0
SPLINE
  5
12e
100
AcDbEntity
  8
Image
 62
7
100
AcDbSpline
 70
8
 71
3
 72
8
 73
4
 74
0
 40
0
 40
0
 40
0
 40
0
 40
1
 40
1
 40
1
 40
1
 10
27.068694
 20
28.116358
 30
0.0
 10
27.876477
 20
29.190946
 30
0.0
 10
29.172477
 20
30.590559
 30
0.0
 10
29.948694
 20
31.226610
 30
0.0
  0
LWPOLYLINE
  5
12f
100
AcDbEntity
  8
Image
 62
7
100
AcDbPolyline
 90
1
 70
1
 10
25.572276
 20
18.079173
 30
0.0
  0
SPLINE
  5
130
100
AcDbEntity
  8
Image
 62
7
100
AcDbSpline
 70
8
 71
3
 72
8
 73
4
 74
0
 40
0
 40
0
 40
0
 40
0
 40
1
 40
1
 40
1
 40
1
 10
46.374055
 20
29.788802
 30
0.0
 10
48.100240
 20
30.809938
 30
0.0
 10
48.250756
 20
30.973970
 30
0.0
 10
47.609277
 20
31.134972
 30
0.0
  0
SPLINE
  5
131
100
AcDbEntity
  8
Image
 62
7
100
AcDbSpline
 70
8
 71
3
 72
8
 73
4
 74
0
 40
0
 40
0
 40
0
 40
0
 40
1
 40
1
 40
1
 40
1
 10
47.609277
 20
31.134972
 30
0.0
 10
42.231469
 20
32.484715
 30
0.0
 10
39.683085
 20
42.128007
 30
0.0
 10
41.596833
 20
53.886534
 30
0.0
  0
SPLINE
  5
132
100
AcDbEntity
  8
Image
 62
7
100
AcDbSpline
 70
8
 71
3
 72
8
 73
4
 74
0
 40
0
 40
0
 40
0
 40
0
 40
1
 40
1
 40
1
 40
1
 10
41.596833
 20
53.886534
 30
0.0
 10
42.229274
 20
57.772403
 30
0.0
 10
36.597309
 20
53.957474
 30
0.0
 10
35.289105
 20
49.613866
 30
0.0
  0
SPLINE
  5
133
100
AcDbEntity
  8
Image
 62
7
100
AcDbSpline
 70
8
 71
3
 72
8
 73
4
 74
0
 40
0
 40
0
 40
0
 40
0
 40
1
 40
1
 40
1
 40
1
 10
35.289105
 20
49.613866
 30
0.0
 10
34.659725
 20
47.524154
 30
0.0
 10
34.450426
 20
34.867051
 30
0.0
 10
35.045236
 20
34.866353
 30
0.0
  0
SPLINE
  5
134
100
AcDbEntity
  8
Image
 62
7
100
AcDbSpline
 70
8
 71
3
 72
8
 73
4
 74
0
 40
0
 40
0
 40
0
 40
0
 40
1
 40
1
 40
1
 40
1
 10
35.045236
 20
34.866353
 30
0.0
 10
35.224116
 20
34.866145
 30
0.0
 10
35.855069
 20
34.037972
 30
0.0
 10
36.447351
 20
33.025973
 30
0.0
  0
SPLINE
  5
135
100
AcDbEntity
  8
Image
 62
7
100
AcDbSpline
 70
8
 71
3
 72
8
 73
4
 74
0
 40
0
 40
0
 40
0
 40
0
 40
1
 40
1
 40
1
 40
1
 10
36.447351
 20
33.025973
 30
0.0
 10
38.885031
 20
28.860847
 30
0.0
 10
41.880509
 20
26.462307
 30
0.0
 10
43.216468
 20
27.605801
 30
0.0
  0
SPLINE
  5
136
100
AcDbEntity
  8
Image
 62
7
100
AcDbSpline
 70
8
 71
3
 72
8
 73
4
 74
0
 40
0
 40
0
 40
0
 40
0
 40
1
 40
1
 40
1
 40
1
 10
43.216468
 20
27.605801
 30
0.0
 10
43.872000
 20
28.166895
 30
0.0
 10
45.292916
 20
29.149247
 30
0.0
 10
46.374055
 20
29.788802
 30
0.0
  0
LWPOLYLINE
  5
137
100
AcDbEntity
  8
Image
 62
7
100
AcDbPolyline
 90
1
 70
1
 10
29.948694
 20
31.226610
 30
0.0
  0
SPLINE
  5
138
100
AcDbEntity
  8
Image
 62
7
100
AcDbSpline
 70
8
 71
3
 72
8
 73
4
 74
0
 40
0
 40
0
 40
0
 40
0
 40
1
 40
1
 40
1
 40
1
 10
50.111997
 20
33.073973
 30
0.0
 10
52.055764
 20
35.017739
 30
0.0
 10
51.663098
 20
37.374827
 30
0.0
 10
48.806544
 20
40.910331
 30
0.0
  0
SPLINE
  5
139
100
AcDbEntity
  8
Image
 62
7
100
AcDbSpline
 70
8
 71
3
 72
8
 73
4
 74
0
 40
0
 40
0
 40
0
 40
0
 40
1
 40
1
 40
1
 40
1
 10
48.806544
 20
40.910331
 30
0.0
 10
44.704122
 20
45.987818
 30
0.0
 10
44.225088
 20
51.443741
 30
0.0
 10
47.525895
 20
55.496239
 30
0.0
  0
SPLINE
  5
13a
100
AcDbEntity
  8
Image
 62
7
100
AcDbSpline
 70
8
 71
3
 72
8
 73
4
 74
0
 40
0
 40
0
 40
0
 40
0
 40
1
 40
1
 40
1
 40
1
 10
47.525895
 20
55.496239
 30
0.0
 10
48.902170
 20
57.185931
 30
0.0
 10
48.902170
 20
57.185931
 30
0.0
 10
47.411082
 20
56.724587
 30
0.0
  0
SPLINE
  5
13b
100
AcDbEntity
  8
Image
 62
7
100
AcDbSpline
 70
8
 71
3
 72
8
 73
4
 74
0
 40
0
 40
0
 40
0
 40
0
 40
1
 40
1
 40
1
 40
1
 10
47.411082
 20
56.724587
 30
0.0
 10
46.590986
 20
56.470847
 30
0.0
 10
45.188135
 20
56.318702
 30
0.0
 10
44.293632
 20
56.386486
 30
0.0
  0
SPLINE
  5
13c
100
AcDbEntity
  8
Image
 62
7
100
AcDbSpline
 70
8
 71
3
 72
8
 73
4
 74
0
 40
0
 40
0
 40
0
 40
0
 40
1
 40
1
 40
1
 40
1
 10
44.293632
 20
56.386486
 30
0.0
 10
42.410989
 20
56.529150
 30
0.0
 10
41.715636
 20
52.715100
 30
0.0
 10
41.966583
 20
43.622481
 30
0.0
  0
SPLINE
  5
13d
100
AcDbEntity
  8
Image
 62
7
100
AcDbSpline
 70
8
 71
3
 72
8
 73
4
 74
0
 40
0
 40
0
 40
0
 40
0
 40
1
 40
1
 40
1
 40
1
 10
41.966583
 20
43.622481
 30
0.0
 10
42.186673
 20
35.648033
 30
0.0
 10
46.761520
 20
29.723497
 30
0.0
 10
50.111997
 20
33.073973
 30
0.0
  0
LWPOLYLINE
  5
13e
100
AcDbEntity
  8
Image
 62
7
100
AcDbPolyline
 90
1
 70
1
 10
46.374055
 20
29.788802
 30
0.0
  0
SPLINE
  5
13f
100
AcDbEntity
  8
Image
 62
7
100
AcDbSpline
 70
8
 71
3
 72
8
 73
4
 74
0
 40
0
 40
0
 40
0
 40
0
 40
1
 40
1
 40
1
 40
1
 10
53.777078
 20
35.105972
 30
0.0
 10
57.581225
 20
39.384494
 30
0.0
 10
57.584194
 20
44.157338
 30
0.0
 10
53.785778
 20
49.072615
 30
0.0
  0
SPLINE
  5
140
100
AcDbEntity
  8
Image
 62
7
100
AcDbSpline
 70
8
 71
3
 72
8
 73
4
 74
0
 40
0
 40
0
 40
0
 40
0
 40
1
 40
1
 40
1
 40
1
 10
53.785778
 20
49.072615
 30
0.0
 10
50.810966
 20
52.922112
 30
0.0
 10
50.081507
 20
56.074290
 30
0.0
 10
51.722156
 20
57.990026
 30
0.0
  0
SPLINE
  5
141
100
AcDbEntity
  8
Image
 62
7
100
AcDbSpline
 70
8
 71
3
 72
8
 73
4
 74
0
 40
0
 40
0
 40
0
 40
0
 40
1
 40
1
 40
1
 40
1
 10
51.722156
 20
57.990026
 30
0.0
 10
52.050969
 20
58.373972
 30
0.0
 10
51.574208
 20
58.031306
 30
0.0
 10
50.662688
 20
57.228554
 30
0.0
  0
SPLINE
  5
142
100
AcDbEntity
  8
Image
 62
7
100
AcDbSpline
 70
8
 71
3
 72
8
 73
4
 74
0
 40
0
 40
0
 40
0
 40
0
 40
1
 40
1
 40
1
 40
1
 10
50.662688
 20
57.228554
 30
0.0
 10
45.096060
 20
52.326166
 30
0.0
 10
44.669792
 20
47.595489
 30
0.0
 10
49.282009
 20
41.905972
 30
0.0
  0
SPLINE
  5
143
100
AcDbEntity
  8
Image
 62
7
100
AcDbSpline
 70
8
 71
3
 72
8
 73
4
 74
0
 40
0
 40
0
 40
0
 40
0
 40
1
 40
1
 40
1
 40
1
 10
49.282009
 20
41.905972
 30
0.0
 10
51.556211
 20
39.100574
 30
0.0
 10
52.243859
 20
37.497054
 30
0.0
 10
52.107913
 20
35.316273
 30
0.0
  0
SPLINE
  5
144
100
AcDbEntity
  8
Image
 62
7
100
AcDbSpline
 70
8
 71
3
 72
8
 73
4
 74
0
 40
0
 40
0
 40
0
 40
0
 40
1
 40
1
 40
1
 40
1
 10
52.107913
 20
35.316273
 30
0.0
 10
51.976281
 20
33.204750
 30
0.0
 10
52.075533
 20
33.192245
 30
0.0
 10
53.777074
 20
35.105972
 30
0.0
  0
LWPOLYLINE
  5
145
100
AcDbEntity
  8
Image
 62
7
100
AcDbPolyline
 90
1
 70
1
 10
50.111997
 20
33.073973
 30
0.0
  0
SPLINE
  5
146
100
AcDbEntity
  8
Image
 62
7
100
AcDbSpline
 70
8
 71
3
 72
8
 73
4
 74
0
 40
0
 40
0
 40
0
 40
0
 40
1
 40
1
 40
1
 40
1
 10
23.519999
 20
39.779444
 30
0.0
 10
26.661417
 20
41.246526
 30
0.0
 10
28.774886
 20
43.791806
 30
0.0
 10
30.087804
 20
47.689140
 30
0.0
  0
SPLINE
  5
147
100
AcDbEntity
  8
Image
 62
7
100
AcDbSpline
 70
8
 71
3
 72
8
 73
4
 74
0
 40
0
 40
0
 40
0
 40
0
 40
1
 40
1
 40
1
 40
1
 10
30.087804
 20
47.689140
 30
0.0
 10
30.875934
 20
50.028669
 30
0.0
 10
30.949005
 20
58.218961
 30
0.0
 10
30.181794
 20
58.223656
 30
0.0
  0
SPLINE
  5
148
100
AcDbEntity
  8
Image
 62
7
100
AcDbSpline
 70
8
 71
3
 72
8
 73
4
 74
0
 40
0
 40
0
 40
0
 40
0
 40
1
 40
1
 40
1
 40
1
 10
30.181794
 20
58.223656
 30
0.0
 10
29.973778
 20
58.224956
 30
0.0
 10
29.483406
 20
58.693970
 30
0.0
 10
29.092077
 20
59.265970
 30
0.0
  0
SPLINE
  5
149
100
AcDbEntity
  8
Image
 62
7
100
AcDbSpline
 70
8
 71
3
 72
8
 73
4
 74
0
 40
0
 40
0
 40
0
 40
0
 40
1
 40
1
 40
1
 40
1
 10
29.092077
 20
59.265970
 30
0.0
 10
25.328205
 20
64.767576
 30
0.0
 10
20.107912
 20
66.067314
 30
0.0
 10
12.160004
 20
63.481684
 30
0.0
  0
SPLINE
  5
14a
100
AcDbEntity
  8
Image
 62
7
100
AcDbSpline
 70
8
 71
3
 72
8
 73
4
 74
0
 40
0
 40
0
 40
0
 40
0
 40
1
 40
1
 40
1
 40
1
 10
12.160004
 20
63.481684
 30
0.0
 10
9.205892
 20
62.520647
 30
0.0
 10
6.455297
 20
62.316140
 30
0.0
 10
5.635416
 20
62.996581
 30
0.0
  0
SPLINE
  5
14b
100
AcDbEntity
  8
Image
 62
7
100
AcDbSpline
 70
8
 71
3
 72
8
 73
4
 74
0
 40
0
 40
0
 40
0
 40
0
 40
1
 40
1
 40
1
 40
1
 10
5.635416
 20
62.996581
 30
0.0
 10
4.835202
 20
63.660699
 30
0.0
 10
4.954860
 20
61.966944
 30
0.0
 10
5.816457
 20
60.433938
 30
0.0
  0
SPLINE
  5
14c
100
AcDbEntity
  8
Image
 62
7
100
AcDbSpline
 70
8
 71
3
 72
8
 73
4
 74
0
 40
0
 40
0
 40
0
 40
0
 40
1
 40
1
 40
1
 40
1
 10
5.816457
 20
60.433938
 30
0.0
 10
7.372531
 20
57.665277
 30
0.0
 10
10.349331
 20
56.559312
 30
0.0
 10
15.465517
 20
56.849039
 30
0.0
  0
SPLINE
  5
14d
100
AcDbEntity
  8
Image
 62
7
100
AcDbSpline
 70
8
 71
3
 72
8
 73
4
 74
0
 40
0
 40
0
 40
0
 40
0
 40
1
 40
1
 40
1
 40
1
 10
15.465517
 20
56.849039
 30
0.0
 10
23.120100
 20
57.282513
 30
0.0
 10
25.760004
 20
55.009681
 30
0.0
 10
25.760004
 20
47.985972
 30
0.0
  0
SPLINE
  5
14e
100
AcDbEntity
  8
Image
 62
7
100
AcDbSpline
 70
8
 71
3
 72
8
 73
4
 74
0
 40
0
 40
0
 40
0
 40
0
 40
1
 40
1
 40
1
 40
1
 10
25.760004
 20
47.985972
 30
0.0
 10
25.760004
 20
42.252404
 30
0.0
 10
24.070624
 20
39.834507
 30
0.0
 10
19.717080
 20
39.337127
 30
0.0
  0
SPLINE
  5
14f
100
AcDbEntity
  8
Image
 62
7
100
AcDbSpline
 70
8
 71
3
 72
8
 73
4
 74
0
 40
0
 40
0
 40
0
 40
0
 40
1
 40
1
 40
1
 40
1
 10
19.717080
 20
39.337127
 30
0.0
 10
17.760004
 20
39.113540
 30
0.0
 10
17.760004
 20
39.113540
 30
0.0
 10
19.840004
 20
39.072881
 30
0.0
  0
SPLINE
  5
150
100
AcDbEntity
  8
Image
 62
7
100
AcDbSpline
 70
8
 71
3
 72
8
 73
4
 74
0
 40
0
 40
0
 40
0
 40
0
 40
1
 40
1
 40
1
 40
1
 10
19.840004
 20
39.072881
 30
0.0
 10
21.411274
 20
39.042161
 30
0.0
 10
22.311334
 20
39.214980
 30
0.0
 10
23.520004
 20
39.779444
 30
0.0
  0
LWPOLYLINE
  5
151
100
AcDbEntity
  8
Image
 62
7
100
AcDbPolyline
 90
1
 70
1
 10
53.777074
 20
35.105972
 30
0.0
  0
SPLINE
  5
152
100
AcDbEntity
  8
Image
 62
7
100
AcDbSpline
 70
8
 71
3
 72
8
 73
4
 74
0
 40
0
 40
0
 40
0
 40
0
 40
1
 40
1
 40
1
 40
1
 10
15.475719
 20
41.425972
 30
0.0
 10
15.584298
 20
41.708922
 30
0.0
 10
16.064658
 20
41.905972
 30
0.0
 10
16.645847
 20
41.905972
 30
0.0
  0
SPLINE
  5
153
100
AcDbEntity
  8
Image
 62
7
100
AcDbSpline
 70
8
 71
3
 72
8
 73
4
 74
0
 40
0
 40
0
 40
0
 40
0
 40
1
 40
1
 40
1
 40
1
 10
16.645847
 20
41.905972
 30
0.0
 10
19.847326
 20
41.905972
 30
0.0
 10
21.438948
 20
45.476254
 30
0.0
 10
19.224614
 20
47.690586
 30
0.0
  0
SPLINE
  5
154
100
AcDbEntity
  8
Image
 62
7
100
AcDbSpline
 70
8
 71
3
 72
8
 73
4
 74
0
 40
0
 40
0
 40
0
 40
0
 40
1
 40
1
 40
1
 40
1
 10
19.224614
 20
47.690586
 30
0.0
 10
16.933237
 20
49.981965
 30
0.0
 10
12.721795
 20
47.638886
 30
0.0
 10
13.325565
 20
44.408586
 30
0.0
  0
SPLINE
  5
155
100
AcDbEntity
  8
Image
 62
7
100
AcDbSpline
 70
8
 71
3
 72
8
 73
4
 74
0
 40
0
 40
0
 40
0
 40
0
 40
1
 40
1
 40
1
 40
1
 10
13.325565
 20
44.408586
 30
0.0
 10
13.725365
 20
42.269569
 30
0.0
 10
15.078929
 20
40.391953
 30
0.0
 10
15.475719
 20
41.425972
 30
0.0
  0
LWPOLYLINE
  5
156
100
AcDbEntity
  8
Image
 62
7
100
AcDbPolyline
 90
1
 70
1
 10
23.520004
 20
39.779444
 30
0.0
  0
SPLINE
  5
157
100
AcDbEntity
  8
Image
 62
7
100
AcDbSpline
 70
8
 71
3
 72
8
 73
4
 74
0
 40
0
 40
0
 40
0
 40
0
 40
1
 40
1
 40
1
 40
1
 10
49.006170
 20
58.311249
 30
0.0
 10
50.470327
 20
59.178654
 30
0.0
 10
54.429327
 20
63.041120
 30
0.0
 10
53.221033
 20
62.423339
 30
0.0
  0
SPLINE
  5
158
100
AcDbEntity
  8
Image
 62
7
100
AcDbSpline
 70
8
 71
3
 72
8
 73
4
 74
0
 40
0
 40
0
 40
0
 40
0
 40
1
 40
1
 40
1
 40
1
 10
53.221033
 20
62.423339
 30
0.0
 10
51.766791
 20
61.679808
 30
0.0
 10
49.430260
 20
61.998705
 30
0.0
 10
46.428244
 20
63.350440
 30
0.0
  0
SPLINE
  5
159
100
AcDbEntity
  8
Image
 62
7
100
AcDbSpline
 70
8
 71
3
 72
8
 73
4
 74
0
 40
0
 40
0
 40
0
 40
0
 40
1
 40
1
 40
1
 40
1
 10
46.428244
 20
63.350440
 30
0.0
 10
41.982314
 20
65.352333
 30
0.0
 10
39.361261
 20
65.516806
 30
0.0
 10
36.384708
 20
63.980677
 30
0.0
  0
SPLINE
  5
15a
100
AcDbEntity
  8
Image
 62
7
100
AcDbSpline
 70
8
 71
3
 72
8
 73
4
 74
0
 40
0
 40
0
 40
0
 40
0
 40
1
 40
1
 40
1
 40
1
 10
36.384708
 20
63.980677
 30
0.0
 10
33.954145
 20
62.726320
 30
0.0
 10
32.106679
 20
60.585917
 30
0.0
 10
33.897988
 20
61.099658
 30
0.0
  0
SPLINE
  5
15b
100
AcDbEntity
  8
Image
 62
7
100
AcDbSpline
 70
8
 71
3
 72
8
 73
4
 74
0
 40
0
 40
0
 40
0
 40
0
 40
1
 40
1
 40
1
 40
1
 10
33.897988
 20
61.099658
 30
0.0
 10
35.393364
 20
61.528526
 30
0.0
 10
37.265066
 20
60.908867
 30
0.0
 10
40.257085
 20
58.994373
 30
0.0
  0
SPLINE
  5
15c
100
AcDbEntity
  8
Image
 62
7
100
AcDbSpline
 70
8
 71
3
 72
8
 73
4
 74
0
 40
0
 40
0
 40
0
 40
0
 40
1
 40
1
 40
1
 40
1
 10
40.257085
 20
58.994373
 30
0.0
 10
43.578733
 20
56.868959
 30
0.0
 10
46.223108
 20
56.662488
 30
0.0
 10
49.006170
 20
58.311249
 30
0.0
  0
LWPOLYLINE
  5
15d
100
AcDbEntity
  8
Image
 62
7
100
AcDbPolyline
 90
1
 70
1
 10
15.475719
 20
41.425972
 30
0.0
  0
LWPOLYLINE
  5
15e
100
AcDbEntity
  8
Image
 62
7
100
AcDbPolyline
 90
1
 70
1
 10
49.006170
 20
58.311249
 30
0.0
  0
ENDSEC
  0
SECTION
  2
OBJECTS
  0
DICTIONARY
  5
C
330
0
100
AcDbDictionary
  3
ACAD_GROUP
350
D
  3
ACAD_MLINESTYLE
350
17
  0
DICTIONARY
  5
D
330
C
100
AcDbDictionary
  0
DICTIONARY
  5
1A
330
C
100
AcDbDictionary
  0
DICTIONARY
  5
17
330
C
100
AcDbDictionary
  3
STANDARD
350
18
  0
DICTIONARY
  5
19
330
C
100
AcDbDictionary
  0
ENDSEC
  0
EOF
